<?xml version="1.0" encoding="utf-8" standalone="no"?>
<!-- Generator: DataGraph - https://www.visualdatatools.com/DataGraph/index.html  --><!DOCTYPE svg PUBLIC "-//W3C//DTD SVG 1.1//EN" "http://www.w3.org/Graphics/SVG/1.1/DTD/svg11.dtd">
<svg width="563" height="406" version="1.1" xmlns="http://www.w3.org/2000/svg" xmlns:xlink="http://www.w3.org/1999/xlink">
<g>
  <!-- Background -->
  <g id="Background">
    <defs>
      <clipPath id="clipPath">
        <rect x="74.5" y="18.5" width="473" height="343"/>
      </clipPath>
    </defs>
    <!-- Grid -->
    <g id="Grid" clip-path="url(#clipPath)">
      <path d="M 74.5 332.917 L 547.5 332.917 M 74.5 304.333 L 547.5 304.333 M 74.5 275.75 L 547.5 275.75 
               M 74.5 247.167 L 547.5 247.167 M 74.5 218.583 L 547.5 218.583 M 74.5 190 L 547.5 190 M 74.5 161.417 L 547.5 161.417 
               M 74.5 132.833 L 547.5 132.833 M 74.5 104.25 L 547.5 104.25 M 74.5 75.6667 L 547.5 75.6667 
               M 74.5 47.0833 L 547.5 47.0833 "
        stroke="black" stroke-dasharray="0.00997506,3.99002" stroke-linecap="round" fill="none" stroke-width="0.5"/>
    </g>
  </g>
  <!-- Commands -->
  <g id="Commands">
    <!-- Measured angle vs millis -->
    <g id="Measured_angle_vs_millis">
      <defs>
        <clipPath id="clipPath2">
          <rect x="74.5" y="18.5" width="473" height="343"/>
        </clipPath>
      </defs>
      <g clip-path="url(#clipPath2)">
        <path d="M -50.1681 231.236 L 73.8314 322.814 L 74.0487 323.213 L 75.3858 323.256 L 79.4974 323.218 
                 L 79.7147 323.114 L 79.8484 323.22 L 80.0657 322.735 L 80.166 322.85 L 80.3833 321.673 
                 L 80.5002 321.706 L 80.7342 320.292 L 80.8512 320.289 L 81.0518 319.134 L 81.1688 319.13 
                 L 81.3861 317.756 L 81.5198 317.753 L 81.7204 316.502 L 81.8373 316.499 L 82.0546 315.601 
                 L 82.1883 315.591 L 82.3889 315.21 L 82.5226 315.207 L 82.7065 314.767 L 82.8569 314.796 
                 L 83.0575 313.839 L 83.1912 313.829 L 83.3917 312.691 L 83.5087 312.688 L 84.5617 309.179 
                 L 84.7288 307.378 L 84.8625 307.386 L 85.0631 305.604 L 85.1968 305.616 L 85.3974 304.276 
                 L 85.5144 304.286 L 85.7317 303.585 L 85.8654 303.572 L 86.0659 302.99 L 86.1829 302.99 
                 L 86.4002 301.849 L 86.5339 301.849 L 86.7345 300.568 L 86.8515 300.58 L 87.871 296.608 
                 L 88.0549 294.563 L 88.2053 294.563 L 88.4059 292.636 L 88.5229 292.636 L 88.7569 291.39 
                 L 88.8739 291.398 L 89.0744 291.096 L 89.5424 291.075 L 89.7263 290.133 L 89.86 290.133 
                 L 90.0772 289.068 L 90.211 289.061 L 90.7291 286.444 L 90.8628 286.455 L 91.1804 284.491 
                 L 91.4143 282.756 L 91.5481 282.756 L 91.8489 281.688 L 92.0829 281.185 L 92.2166 281.173 
                 L 92.4005 280.224 L 92.5342 280.236 L 92.7514 279.368 L 92.9019 279.368 L 93.1024 278.58 
                 L 93.2194 278.58 L 93.42 277.528 L 93.537 277.528 L 93.7376 276.053 L 93.8713 276.053 
                 L 94.0886 274.314 L 94.2223 274.314 L 94.5231 272.777 L 94.7571 271.585 L 94.8741 271.585 
                 L 95.0914 270.854 L 95.2084 270.854 L 95.4089 270.626 L 95.5427 270.626 L 95.8602 270.124 
                 L 96.0942 268.701 L 96.2279 268.707 L 96.4285 267.591 L 96.5455 267.589 L 96.746 266.167 
                 L 96.863 266.161 L 97.097 264.66 L 97.2307 264.66 L 97.4146 262.847 L 97.5483 262.847 
                 L 97.7656 261.178 L 97.8826 261.176 L 98.0831 260.157 L 98.2001 260.162 L 98.4341 259.551 
                 L 98.5678 259.564 L 99.1027 258.797 L 99.2364 258.797 L 99.5707 258.69 L 99.7378 258.076 
                 L 99.9049 258.081 L 100.106 256.409 L 100.223 256.407 L 100.44 254.282 L 100.573 254.282 
                 L 100.774 252.358 L 100.891 252.358 L 101.092 250.348 L 101.242 250.348 L 101.443 248.663 
                 L 101.576 248.663 L 101.76 247.388 L 101.894 247.403 L 102.111 246.747 L 102.245 246.747 
                 L 102.412 246.152 L 102.546 246.148 L 102.78 245.383 L 102.897 245.387 L 103.097 244.213 
                 L 103.248 244.196 L 103.415 242.605 L 103.565 242.626 L 103.766 240.789 L 103.9 240.789 
                 L 104.1 239.526 L 104.234 239.505 L 104.434 238.717 L 105.22 238.7 L 105.437 237.951 
                 L 105.571 237.951 L 105.771 236.953 L 105.888 236.953 L 106.122 235.604 L 106.223 235.623 
                 L 106.44 234.052 L 106.557 234.049 L 106.758 232.713 L 106.908 232.729 L 107.109 231.354 
                 L 107.242 231.356 L 107.443 229.855 L 107.577 229.837 L 107.76 228.73 L 107.928 228.73 
                 L 108.111 228.039 L 108.245 228.039 L 108.78 227.876 L 108.914 227.876 L 109.114 227.348 
                 L 109.248 227.345 L 109.449 225.737 L 109.582 225.734 L 109.783 223.599 L 109.933 223.601 
                 L 110.117 221.484 L 110.251 221.484 L 110.468 219.457 L 110.602 219.457 L 110.769 217.705 
                 L 110.903 217.705 L 111.12 216.204 L 111.254 216.202 L 111.454 214.998 L 111.605 214.999 
                 L 111.788 214.383 L 111.922 214.382 L 112.123 213.597 L 112.256 213.598 L 112.457 212.79 
                 L 112.591 212.79 L 112.775 212.029 L 112.925 212.029 L 113.126 211.457 L 113.259 211.457 
                 L 113.46 210.133 L 113.594 210.133 L 113.794 208.413 L 113.928 208.413 L 114.128 206.561 
                 L 114.245 206.58 L 114.463 205.033 L 114.596 205.033 L 114.797 204.262 L 114.931 204.261 
                 L 115.131 204.007 L 116.251 203.958 L 116.468 203.442 L 116.619 203.443 L 116.803 201.617 
                 L 116.936 201.618 L 117.12 199.686 L 117.271 199.686 L 117.454 198.094 L 117.605 198.094 
                 L 117.805 197.102 L 117.922 197.101 L 118.14 196.037 L 118.307 196.057 L 118.457 194.623 
                 L 118.608 194.622 L 118.825 193.278 L 118.942 193.278 L 119.143 191.54 L 119.26 191.542 
                 L 119.477 189.569 L 119.61 189.548 L 119.811 187.336 L 119.945 187.334 L 120.129 185.497 
                 L 120.279 185.476 L 120.463 184.196 L 120.613 184.196 L 120.797 184.024 L 121.282 183.997 
                 L 121.466 183.313 L 121.616 183.313 L 121.8 182.313 L 121.95 182.313 L 122.151 181.493 
                 L 122.285 181.493 L 122.452 180.544 L 122.636 180.541 L 122.803 179.166 L 122.953 179.169 
                 L 123.137 177.507 L 123.288 177.507 L 123.471 175.657 L 123.639 175.672 L 123.822 174.343 
                 L 123.956 174.347 L 124.14 173.47 L 124.29 173.47 L 124.457 172.966 L 125.611 172.919 
                 L 125.811 172.252 L 125.962 172.252 L 126.146 170.353 L 126.279 170.353 L 126.48 168.386 
                 L 126.63 168.386 L 126.831 166.422 L 126.965 166.422 L 127.148 164.614 L 127.316 164.614 
                 L 127.499 163.41 L 127.616 163.429 L 127.8 162.697 L 127.967 162.697 L 128.151 162.075 
                 L 128.285 162.046 L 128.469 161.628 L 128.636 161.654 L 128.82 160.655 L 128.97 160.647 
                 L 129.171 158.994 L 129.304 159.001 L 129.488 156.874 L 129.639 156.874 L 129.806 155.29 
                 L 129.956 155.283 L 130.14 154.366 L 130.307 154.396 L 130.491 153.774 L 130.642 153.746 
                 L 130.825 153.187 L 130.993 153.215 L 131.16 151.883 L 131.293 151.891 L 131.494 150.514 
                 L 131.661 150.514 L 131.812 148.814 L 131.979 148.804 L 132.163 146.892 L 132.313 146.892 
                 L 132.48 145.16 L 132.647 145.126 L 132.814 143.592 L 132.982 143.603 L 133.149 142.685 
                 L 133.984 142.611 L 134.319 142.556 L 134.486 142.117 L 134.653 142.12 L 134.837 141.106 
                 L 134.97 141.106 L 135.154 139.709 L 135.321 139.705 L 135.489 137.687 L 135.639 137.67 
                 L 135.84 135.97 L 135.99 135.984 L 136.157 134.675 L 136.324 134.675 L 136.475 133.441 
                 L 136.675 133.441 L 136.826 132.665 L 137.31 132.609 L 137.661 132.598 L 137.845 132.266 
                 L 137.996 132.266 L 138.163 130.969 L 138.347 130.928 L 138.497 129.208 L 138.664 129.225 
                 L 138.831 127.005 L 139.015 127.021 L 139.182 124.9 L 139.333 124.9 L 139.517 122.821 
                 L 139.667 122.821 L 139.834 120.771 L 140.001 120.709 L 140.168 119.557 L 140.336 119.581 
                 L 140.486 119.054 L 140.67 119.074 L 140.837 118.748 L 142.007 118.659 L 142.174 118.16 
                 L 142.341 118.16 L 142.508 116.389 L 142.659 116.415 L 142.843 114.479 L 143.01 114.479 
                 L 143.16 113.206 L 143.344 113.206 L 143.511 112.45 L 143.695 112.45 L 143.996 112.24 
                 L 144.347 112.229 L 144.514 111.889 L 144.664 111.94 L 144.848 110.244 L 145.015 110.244 
                 L 145.166 108.026 L 145.35 108.017 L 145.517 105.901 L 145.667 105.901 L 145.868 103.676 
                 L 146.018 103.729 L 146.185 101.947 L 146.353 101.954 L 146.52 100.846 L 146.687 100.846 
                 L 146.837 100.261 L 147.673 99.8677 L 147.873 98.6588 L 148.024 98.6588 L 148.191 96.5654 
                 L 148.375 96.5654 L 148.525 94.7385 L 148.692 94.7385 L 148.843 93.0294 L 149.027 93.0294 
                 L 149.194 91.3997 L 149.361 91.2964 L 149.511 90.5036 L 149.695 90.483 L 149.862 90.0895 
                 L 150.347 90.09 L 150.531 89.9106 L 150.698 89.9106 L 150.849 89.6959 L 151.032 89.8122 
                 L 151.183 88.9983 L 151.367 88.7698 L 151.517 87.6567 L 151.718 87.8086 L 151.868 86.1905 
                 L 152.035 86.3486 L 152.186 84.626 L 152.353 84.626 L 152.537 82.7927 L 152.704 82.7927 
                 L 152.854 81.4422 L 153.038 81.1299 L 153.523 79.1734 L 153.707 79.1734 L 154.024 80.2497 
                 L 154.191 79.747 L 156.364 79.7988 L 156.531 80.256 L 156.715 80.1854 L 156.866 79.8507 
                 L 157.066 79.8507 L 157.2 80.7709 L 157.384 81.0434 L 157.534 81.9572 L 157.701 81.6759 
                 L 158.052 81.6551 L 158.219 82.0097 L 158.37 82.0097 L 158.704 82.7759 L 158.871 83.8897 
                 L 159.055 83.8897 L 159.205 85.6608 L 159.473 85.6608 L 159.54 87.3119 L 159.724 87.1942 
                 L 159.874 88.9405 L 160.058 88.9779 L 160.192 90.6467 L 160.375 90.6467 L 160.559 91.9717 
                 L 160.743 91.8567 L 160.877 92.428 L 161.228 92.5192 L 161.395 92.5192 L 161.529 92.6611 
                 L 161.729 92.6611 L 162.047 92.5302 L 162.214 92.6634 L 162.548 92.6729 L 162.732 92.7832 
                 L 162.882 93.8354 L 163.05 93.8354 L 163.217 95.401 L 163.401 95.401 L 163.551 97.5868 
                 L 163.735 97.5868 L 163.885 99.3562 L 164.052 99.2739 L 164.22 100.429 L 164.37 100.479 
                 L 164.554 101.154 L 165.557 101.431 L 165.741 101.431 L 165.891 101.572 L 166.058 101.561 
                 L 166.225 102.878 L 166.392 102.834 L 166.56 104.629 L 166.727 104.629 L 166.894 106.331 
                 L 167.061 106.331 L 167.228 107.698 L 167.412 107.698 L 167.562 108.736 L 167.729 108.736 
                 L 167.88 109.781 L 168.08 109.814 L 168.231 110.862 L 168.398 110.862 L 168.548 111.948 
                 L 168.732 111.948 L 168.883 113.653 L 169.083 113.653 L 169.234 115.627 L 169.401 115.627 
                 L 169.551 117.617 L 169.735 117.617 L 169.902 119.218 L 170.069 119.218 L 170.237 120.037 
                 L 170.404 120.009 L 170.554 120.446 L 171.757 120.596 L 171.891 120.773 L 172.075 120.751 
                 L 172.225 121.949 L 172.409 121.949 L 172.56 123.539 L 172.76 123.56 L 172.894 125.194 
                 L 173.078 125.194 L 173.228 127.073 L 173.412 127.073 L 173.546 128.471 L 173.763 128.475 
                 L 173.897 129.512 L 174.081 129.512 L 174.231 130.13 L 174.415 130.146 L 174.565 130.79 
                 L 174.749 130.737 L 174.9 131.69 L 175.084 131.702 L 175.251 132.997 L 175.435 132.997 
                 L 175.568 134.942 L 175.752 134.942 L 175.903 136.245 L 176.086 136.245 L 176.237 137.398 
                 L 176.437 137.381 L 176.571 138.695 L 176.755 138.712 L 176.905 139.727 L 177.089 139.715 
                 L 177.256 140.362 L 177.423 140.362 L 177.591 140.567 L 178.426 140.701 L 178.577 141.026 
                 L 178.761 141.026 L 178.911 142.823 L 179.095 142.823 L 179.245 144.91 L 179.429 144.907 
                 L 179.58 146.623 L 179.763 146.589 L 179.931 147.901 L 180.114 147.914 L 180.248 149.173 
                 L 180.449 149.173 L 180.566 150.612 L 180.766 150.61 L 180.933 151.898 L 181.1 151.898 
                 L 181.251 153.196 L 181.451 153.196 L 181.585 155.005 L 181.819 154.998 L 181.936 156.633 
                 L 182.12 156.667 L 182.254 157.825 L 182.438 157.816 L 182.588 158.923 L 182.772 158.923 
                 L 182.939 159.395 L 183.106 159.395 L 183.24 159.979 L 183.775 160.011 L 184.126 160.093 
                 L 184.46 160.112 L 184.577 160.412 L 184.794 160.436 L 184.928 162.402 L 185.195 162.396 
                 L 185.262 164.855 L 185.446 164.855 L 185.597 167.275 L 185.797 167.275 L 185.947 169.536 
                 L 186.131 169.541 L 186.265 171.297 L 186.432 171.297 L 186.583 172.196 L 186.783 172.169 
                 L 186.934 172.35 L 187.803 172.449 L 187.936 172.716 L 188.104 172.692 L 188.254 174.351 
                 L 188.455 174.351 L 188.605 176.223 L 188.789 176.223 L 188.939 178.359 L 189.106 178.359 
                 L 189.257 180.665 L 189.474 180.683 L 189.591 182.623 L 189.792 182.65 L 189.925 184.022 
                 L 190.143 184.001 L 190.276 184.784 L 191.145 184.865 L 191.446 184.888 L 191.597 185.213 
                 L 191.781 185.215 L 191.931 187.096 L 192.132 187.096 L 192.249 188.96 L 192.449 188.961 
                 L 192.583 190.052 L 192.8 190.052 L 192.951 190.524 L 193.134 190.524 L 193.268 190.914 
                 L 193.803 190.981 L 193.937 191.231 L 194.137 191.253 L 194.254 192.787 L 194.488 192.787 
                 L 194.622 194.571 L 194.823 194.571 L 194.956 196.578 L 195.123 196.556 L 195.274 199.023 
                 L 195.474 199.026 L 195.608 201.069 L 195.809 201.069 L 195.942 202.463 L 196.143 202.463 
                 L 196.293 203.062 L 196.477 203.062 L 196.594 203.886 L 196.828 203.886 L 196.945 204.776 
                 L 197.162 204.755 L 197.279 205.598 L 197.48 205.597 L 197.597 206.364 L 197.798 206.364 
                 L 197.965 207.469 L 198.149 207.487 L 198.299 208.729 L 198.516 208.69 L 198.617 210.588 
                 L 198.834 210.606 L 198.951 212.704 L 199.151 212.686 L 199.285 214.474 L 199.486 214.491 
                 L 199.619 215.508 L 199.82 215.508 L 199.954 216.326 L 200.154 216.306 L 200.288 217.171 
                 L 200.823 217.259 L 201.508 217.373 L 201.625 218.174 L 201.826 218.172 L 201.959 220.586 
                 L 202.16 220.588 L 202.294 223.241 L 202.494 223.239 L 202.611 225.355 L 202.828 225.355 
                 L 202.962 226.57 L 203.163 226.57 L 203.28 227.633 L 203.497 227.633 L 203.614 228.936 
                 L 203.831 228.933 L 203.965 230.037 L 204.149 230.04 L 204.299 231.164 L 204.517 231.161 
                 L 204.617 232.597 L 204.834 232.581 L 204.951 233.603 L 205.185 233.618 L 205.302 234.468 
                 L 205.636 234.534 L 205.837 234.553 L 205.954 234.865 L 206.188 234.865 L 206.305 236.108 
                 L 206.505 236.115 L 206.622 237.218 L 206.823 237.211 L 206.973 238.121 L 207.191 238.103 
                 L 207.324 239.239 L 207.508 239.257 L 207.642 240.747 L 207.843 240.751 L 207.96 242.895 
                 L 208.177 242.895 L 208.294 244.942 L 208.511 244.942 L 208.645 246.563 L 208.845 246.563 
                 L 208.962 247.593 L 209.18 247.589 L 209.297 247.858 L 209.497 247.858 L 209.648 248.697 
                 L 209.831 248.687 L 209.982 249.986 L 210.182 249.986 L 210.299 251.422 L 210.5 251.422 
                 L 210.634 253.303 L 210.851 253.299 L 210.968 255.056 L 211.185 255.056 L 211.336 256.879 
                 L 211.52 256.879 L 211.653 258.043 L 211.854 258.046 L 211.971 258.782 L 213.191 258.863 
                 L 213.325 259.089 L 213.525 259.094 L 213.659 260.559 L 213.86 260.559 L 213.977 262.676 
                 L 214.194 262.676 L 214.311 264.775 L 214.528 264.775 L 214.645 266.708 L 214.862 266.708 
                 L 214.979 268.677 L 215.18 268.69 L 215.314 269.847 L 215.548 269.849 L 215.665 270.415 
                 L 216.199 270.491 L 216.316 270.57 L 216.851 270.607 L 216.985 270.786 L 217.202 270.786 
                 L 217.319 271.879 L 217.537 271.879 L 217.654 273.338 L 217.871 273.332 L 217.988 274.953 
                 L 218.205 274.941 L 218.322 276.537 L 218.523 276.497 L 218.656 278.011 L 218.874 278.005 
                 L 218.991 279.08 L 219.191 279.061 L 219.325 280.289 L 219.542 280.289 L 219.659 281.582 
                 L 219.876 281.562 L 219.993 283.134 L 220.194 283.115 L 220.328 284.663 L 220.545 284.67 
                 L 220.662 286.142 L 220.879 286.142 L 220.996 287.671 L 221.214 287.663 L 221.314 288.688 
                 L 221.548 288.696 L 221.648 289.037 L 223.32 289.136 L 223.888 289.144 L 224.005 289.305 
                 L 224.239 289.286 L 224.322 291.519 L 224.54 291.49 L 224.673 294.88 L 224.891 294.888 
                 L 224.991 298.016 L 225.225 298.016 L 225.342 300.244 L 225.542 300.257 L 225.676 301.58 
                 L 225.893 301.588 L 226.01 302.712 L 226.211 302.712 L 226.328 303.691 L 226.562 303.691 
                 L 226.662 304.894 L 226.896 304.886 L 226.997 306.968 L 227.231 306.968 L 227.331 309.551 
                 L 227.565 309.56 L 227.682 312.578 L 227.899 312.554 L 227.999 315.107 L 228.217 315.088 
                 L 228.334 316.864 L 228.568 316.868 L 228.668 317.727 L 230.256 317.814 L 230.323 319.306 
                 L 230.557 319.27 L 230.674 321.004 L 230.908 320.997 L 231.008 322.354 L 231.242 322.344 
                 L 231.342 323.024 L 231.576 323.035 L 231.66 323.472 L 232.897 323.504 L 233.682 323.467 
                 L 236.908 323.413 L 237.025 323.19 L 237.259 323.308 L 237.376 322.864 L 237.61 322.892 
                 L 237.693 322.215 L 237.911 322.223 L 238.011 321.047 L 238.262 321.035 L 238.362 319.562 
                 L 238.596 319.557 L 238.679 317.669 L 238.913 317.665 L 239.014 316.213 L 239.264 316.211 
                 L 239.381 315.255 L 239.599 315.253 L 239.682 314.833 L 239.933 314.843 L 240.033 314.225 
                 L 240.267 314.222 L 240.351 313.224 L 240.585 313.225 L 240.702 312.267 L 240.919 312.267 
                 L 241.053 311.228 L 241.253 311.237 L 241.354 309.876 L 241.588 309.886 L 241.688 308.566 
                 L 241.939 308.566 L 242.056 307.246 L 242.273 307.246 L 242.357 305.784 L 242.59 305.792 
                 L 242.691 304.69 L 242.941 304.703 L 243.025 304.041 L 243.593 303.948 L 243.694 303.469 
                 L 243.961 303.482 L 244.061 301.96 L 244.262 301.96 L 244.362 300.176 L 244.613 300.183 
                 L 244.73 298.26 L 244.93 298.273 L 245.031 296.425 L 245.281 296.425 L 245.365 294.841 
                 L 245.616 294.841 L 245.716 293.196 L 245.95 293.196 L 246.05 291.929 L 246.268 291.917 
                 L 246.351 291.195 L 246.953 291.193 L 247.036 291.091 L 247.287 291.091 L 247.371 289.987 
                 L 247.621 289.987 L 247.705 288.72 L 247.939 288.72 L 248.039 286.589 L 248.273 286.589 
                 L 248.373 284.412 L 248.607 284.412 L 248.708 282.579 L 248.958 282.579 L 249.042 281.371 
                 L 249.276 281.364 L 249.376 280.617 L 249.627 280.617 L 249.711 280.434 L 250.63 280.371 
                 L 250.713 279.343 L 250.964 279.343 L 251.048 277.626 L 251.282 277.632 L 251.399 275.593 
                 L 251.633 275.593 L 251.716 273.446 L 251.95 273.44 L 252.05 271.922 L 252.284 271.922 
                 L 252.385 270.907 L 252.635 270.907 L 252.719 270.563 L 252.97 270.55 L 253.037 270.248 
                 L 253.287 270.248 L 253.404 268.91 L 253.622 268.904 L 253.739 267.523 L 253.956 267.523 
                 L 254.056 265.754 L 254.307 265.754 L 254.374 264.231 L 254.624 264.231 L 254.725 262.949 
                 L 254.975 262.949 L 255.059 261.441 L 255.31 261.441 L 255.393 260.461 L 255.627 260.466 
                 L 255.728 259.693 L 256.296 259.667 L 256.413 259.526 L 256.63 259.526 L 256.747 258.302 
                 L 256.964 258.302 L 257.048 257.033 L 257.299 257.033 L 257.399 255.683 L 257.633 255.688 
                 L 257.733 254.016 L 257.984 254.03 L 258.084 252.313 L 258.318 252.317 L 258.402 250.061 
                 L 258.652 250.061 L 258.719 248.21 L 258.97 248.21 L 259.07 246.893 L 259.304 246.893 
                 L 259.421 246.092 L 259.655 246.092 L 259.739 245.904 L 259.99 245.9 L 260.073 245.341 
                 L 260.307 245.341 L 260.391 244.233 L 260.641 244.219 L 260.725 243.078 L 260.976 243.092 
                 L 261.059 241.491 L 261.31 241.476 L 261.41 240.044 L 261.644 240.044 L 261.744 239.076 
                 L 261.978 239.076 L 262.062 238.908 L 262.981 238.88 L 263.065 238.569 L 263.316 238.569 
                 L 263.399 236.749 L 263.65 236.752 L 263.733 234.652 L 263.984 234.656 L 264.068 232.724 
                 L 264.335 232.74 L 264.419 230.72 L 264.653 230.72 L 264.753 229.136 L 264.987 229.136 
                 L 265.087 228.175 L 265.338 228.175 L 265.422 227.963 L 265.99 227.891 L 266.073 226.977 
                 L 266.324 226.979 L 266.408 225.928 L 266.658 225.928 L 266.742 224.712 L 267.009 224.71 
                 L 267.093 222.806 L 267.327 222.809 L 267.41 220.771 L 267.678 220.771 L 267.745 218.576 
                 L 267.995 218.595 L 268.096 216.776 L 268.33 216.774 L 268.413 215.365 L 268.664 215.386 
                 L 268.748 214.594 L 268.998 214.596 L 269.082 213.989 L 269.333 214.01 L 269.416 213.305 
                 L 269.667 213.309 L 269.75 212.818 L 270.001 212.818 L 270.085 212.586 L 270.335 212.588 
                 L 270.436 211.107 L 270.703 211.122 L 270.753 209.313 L 271.021 209.333 L 271.104 207.134 
                 L 271.355 207.137 L 271.422 205.425 L 271.672 205.408 L 271.756 204.424 L 272.007 204.404 
                 L 272.09 203.901 L 272.408 203.907 L 273.344 204.011 L 273.411 203.899 L 273.678 203.952 
                 L 273.762 202.454 L 274.012 202.495 L 274.096 200.49 L 274.363 200.467 L 274.414 198.797 
                 L 274.698 198.797 L 274.781 197.606 L 275.015 197.627 L 275.099 196.935 L 275.366 196.935 
                 L 275.416 195.656 L 275.684 195.655 L 275.767 194.202 L 276.018 194.222 L 276.102 192.86 
                 L 276.352 192.878 L 276.419 190.843 L 276.703 190.842 L 276.787 188.807 L 277.038 188.783 
                 L 277.088 186.704 L 277.355 186.726 L 277.439 185.211 L 277.689 185.214 L 277.773 184.23 
                 L 278.692 184.21 L 278.759 183.967 L 279.027 183.947 L 279.11 183.078 L 279.361 183.075 
                 L 279.444 182.074 L 279.712 182.075 L 279.762 180.561 L 280.029 180.561 L 280.096 179.085 
                 L 280.364 179.107 L 280.447 177.985 L 280.698 177.967 L 280.765 176.431 L 281.049 176.427 
                 L 281.099 175.206 L 281.366 175.206 L 281.45 174.2 L 281.701 174.224 L 281.784 173.616 
                 L 282.035 173.612 L 282.102 173.197 L 282.72 173.16 L 282.77 173.069 L 283.038 173.05 
                 L 283.121 171.752 L 283.372 171.713 L 283.439 169.609 L 283.723 169.605 L 283.79 167.57 
                 L 284.041 167.6 L 284.108 165.475 L 284.392 165.45 L 284.459 163.953 L 284.709 163.936 
                 L 284.776 162.979 L 285.043 162.987 L 285.11 162.457 L 285.378 162.457 L 285.445 162.055 
                 L 285.712 162.055 L 285.779 161.911 L 286.046 161.886 L 286.113 161.684 L 286.381 161.684 
                 L 286.447 159.931 L 286.715 159.98 L 286.782 157.626 L 287.066 157.6 L 287.116 155.808 
                 L 287.367 155.835 L 287.467 154.712 L 287.718 154.684 L 287.785 153.987 L 288.069 153.956 
                 L 288.119 153.78 L 288.403 153.838 L 288.453 152.739 L 288.737 152.739 L 288.787 151.133 
                 L 289.055 151.19 L 289.122 149.017 L 289.372 149.016 L 289.456 146.936 L 289.723 146.865 
                 L 289.807 145.499 L 290.058 145.468 L 290.124 144.161 L 290.409 144.168 L 290.475 143.255 
                 L 290.726 143.184 L 290.793 142.995 L 292.063 142.888 L 292.13 142.809 L 292.398 142.767 
                 L 292.464 141.22 L 292.732 141.259 L 292.799 139.196 L 293.049 139.18 L 293.133 137.025 
                 L 293.417 137.008 L 293.451 134.814 L 293.735 134.828 L 293.785 133.472 L 294.069 133.472 
                 L 294.136 132.903 L 294.737 132.857 L 295.072 132.745 L 295.155 131.825 L 295.389 131.923 
                 L 295.473 130.614 L 295.74 130.614 L 295.79 129.498 L 296.091 129.452 L 296.125 127.699 
                 L 296.409 127.717 L 296.459 125.561 L 296.726 125.576 L 296.81 123.118 L 297.094 123.098 
                 L 297.128 120.961 L 297.395 120.961 L 297.462 119.662 L 297.746 119.706 L 297.813 119.057 
                 L 298.08 119.057 L 298.13 118.954 L 298.749 118.883 L 299.401 118.767 L 299.467 117.43 
                 L 299.752 117.416 L 299.802 115.494 L 300.086 115.542 L 300.169 114.181 L 300.42 114.189 
                 L 300.47 113.591 L 300.754 113.591 L 300.821 113.487 L 301.072 113.458 L 301.139 112.432 
                 L 301.423 112.432 L 301.473 111.27 L 301.757 111.283 L 301.807 109.361 L 302.092 109.361 
                 L 302.142 107.497 L 302.409 107.533 L 302.493 106.043 L 302.777 106.053 L 302.81 104.347 
                 L 303.111 104.254 L 303.145 102.825 L 303.429 102.88 L 303.479 101.74 L 303.746 101.74 
                 L 303.813 101.285 L 304.097 101.285 L 304.164 101.139 L 304.465 101.149 L 304.482 99.9291 
                 L 304.766 99.9195 L 304.816 98.7457 L 305.083 98.7146 L 305.15 97.669 L 305.434 97.7006 
                 L 305.484 96.2879 L 305.752 96.2879 L 305.835 94.815 L 306.103 94.815 L 306.153 93.2135 
                 L 306.454 93.2135 L 306.487 91.7571 L 306.771 91.7571 L 306.822 90.8763 L 307.106 90.8763 
                 L 307.156 90.6334 L 307.44 90.6334 L 307.507 90.4641 L 308.109 90.4362 L 308.159 90.2538 
                 L 308.794 90.2377 L 308.827 88.8185 L 309.111 88.9197 L 309.178 87.1435 L 309.429 87.1435 
                 L 309.496 84.7423 L 309.78 84.4049 L 309.83 82.5284 L 310.114 82.7301 L 310.164 81.3637 
                 L 310.448 81.3637 L 310.482 80.1631 L 310.799 80.1631 L 310.833 80.0119 L 311.1 80.0119 
                 L 311.167 80.1921 L 312.12 80.234 L 312.153 79.7305 L 312.504 80.0925 L 312.822 80.1309 
                 L 313.173 79.6743 L 313.791 79.7068 L 313.825 80.1634 L 314.109 80.1914 L 314.176 80.9395 
                 L 314.46 81.2313 L 314.527 82.4092 L 314.794 81.9248 L 314.827 82.5065 L 315.112 82.7087 
                 L 315.178 82.9978 L 315.496 82.8042 L 315.847 82.9906 L 316.449 82.9856 L 316.516 84.0577 
                 L 316.8 84.0965 L 316.833 86.1463 L 317.117 86.3187 L 317.201 89.1736 L 317.452 89.0505 
                 L 317.518 91.2834 L 317.803 91.2834 L 317.836 92.4152 L 318.137 92.3803 L 318.17 92.7636 
                 L 318.504 92.7982 L 318.805 92.6985 L 318.839 92.8576 L 319.19 92.9633 L 319.457 92.9633 
                 L 319.524 93.0999 L 319.791 93.2083 L 319.842 93.7879 L 320.126 93.7879 L 320.193 95.288 
                 L 320.46 95.288 L 320.51 96.4527 L 320.811 96.4527 L 320.844 98.0088 L 321.129 97.9529 
                 L 321.195 99.4135 L 321.48 99.3912 L 321.53 100.402 L 321.797 100.353 L 321.847 100.638 
                 L 322.482 100.738 L 322.533 101.698 L 322.817 101.842 L 322.867 102.778 L 323.134 102.723 
                 L 323.184 104.253 L 323.468 104.253 L 323.535 105.888 L 323.803 105.888 L 323.853 107.383 
                 L 324.154 107.383 L 324.187 108.417 L 324.505 108.417 L 324.521 108.647 L 325.474 108.612 
                 L 325.541 108.696 L 325.825 108.73 L 325.859 109.844 L 326.143 109.837 L 326.193 111.892 
                 L 326.494 111.892 L 326.527 114.651 L 326.828 114.651 L 326.861 117.394 L 327.146 117.394 
                 L 327.179 119.149 L 327.48 119.149 L 327.547 120.236 L 327.831 120.236 L 327.847 120.722 
                 L 328.817 120.788 L 329.168 120.834 L 329.218 121.518 L 329.519 121.539 L 329.552 123.176 
                 L 329.836 123.15 L 329.887 124.698 L 330.171 124.698 L 330.187 126.378 L 330.488 126.378 
                 L 330.555 127.861 L 330.839 127.861 L 330.856 128.854 L 331.174 128.876 L 331.224 129.625 
                 L 331.508 129.609 L 331.541 129.782 L 331.842 129.782 L 331.876 130.352 L 332.176 130.389 
                 L 332.21 131.589 L 332.494 131.589 L 332.527 133.512 L 332.828 133.477 L 332.862 135.487 
                 L 333.179 135.521 L 333.213 136.799 L 333.513 136.799 L 333.547 138.221 L 333.848 138.228 
                 L 333.881 139.467 L 334.165 139.467 L 334.199 140.292 L 334.516 140.268 L 334.566 140.836 
                 L 335.837 141.017 L 335.87 141.126 L 336.171 141.091 L 336.204 142.605 L 336.505 142.605 
                 L 336.539 144.612 L 336.856 144.612 L 336.89 146.365 L 337.174 146.365 L 337.207 147.716 
                 L 337.508 147.716 L 337.541 148.775 L 337.842 148.775 L 337.876 150.194 L 338.21 150.194 
                 L 338.243 151.575 L 338.528 151.575 L 338.561 153.347 L 338.845 153.374 L 338.879 155.274 
                 L 339.179 155.247 L 339.213 156.904 L 339.514 156.904 L 339.547 158.315 L 339.865 158.286 
                 L 339.865 159.266 L 340.182 159.282 L 340.216 159.988 L 340.517 160.017 L 340.55 160.255 
                 L 341.519 160.32 L 341.854 160.367 L 341.887 161.418 L 342.205 161.418 L 342.221 163.781 
                 L 342.522 163.781 L 342.589 166.231 L 342.856 166.231 L 342.907 168.561 L 343.191 168.555 
                 L 343.224 170.562 L 343.525 170.535 L 343.558 171.89 L 343.876 171.895 L 343.909 172.536 
                 L 344.545 172.615 L 345.531 172.683 L 345.564 173.736 L 345.865 173.758 L 345.898 175.696 
                 L 346.216 175.652 L 346.233 178.434 L 346.55 178.457 L 346.584 180.995 L 346.868 180.995 
                 L 346.918 183.008 L 347.219 183.008 L 347.235 184.349 L 347.553 184.328 L 347.586 185.055 
                 L 347.871 185.052 L 347.904 185.929 L 348.205 185.929 L 348.238 187.003 L 348.539 187.024 
                 L 348.573 187.812 L 348.873 187.812 L 348.907 188.711 L 349.208 188.734 L 349.241 189.461 
                 L 349.542 189.437 L 349.575 189.954 L 350.562 190.039 L 350.595 190.152 L 351.213 190.191 
                 L 351.247 191.453 L 351.548 191.454 L 351.581 193.457 L 351.882 193.455 L 351.915 195.499 
                 L 352.216 195.522 L 352.25 197.915 L 352.55 197.915 L 352.584 200.239 L 352.885 200.239 
                 L 352.901 201.969 L 353.236 201.969 L 353.252 203.104 L 353.553 203.104 L 353.587 203.637 
                 L 353.888 203.637 L 353.921 204.583 L 354.222 204.583 L 354.255 205.507 L 354.556 205.486 
                 L 354.573 206.251 L 354.907 206.251 L 354.941 207.237 L 355.241 207.238 L 355.241 208.328 
                 L 355.576 208.328 L 355.592 209.855 L 355.893 209.855 L 355.927 211.906 L 356.227 211.906 
                 L 356.278 213.764 L 356.578 213.764 L 356.612 215.1 L 356.896 215.1 L 356.929 215.662 
                 L 357.23 215.645 L 357.264 216.807 L 357.565 216.824 L 357.598 217.602 L 357.899 217.583 
                 L 357.932 218.216 L 358.25 218.216 L 358.267 219.31 L 358.584 219.29 L 358.618 220.663 
                 L 358.902 220.682 L 358.952 222.528 L 359.236 222.528 L 359.286 224.57 L 359.587 224.57 
                 L 359.604 226.06 L 359.921 226.063 L 359.938 226.834 L 360.239 226.834 L 360.272 227.478 
                 L 361.576 227.629 L 361.593 228.813 L 361.91 228.813 L 361.944 230.858 L 362.261 230.856 
                 L 362.295 232.878 L 362.595 232.878 L 362.595 234.297 L 362.93 234.3 L 362.946 235.211 
                 L 363.264 235.204 L 363.281 236.492 L 363.582 236.476 L 363.598 237.618 L 363.933 237.637 
                 L 363.949 238.297 L 364.25 238.297 L 364.284 238.943 L 364.584 238.943 L 364.635 239.898 
                 L 364.935 239.902 L 364.969 241.576 L 365.253 241.576 L 365.286 243.597 L 365.604 243.597 
                 L 365.637 245.307 L 365.921 245.307 L 365.955 246.624 L 366.256 246.638 L 366.289 247.386 
                 L 366.59 247.386 L 366.64 248.576 L 366.941 248.562 L 366.958 249.98 L 367.259 249.98 
                 L 367.292 251.13 L 367.593 251.13 L 367.626 252.542 L 367.927 252.542 L 367.944 254.102 
                 L 368.261 254.123 L 368.312 255.206 L 368.596 255.206 L 368.629 256.534 L 368.93 256.534 
                 L 368.963 257.74 L 369.264 257.74 L 369.298 258.416 L 369.615 258.416 L 369.615 258.866 
                 L 370.986 258.948 L 371.019 260.172 L 371.27 260.193 L 371.303 262.393 L 371.621 262.393 
                 L 371.638 264.815 L 371.938 264.815 L 371.972 267.437 L 372.273 267.437 L 372.323 269.592 
                 L 372.607 269.586 L 372.64 270.66 L 372.941 270.666 L 372.975 270.789 L 374.278 270.828 
                 L 374.312 271.255 L 374.596 271.255 L 374.629 272.675 L 374.964 272.675 L 374.997 274.273 
                 L 375.298 274.239 L 375.298 275.859 L 375.615 275.841 L 375.649 277.52 L 375.966 277.514 
                 L 376 278.786 L 376.301 278.771 L 376.317 279.985 L 376.618 279.978 L 376.635 281.227 
                 L 376.953 281.209 L 376.986 282.722 L 377.27 282.701 L 377.304 284.416 L 377.638 285.766 
                 L 377.955 285.766 L 377.972 287.155 L 378.29 287.155 L 378.306 288.362 L 378.624 288.35 
                 L 378.657 288.977 L 379.309 289.097 L 380.68 289.335 L 380.981 289.396 L 381.281 291.064 
                 L 381.616 291.031 L 381.666 294.185 L 381.95 294.178 L 381.983 297.509 L 382.334 300.137 
                 L 382.635 300.137 L 382.669 301.563 L 383.287 303.587 L 383.621 303.608 L 383.655 304.572 
                 L 384.34 308.957 L 384.641 308.957 L 384.691 311.939 L 385.025 314.837 L 385.309 316.986 
                 L 385.66 317.991 L 386.68 318.092 L 387.014 318.084 L 387.315 319.18 L 387.649 320.897 
                 L 387.984 320.852 L 388 322.289 L 388.669 323.452 L 389.003 323.812 L 389.688 324.95 
                 L 390.023 325.23 L 391.026 325.231 L 394.017 325.082 L 394.335 324.358 L 394.368 324.486 
                 L 394.652 323.43 L 394.987 321.995 L 395.672 318.362 L 396.023 316.736 L 396.341 315.598 
                 L 396.692 314.968 L 397.026 314.539 L 397.694 314.407 L 398.029 314.367 L 398.346 313.207 
                 L 399.65 305.542 L 400.034 304.338 L 400.385 304.131 L 400.703 304.111 L 401.004 303.048 
                 L 401.338 301.585 L 402.023 297.505 L 402.341 295.816 L 402.993 292.356 L 403.36 291.34 
                 L 404.046 291.257 L 404.664 289.247 L 405.048 288.197 L 405.684 284.617 L 406.051 282.889 
                 L 406.386 281.858 L 406.703 281.407 L 407.004 280.462 L 407.372 279.511 L 408.675 273.812 
                 L 409.01 272.575 L 409.678 271.008 L 410.046 270.87 L 410.397 270.561 L 411.032 268.146 
                 L 412.052 263.191 L 412.386 261.399 L 412.687 260.299 L 413.071 259.825 L 413.389 259.7 
                 L 414.692 254.495 L 415.695 250.16 L 416.364 247.47 L 416.748 246.781 L 417.082 246.395 
                 L 418.035 242.397 L 418.353 240.602 L 418.737 239.377 L 419.055 238.793 L 419.389 238.811 
                 L 419.723 238.69 L 420.358 236.847 L 420.743 235.534 L 421.044 233.919 L 421.378 232.621 
                 L 421.712 231.388 L 422.381 229.013 L 422.397 229.12 L 422.715 228.787 L 423.049 228.811 
                 L 423.066 228.934 L 423.367 228.159 L 423.417 228.265 L 424.035 225.307 L 424.704 221.111 
                 L 425.055 219.413 L 425.372 217.836 L 425.707 216.532 L 426.074 215.585 L 426.409 215.384 
                 L 426.743 215.274 L 427.06 214.439 L 427.729 212.261 L 428.047 210.787 L 428.381 208.9 
                 L 429.066 205.635 L 429.4 205.13 L 429.768 204.687 L 430.052 204.498 L 430.771 204.575 
                 L 431.105 204.081 L 431.724 200.33 L 432.058 198.616 L 432.392 197.52 L 432.726 196.444 
                 L 433.044 195.132 L 433.412 193.369 L 433.713 191.154 L 434.047 189.368 L 434.732 186.091 
                 L 435.117 185.182 L 435.434 184.962 L 436.454 184.78 L 436.788 184.863 L 437.072 184.059 
                 L 437.423 182.138 L 437.741 179.667 L 438.392 175.206 L 438.777 174.064 L 439.078 173.594 
                 L 439.462 173.605 L 439.73 172.78 L 440.114 171.895 L 440.415 170.51 L 440.783 169.229 
                 L 441.418 165.844 L 441.802 164.583 L 442.069 163.713 L 442.755 163.556 L 443.089 162.993 
                 L 443.457 161.905 L 443.741 160.154 L 444.109 157.945 L 444.409 156.25 L 444.811 155.235 
                 L 445.095 154.551 L 445.479 154.012 L 445.747 152.646 L 446.081 151.287 L 446.766 147.874 
                 L 447.1 146.181 L 447.468 144.526 L 447.802 143.439 L 448.137 143.283 L 448.471 143.273 
                 L 448.805 142.64 L 449.106 141.635 L 449.424 140.703 L 449.758 139.388 L 450.443 136.538 
                 L 450.777 135.39 L 451.162 134.308 L 451.463 133.67 L 451.814 133.339 L 452.148 133.301 
                 L 452.499 133.201 L 452.833 132.532 L 453.101 130.828 L 453.752 126.098 L 454.103 123.676 
                 L 454.471 121.246 L 454.822 119.765 L 455.173 119.241 L 455.474 119.214 L 456.159 119.141 
                 L 456.46 118.329 L 456.493 118.517 L 456.978 116.7 L 457.179 114.946 L 457.496 113.837 
                 L 457.78 113.193 L 458.165 113.16 L 458.85 113.022 L 459.168 112.579 L 459.469 110.841 
                 L 460.12 106.556 L 460.17 106.646 L 460.772 102.485 L 461.106 101.39 L 461.491 100.888 
                 L 461.859 100.753 L 462.51 98.3123 L 462.795 96.6287 L 463.781 92.2292 L 464.165 91.4301 
                 L 464.499 90.8755 L 464.85 90.9602 L 465.185 90.792 L 465.803 90.6194 L 466.187 89.4331 
                 L 466.839 85.8598 L 467.474 82.0878 L 467.525 81.8529 L 467.876 81.2953 L 468.126 81.1561 
                 L 468.193 80.5386 L 468.477 80.7427 L 468.527 80.6125 L 468.795 81.0547 L 468.845 80.321 
                 L 469.129 81.1081 L 469.196 79.9902 L 469.48 80.3896 L 469.53 79.9335 L 469.798 80.8886 
                 L 469.864 79.8381 L 470.132 80.43 L 470.182 79.9712 L 470.466 80.872 L 470.533 80.2935 
                 L 470.8 81.0169 L 470.867 80.4213 L 471.135 80.4044 L 471.202 79.5655 L 471.452 81.367 
                 L 471.519 80.1666 L 471.787 81.8135 L 471.87 81.4916 L 472.154 82.464 L 472.188 81.7843 
                 L 472.472 82.468 L 472.539 82.1808 L 472.789 82.8711 L 472.873 82.1324 L 473.124 83.1275 
                 L 473.207 82.4527 L 473.475 82.9725 L 473.558 81.581 L 473.792 83.083 L 473.893 82.2901 
                 L 474.127 84.4239 L 474.21 83.4196 L 474.477 86.7108 L 474.544 86.3067 L 474.828 89.4035 
                 L 474.862 88.9047 L 475.129 91.319 L 475.196 90.692 L 475.464 91.8924 L 475.547 91.4674 
                 L 475.815 91.7431 L 475.865 91.379 L 476.149 91.8414 L 476.216 91.3171 L 476.5 92.4739 
                 L 476.533 92.2864 L 476.817 93.1409 L 476.884 92.8542 L 477.168 93.176 L 477.202 92.9271 
                 L 477.486 93.6594 L 477.553 93.2966 L 477.82 94.8443 L 477.887 94.5588 L 478.155 96.4467 
                 L 478.221 96.2042 L 478.472 98.1495 L 478.556 98.0589 L 478.806 99.239 L 478.89 98.9821 
                 L 479.141 99.6633 L 479.224 99.5502 L 479.492 99.7208 L 479.542 99.491 L 479.826 99.6312 
                 L 479.876 99.4544 L 480.16 99.5802 L 480.21 99.3584 L 480.494 100.348 L 480.561 100.075 
                 L 480.812 102.09 L 480.896 102.024 L 481.163 103.794 L 481.497 105.29 L 481.547 105.148 
                 L 481.832 106.284 L 482.149 107.386 L 482.216 107.291 L 482.5 108.34 L 482.834 108.953 
                 L 483.169 110.052 L 483.503 111.701 L 483.57 111.506 L 483.804 113.476 L 483.904 113.26 
                 L 484.171 115.676 L 484.238 115.544 L 484.506 117.356 L 484.823 118.644 L 484.907 118.49 
                 L 485.158 118.862 L 485.224 118.736 L 485.559 118.805 L 485.893 118.762 L 486.177 118.933 
                 L 486.244 118.853 L 486.478 119.414 L 486.578 119.357 L 486.829 121.209 L 486.913 121.07 
                 L 487.163 122.847 L 487.481 124.38 L 487.564 124.303 L 487.849 126.028 L 487.899 125.93 
                 L 488.183 127.15 L 488.484 127.817 L 488.567 127.735 L 488.901 127.854 L 489.236 127.871 
                 L 489.486 128.206 L 489.57 128.129 L 489.854 129.801 L 490.155 132.164 L 490.523 134.398 
                 L 490.857 136.069 L 491.175 137.616 L 491.492 138.723 L 491.91 139.007 L 492.261 139.111 
                 L 492.512 139.442 L 492.829 140.533 L 493.247 141.909 L 493.498 143.763 L 493.598 143.714 
                 L 493.849 145.258 L 493.949 145.225 L 494.166 146.38 L 494.852 147.946 L 494.952 147.887 
                 L 495.503 149.411 L 495.838 150.727 L 496.172 152.522 L 496.506 154.379 L 496.607 154.321 
                 L 496.841 156.164 L 496.941 156.107 L 497.258 157.741 L 497.509 158.58 L 497.609 158.558 
                 L 497.86 159.272 L 498.178 159.414 L 498.278 159.339 L 498.529 159.455 L 498.612 159.377 
                 L 498.93 159.395 L 499.197 159.768 L 499.281 159.626 L 499.849 164.092 L 500.183 166.579 
                 L 500.284 166.529 L 500.534 168.631 L 500.852 170.229 L 500.935 170.122 L 501.286 170.872 
                 L 501.604 171.064 L 502.189 172.904 L 502.289 172.874 L 502.874 174.375 L 503.292 175.633 
                 L 503.526 177.573 L 504.211 181.625 L 504.546 183.063 L 505.281 184.67 L 505.532 185.953 
                 L 506.635 188.621 L 506.969 189.095 L 507.638 189.316 L 507.955 189.59 L 508.306 190.738 
                 L 508.523 191.678 L 508.64 191.652 L 508.858 192.869 L 508.975 192.839 L 509.209 194.398 
                 L 509.543 196.198 L 509.877 198.373 L 509.961 198.275 L 510.212 200.302 L 510.312 200.294 
                 L 510.646 201.747 L 510.88 202.542 L 510.98 202.513 L 511.198 203.401 L 511.298 203.376 
                 L 511.532 204.325 L 511.632 204.288 L 511.967 205.312 L 512.2 205.855 L 512.317 205.835 
                 L 512.551 207.199 L 512.886 208.805 L 512.986 208.763 L 513.22 210.746 L 513.304 210.649 
                 L 513.621 212.771 L 513.872 214.519 L 513.989 214.513 L 514.223 215.612 L 514.306 215.533 
                 L 514.557 216.182 L 514.891 217.286 L 514.992 217.27 L 515.226 217.735 L 515.326 217.701 
                 L 515.644 217.756 L 516.312 217.74 L 516.646 218.187 L 516.897 220.254 L 517.231 222.731 
                 L 517.566 224.985 L 517.666 224.95 L 517.983 226.316 L 518.217 227.4 L 518.318 227.382 
                 L 518.568 228.798 L 518.669 228.783 L 518.903 230.292 L 519.22 232.195 L 519.337 232.153 
                 L 519.655 233.716 L 519.989 234.759 L 520.557 235.407 L 520.658 235.405 L 520.908 236.547 
                 L 521.66 238.353 L 521.894 239.474 L 522.011 239.451 L 522.245 240.967 L 522.58 243.105 
                 L 522.68 243.084 L 522.914 245.073 L 523.014 245.059 L 523.248 246.621 L 523.566 247.566 
                 L 523.666 247.55 L 523.9 248.483 L 524 248.454 L 524.552 250.797 L 524.669 250.781 L 524.903 252.138 
                 L 525.02 252.133 L 525.237 253.866 L 525.354 253.849 L 525.572 255.236 L 525.689 255.226 
                 L 525.889 256.385 L 526.006 256.376 L 526.223 257.653 L 526.34 257.65 L 526.574 258.515 
                 L 526.675 258.493 L 527.26 259.365 L 527.36 259.371 L 527.661 259.464 L 528.012 259.484 
                 L 528.246 259.772 L 528.363 259.75 L 528.58 261.498 L 528.697 261.498 L 528.914 263.773 
                 L 529.031 263.747 L 529.232 266.282 L 529.349 266.285 L 529.683 268.785 L 530.034 270.494 
                 L 530.251 271.269 L 530.352 271.243 L 531.338 271.384 L 532.04 271.515 L 532.575 273.885 
                 L 532.758 273.867 L 532.909 275.315 L 533.043 275.317 L 533.31 276.865 L 533.577 278.811 
                 L 533.711 278.78 L 534.263 282.663 L 534.363 282.633 L 534.58 284.4 L 534.697 284.387 
                 L 534.931 286.015 L 535.032 286.006 L 535.266 287.338 L 535.366 287.305 L 535.683 288.631 
                 L 535.917 289.461 L 536.034 289.461 L 536.252 289.913 L 536.369 289.883 L 537.371 290.02 
                 L 537.706 290.028 L 538.04 290.18 L 538.358 290.216 L 538.692 290.527 L 538.926 292.836 
                 L 539.043 292.8 L 539.26 296.172 L 539.377 296.145 L 539.578 299.263 L 539.711 299.23 
                 L 539.945 301.389 L 540.263 302.762 L 540.38 302.736 L 540.614 303.986 L 540.714 303.969 
                 L 540.931 304.915 L 541.065 304.915 L 541.6 308.322 L 541.717 308.288 L 541.934 310.925 
                 L 542.051 310.907 L 542.252 313.299 L 542.386 313.368 L 542.603 315.157 L 542.72 315.22 
                 L 542.937 316.156 L 543.622 316.291 L 543.94 316.294 L 544.391 316.287 L 544.742 316.691 
                 L 545.043 317.922 L 545.394 318.781 L 545.728 319.323 L 545.946 319.462 L 546.063 319.41 
                 L 546.397 319.712 L 546.714 320.576 L 547.065 321.304 L 547.4 321.468 L 547.935 321.572 
                 L 548.419 321.584 L 613.085 119.609 "
          stroke="rgb(55,126,184)" fill="none" stroke-width="0.5"/>
      </g>
    </g>
    <!-- Reference angle vs millis -->
    <g id="Reference_angle_vs_millis">
      <defs>
        <clipPath id="clipPath3">
          <rect x="74.5" y="18.5" width="473" height="343"/>
        </clipPath>
      </defs>
      <g clip-path="url(#clipPath3)">
        <path d="M -50.1681 227.158 L 73.8314 335.775 L 74.5 335.775 L 74.8176 332.917 L 75.5028 332.917 
                 L 75.8204 330.058 L 76.1714 330.058 L 76.3887 327.2 L 77.1742 327.2 L 77.4918 324.342 
                 L 78.06 324.342 L 78.177 321.483 L 78.8289 321.483 L 79.0294 318.625 L 79.7147 318.625 
                 L 79.8484 315.767 L 80.5002 315.767 L 80.7342 312.908 L 81.3861 312.908 L 81.5198 310.05 
                 L 82.1883 310.05 L 82.3889 307.192 L 83.1912 307.192 L 83.3917 304.333 L 83.843 304.333 
                 L 84.0603 301.475 L 84.8625 301.475 L 85.0631 298.617 L 85.7317 298.617 L 85.8654 295.758 
                 L 86.5339 295.758 L 86.7345 292.9 L 87.403 292.9 L 87.52 290.042 L 88.2053 290.042 L 88.4059 287.183 
                 L 89.0744 287.183 L 89.2081 284.325 L 89.86 284.325 L 90.0772 281.467 L 90.8628 281.467 
                 L 91.1804 278.608 L 91.5481 278.608 L 91.7486 275.75 L 92.5342 275.75 L 92.7514 272.892 
                 L 93.42 272.892 L 93.537 270.033 L 94.2223 270.033 L 94.4228 267.175 L 95.0914 267.175 
                 L 95.2084 264.317 L 95.8602 264.317 L 96.0942 261.458 L 96.746 261.458 L 96.863 258.6 
                 L 97.5483 258.6 L 97.7656 255.742 L 98.5678 255.742 L 98.7684 252.883 L 99.437 252.883 
                 L 99.5707 250.025 L 100.223 250.025 L 100.44 247.167 L 101.092 247.167 L 101.242 244.308 
                 L 101.894 244.308 L 102.111 241.45 L 102.78 241.45 L 102.897 238.592 L 103.565 238.592 
                 L 103.766 235.733 L 104.568 235.733 L 104.769 232.875 L 105.437 232.875 L 105.571 230.017 
                 L 106.223 230.017 L 106.44 227.158 L 107.109 227.158 L 107.242 224.3 L 107.928 224.3 
                 L 108.111 221.442 L 108.78 221.442 L 108.914 218.583 L 109.582 218.583 L 109.783 215.725 
                 L 110.468 215.725 L 110.602 212.867 L 111.254 212.867 L 111.454 210.008 L 112.256 210.008 
                 L 112.457 207.15 L 113.126 207.15 L 113.259 204.292 L 113.928 204.292 L 114.128 201.433 
                 L 114.797 201.433 L 114.931 198.575 L 115.599 198.575 L 115.783 195.717 L 116.468 195.717 
                 L 116.619 192.858 L 117.271 192.858 L 117.454 190 L 118.307 190 L 118.457 187.142 L 119.143 187.142 
                 L 119.26 184.283 L 119.945 184.283 L 120.129 181.425 L 120.797 181.425 L 120.948 178.567 
                 L 121.616 178.567 L 121.8 175.708 L 122.452 175.708 L 122.636 172.85 L 123.288 172.85 
                 L 123.471 169.992 L 124.14 169.992 L 124.29 167.133 L 124.976 167.133 L 125.159 164.275 
                 L 125.962 164.275 L 126.146 161.417 L 126.831 161.417 L 126.965 158.558 L 127.616 158.558 
                 L 127.8 155.7 L 128.469 155.7 L 128.636 152.842 L 129.304 152.842 L 129.488 149.983 
                 L 130.14 149.983 L 130.307 147.125 L 130.993 147.125 L 131.16 144.267 L 131.812 144.267 
                 L 131.979 141.408 L 132.647 141.408 L 132.814 138.55 L 133.633 138.55 L 133.817 135.692 
                 L 134.486 135.692 L 134.653 132.833 L 135.321 132.833 L 135.489 129.975 L 136.157 129.975 
                 L 136.324 127.117 L 137.01 127.117 L 137.16 124.258 L 137.845 124.258 L 137.996 121.4 
                 L 138.664 121.4 L 138.831 118.542 L 139.517 118.542 L 139.667 115.683 L 140.336 115.683 
                 L 140.486 112.825 L 141.338 112.825 L 141.506 109.967 L 142.174 109.967 L 142.341 107.108 
                 L 143.01 107.108 L 143.16 104.25 L 143.845 104.25 L 143.996 101.392 L 144.664 101.392 
                 L 144.848 98.5333 L 145.517 98.5333 L 145.667 95.675 L 146.353 95.675 L 146.52 92.8167 
                 L 147.188 92.8167 L 147.355 89.9583 L 148.024 89.9583 L 148.191 87.1 L 149.027 87.1 
                 L 149.194 84.2417 L 149.862 84.2417 L 150.013 81.3833 L 150.698 81.3833 L 150.849 78.525 
                 L 151.517 78.525 L 151.718 75.6667 L 152.353 75.6667 L 152.537 72.8083 L 153.205 72.8083 
                 L 153.356 75.6667 L 154.024 75.6667 L 154.191 78.525 L 154.877 78.525 L 155.027 81.3833 
                 L 155.712 81.3833 L 155.879 84.2417 L 156.715 84.2417 L 156.866 87.1 L 157.534 87.1 
                 L 157.701 89.9583 L 158.37 89.9583 L 158.537 92.8167 L 159.205 92.8167 L 159.54 95.675 
                 L 160.058 95.675 L 160.192 98.5333 L 160.877 98.5333 L 161.044 101.392 L 161.729 101.392 
                 L 161.88 104.25 L 162.548 104.25 L 162.732 107.108 L 163.401 107.108 L 163.551 109.967 
                 L 164.37 109.967 L 164.554 112.825 L 165.222 112.825 L 165.39 115.683 L 166.058 115.683 
                 L 166.225 118.542 L 166.894 118.542 L 167.061 121.4 L 167.729 121.4 L 167.88 124.258 
                 L 168.548 124.258 L 168.732 127.117 L 169.401 127.117 L 169.551 129.975 L 170.237 129.975 
                 L 170.404 132.833 L 171.239 132.833 L 171.423 135.692 L 172.075 135.692 L 172.225 138.55 
                 L 172.894 138.55 L 173.078 141.408 L 173.763 141.408 L 173.897 144.267 L 174.565 144.267 
                 L 174.749 147.125 L 175.435 147.125 L 175.568 149.983 L 176.237 149.983 L 176.437 152.842 
                 L 177.089 152.842 L 177.256 155.7 L 177.925 155.7 L 178.075 158.558 L 178.911 158.558 
                 L 179.095 161.417 L 179.763 161.417 L 179.931 164.275 L 180.566 164.275 L 180.766 167.133 
                 L 181.451 167.133 L 181.585 169.992 L 182.254 169.992 L 182.438 172.85 L 183.106 172.85 
                 L 183.24 175.708 L 183.925 175.708 L 184.126 178.567 L 184.794 178.567 L 184.928 181.425 
                 L 185.597 181.425 L 185.797 184.283 L 186.583 184.283 L 186.783 187.142 L 187.452 187.142 
                 L 187.585 190 L 188.254 190 L 188.455 192.858 L 189.106 192.858 L 189.257 195.717 L 189.925 195.717 
                 L 190.143 198.575 L 190.778 198.575 L 190.928 201.433 L 191.597 201.433 L 191.781 204.292 
                 L 192.449 204.292 L 192.583 207.15 L 193.268 207.15 L 193.469 210.008 L 194.254 210.008 
                 L 194.488 212.867 L 195.123 212.867 L 195.274 215.725 L 195.942 215.725 L 196.143 218.583 
                 L 196.828 218.583 L 196.945 221.442 L 197.597 221.442 L 197.798 224.3 L 198.516 224.3 
                 L 198.617 227.158 L 199.285 227.158 L 199.486 230.017 L 200.154 230.017 L 200.288 232.875 
                 L 200.973 232.875 L 201.174 235.733 L 201.959 235.733 L 202.16 238.592 L 202.828 238.592 
                 L 202.962 241.45 L 203.614 241.45 L 203.831 244.308 L 204.517 244.308 L 204.617 247.167 
                 L 205.302 247.167 L 205.503 250.025 L 206.188 250.025 L 206.305 252.883 L 206.973 252.883 
                 L 207.191 255.742 L 207.96 255.742 L 208.177 258.6 L 208.645 258.6 L 208.845 261.458 
                 L 209.648 261.458 L 209.831 264.317 L 210.5 264.317 L 210.634 267.175 L 211.336 267.175 
                 L 211.52 270.033 L 212.188 270.033 L 212.322 272.892 L 212.99 272.892 L 213.191 275.75 
                 L 213.86 275.75 L 213.977 278.608 L 214.645 278.608 L 214.862 281.467 L 215.665 281.467 
                 L 215.865 284.325 L 216.534 284.325 L 216.651 287.183 L 217.319 287.183 L 217.537 290.042 
                 L 218.205 290.042 L 218.322 292.9 L 218.991 292.9 L 219.191 295.758 L 219.876 295.758 
                 L 219.993 298.617 L 220.662 298.617 L 220.879 301.475 L 221.648 301.475 L 221.882 304.333 
                 L 222.317 304.333 L 222.534 307.192 L 223.32 307.192 L 223.654 310.05 L 224.239 310.05 
                 L 224.322 312.908 L 224.991 312.908 L 225.225 315.767 L 225.893 315.767 L 226.01 318.625 
                 L 226.662 318.625 L 226.997 321.483 L 227.565 321.483 L 227.682 324.342 L 228.334 324.342 
                 L 228.668 327.2 L 229.353 327.2 L 229.671 330.058 L 230.022 330.058 L 230.323 332.917 
                 L 231.008 332.917 L 231.342 335.775 L 231.894 335.775 L 232.011 332.917 L 232.696 332.917 
                 L 232.897 330.058 L 233.565 330.058 L 233.682 327.2 L 234.351 327.2 L 234.568 324.342 
                 L 235.236 324.342 L 235.353 321.483 L 236.022 321.483 L 236.239 318.625 L 237.025 318.625 
                 L 237.259 315.767 L 237.693 315.767 L 238.011 312.908 L 238.679 312.908 L 239.014 310.05 
                 L 239.599 310.05 L 239.682 307.192 L 240.351 307.192 L 240.585 304.333 L 241.253 304.333 
                 L 241.354 301.475 L 242.056 301.475 L 242.357 298.617 L 242.941 298.617 L 243.025 295.758 
                 L 243.694 295.758 L 244.061 292.9 L 244.73 292.9 L 244.93 290.042 L 245.365 290.042 
                 L 245.716 287.183 L 246.351 287.183 L 246.702 284.325 L 247.287 284.325 L 247.371 281.467 
                 L 248.039 281.467 L 248.373 278.608 L 248.958 278.608 L 249.042 275.75 L 249.711 275.75 
                 L 250.045 272.892 L 250.63 272.892 L 250.713 270.033 L 251.399 270.033 L 251.716 267.175 
                 L 252.385 267.175 L 252.719 264.317 L 253.037 264.317 L 253.287 261.458 L 254.056 261.458 
                 L 254.374 258.6 L 254.975 258.6 L 255.059 255.742 L 255.728 255.742 L 256.045 252.883 
                 L 256.63 252.883 L 256.747 250.025 L 257.399 250.025 L 257.733 247.167 L 258.318 247.167 
                 L 258.402 244.308 L 259.07 244.308 L 259.304 241.45 L 260.073 241.45 L 260.391 238.592 
                 L 260.725 238.592 L 261.059 235.733 L 261.744 235.733 L 262.062 232.875 L 262.664 232.875 
                 L 262.731 230.017 L 263.399 230.017 L 263.733 227.158 L 264.335 227.158 L 264.419 224.3 
                 L 265.087 224.3 L 265.422 221.442 L 266.073 221.442 L 266.408 218.583 L 266.742 218.583 
                 L 267.093 215.725 L 267.745 215.725 L 268.096 212.867 L 268.413 212.867 L 268.748 210.008 
                 L 269.416 210.008 L 269.75 207.15 L 270.335 207.15 L 270.436 204.292 L 271.104 204.292 
                 L 271.422 201.433 L 272.007 201.433 L 272.09 198.575 L 272.759 198.575 L 273.01 195.717 
                 L 273.762 195.717 L 274.096 192.858 L 274.414 192.858 L 274.781 190 L 275.416 190 L 275.767 187.142 
                 L 276.102 187.142 L 276.419 184.283 L 277.088 184.283 L 277.439 181.425 L 278.024 181.425 
                 L 278.107 178.567 L 278.759 178.567 L 279.11 175.708 L 279.712 175.708 L 279.762 172.85 
                 L 280.447 172.85 L 280.765 169.992 L 281.45 169.992 L 281.784 167.133 L 282.102 167.133 
                 L 282.436 164.275 L 283.121 164.275 L 283.439 161.417 L 283.79 161.417 L 284.108 158.558 
                 L 284.776 158.558 L 285.11 155.7 L 285.712 155.7 L 285.779 152.842 L 286.447 152.842 
                 L 286.782 149.983 L 287.367 149.983 L 287.467 147.125 L 288.119 147.125 L 288.453 144.267 
                 L 289.122 144.267 L 289.456 141.408 L 289.807 141.408 L 290.124 138.55 L 290.793 138.55 
                 L 291.127 135.692 L 291.462 135.692 L 291.813 132.833 L 292.464 132.833 L 292.799 129.975 
                 L 293.417 129.975 L 293.451 127.117 L 294.136 127.117 L 294.47 124.258 L 295.072 124.258 
                 L 295.155 121.4 L 295.79 121.4 L 296.125 118.542 L 296.81 118.542 L 297.128 115.683 
                 L 297.462 115.683 L 297.813 112.825 L 298.465 112.825 L 298.816 109.967 L 299.133 109.967 
                 L 299.467 107.108 L 300.169 107.108 L 300.47 104.25 L 301.072 104.25 L 301.139 101.392 
                 L 301.807 101.392 L 302.142 98.5333 L 302.777 98.5333 L 302.81 95.675 L 303.479 95.675 
                 L 303.813 92.8167 L 304.482 92.8167 L 304.816 89.9583 L 305.15 89.9583 L 305.484 87.1 
                 L 306.153 87.1 L 306.487 84.2417 L 306.822 84.2417 L 307.156 81.3833 L 307.824 81.3833 
                 L 308.159 78.525 L 308.794 78.525 L 308.827 75.6667 L 309.496 75.6667 L 309.83 72.8083 
                 L 310.448 72.8083 L 310.482 75.6667 L 311.167 75.6667 L 311.501 78.525 L 312.153 78.525 
                 L 312.504 81.3833 L 312.822 81.3833 L 313.173 84.2417 L 313.825 84.2417 L 314.176 87.1 
                 L 314.527 87.1 L 314.827 89.9583 L 315.496 89.9583 L 315.847 92.8167 L 316.165 92.8167 
                 L 316.516 95.675 L 317.201 95.675 L 317.518 98.5333 L 318.137 98.5333 L 318.17 101.392 
                 L 318.839 101.392 L 319.19 104.25 L 319.842 104.25 L 320.193 107.108 L 320.51 107.108 
                 L 320.844 109.967 L 321.53 109.967 L 321.847 112.825 L 322.198 112.825 L 322.533 115.683 
                 L 323.184 115.683 L 323.535 118.542 L 323.853 118.542 L 324.187 121.4 L 324.856 121.4 
                 L 325.173 124.258 L 325.825 124.258 L 325.859 127.117 L 326.527 127.117 L 326.861 129.975 
                 L 327.547 129.975 L 327.847 132.833 L 328.182 132.833 L 328.549 135.692 L 329.218 135.692 
                 L 329.552 138.55 L 329.887 138.55 L 330.187 141.408 L 330.856 141.408 L 331.224 144.267 
                 L 331.541 144.267 L 331.876 147.125 L 332.527 147.125 L 332.862 149.983 L 333.513 149.983 
                 L 333.547 152.842 L 334.199 152.842 L 334.566 155.7 L 335.218 155.7 L 335.536 158.558 
                 L 335.87 158.558 L 336.204 161.417 L 336.89 161.417 L 337.207 164.275 L 337.541 164.275 
                 L 337.876 167.133 L 338.561 167.133 L 338.879 169.992 L 339.213 169.992 L 339.547 172.85 
                 L 339.865 172.85 L 340.216 172.85 L 340.55 175.708 L 341.185 175.708 L 341.219 178.567 
                 L 341.887 178.567 L 342.221 181.425 L 342.907 181.425 L 343.224 184.283 L 343.558 184.283 
                 L 343.909 187.142 L 344.561 187.142 L 344.896 190 L 345.23 190 L 345.564 192.858 L 346.233 192.858 
                 L 346.584 195.717 L 346.918 195.717 L 347.235 198.575 L 347.904 198.575 L 348.238 201.433 
                 L 348.873 201.433 L 348.907 204.292 L 349.575 204.292 L 349.893 207.15 L 350.227 207.15 
                 L 350.595 207.15 L 350.896 210.008 L 351.247 210.008 L 351.581 212.867 L 352.25 212.867 
                 L 352.584 215.725 L 352.901 215.725 L 353.252 218.583 L 353.921 218.583 L 354.255 221.442 
                 L 354.573 221.442 L 354.941 224.3 L 355.241 224.3 L 355.592 224.3 L 355.927 227.158 
                 L 356.578 227.158 L 356.612 230.017 L 357.264 230.017 L 357.598 232.875 L 358.267 232.875 
                 L 358.618 235.733 L 358.952 235.733 L 359.286 238.592 L 359.938 238.592 L 360.272 241.45 
                 L 360.607 241.45 L 360.941 244.308 L 361.593 244.308 L 361.944 247.167 L 362.295 247.167 
                 L 362.595 250.025 L 363.281 250.025 L 363.598 252.883 L 364.25 252.883 L 364.284 255.742 
                 L 364.969 255.742 L 365.286 258.6 L 365.955 258.6 L 366.289 261.458 L 366.64 261.458 
                 L 366.958 264.317 L 367.626 264.317 L 367.944 267.175 L 368.312 267.175 L 368.629 270.033 
                 L 369.298 270.033 L 369.615 272.892 L 369.966 272.892 L 370.3 275.75 L 371.019 275.75 
                 L 371.303 278.608 L 371.938 278.608 L 371.972 281.467 L 372.64 281.467 L 372.975 284.325 
                 L 373.643 284.325 L 373.978 287.183 L 374.312 287.183 L 374.629 290.042 L 375.298 290.042 
                 L 375.649 292.9 L 376 292.9 L 376.317 295.758 L 376.986 295.758 L 377.304 298.617 L 377.638 298.617 
                 L 377.972 301.475 L 378.657 301.475 L 378.992 304.333 L 379.643 304.333 L 379.994 307.192 
                 L 380.329 307.192 L 380.68 310.05 L 381.315 310.05 L 381.666 312.908 L 381.983 312.908 
                 L 382.334 315.767 L 382.986 315.767 L 383.337 318.625 L 383.655 318.625 L 383.989 321.483 
                 L 384.691 321.483 L 385.042 324.342 L 385.326 324.342 L 385.66 327.2 L 386.329 327.2 
                 L 386.68 330.058 L 387.332 330.058 L 387.683 332.917 L 388 332.917 L 388.335 335.775 
                 L 389.003 335.775 L 389.354 332.917 L 389.688 332.917 L 390.023 330.058 L 390.675 330.058 
                 L 391.026 327.2 L 391.343 327.2 L 391.677 324.342 L 392.346 324.342 L 392.68 321.483 
                 L 393.366 321.483 L 393.683 318.625 L 394.017 318.625 L 394.368 315.767 L 395.02 315.767 
                 L 395.371 312.908 L 395.672 312.908 L 396.023 310.05 L 396.692 310.05 L 397.026 307.192 
                 L 397.343 307.192 L 397.694 304.333 L 398.363 304.333 L 398.697 301.475 L 399.349 301.475 
                 L 399.683 298.617 L 400.034 298.617 L 400.385 295.758 L 401.037 295.758 L 401.371 292.9 
                 L 401.722 292.9 L 402.023 290.042 L 402.692 290.042 L 403.026 287.183 L 403.36 287.183 
                 L 403.711 284.325 L 404.38 284.325 L 404.697 281.467 L 405.383 281.467 L 405.717 278.608 
                 L 406.051 278.608 L 406.386 275.75 L 407.037 275.75 L 407.372 272.892 L 407.723 272.892 
                 L 408.04 270.033 L 408.709 270.033 L 409.043 267.175 L 409.377 267.175 L 409.712 264.317 
                 L 410.397 264.317 L 410.714 261.458 L 411.383 261.458 L 411.717 258.6 L 412.052 258.6 
                 L 412.386 255.742 L 413.071 255.742 L 413.389 252.883 L 413.723 252.883 L 414.057 250.025 
                 L 414.726 250.025 L 415.077 247.167 L 415.378 247.167 L 415.712 244.308 L 416.046 244.308 
                 L 416.397 244.308 L 416.748 241.45 L 417.4 241.45 L 417.751 238.592 L 418.068 238.592 
                 L 418.403 235.733 L 419.055 235.733 L 419.389 232.875 L 419.723 232.875 L 420.057 230.017 
                 L 420.743 230.017 L 421.077 227.158 L 421.395 227.158 L 421.746 224.3 L 422.397 224.3 
                 L 422.748 221.442 L 423.417 221.442 L 423.734 218.583 L 424.069 218.583 L 424.403 215.725 
                 L 425.088 215.725 L 425.406 212.867 L 425.74 212.867 L 426.074 210.008 L 426.743 210.008 
                 L 427.094 207.15 L 427.411 207.15 L 427.746 204.292 L 428.414 204.292 L 428.765 201.433 
                 L 429.434 201.433 L 429.768 198.575 L 430.086 198.575 L 430.42 195.717 L 431.105 195.717 
                 L 431.44 192.858 L 431.757 192.858 L 432.091 190 L 432.76 190 L 433.111 187.142 L 433.445 187.142 
                 L 433.779 184.283 L 434.448 184.283 L 434.782 181.425 L 435.401 181.425 L 435.434 178.567 
                 L 436.119 178.567 L 436.454 175.708 L 437.105 175.708 L 437.44 172.85 L 437.774 172.85 
                 L 438.125 169.992 L 438.777 169.992 L 439.111 167.133 L 439.462 167.133 L 439.796 164.275 
                 L 440.448 164.275 L 440.783 161.417 L 441.133 161.417 L 441.468 158.558 L 442.12 158.558 
                 L 442.454 155.7 L 443.089 155.7 L 443.122 152.842 L 443.808 152.842 L 444.125 149.983 
                 L 444.811 149.983 L 445.145 147.125 L 445.479 147.125 L 445.797 144.267 L 446.465 144.267 
                 L 446.799 141.408 L 447.134 141.408 L 447.468 138.55 L 448.137 138.55 L 448.471 135.692 
                 L 448.805 135.692 L 449.139 132.833 L 449.791 132.833 L 450.159 129.975 L 450.777 129.975 
                 L 450.811 127.117 L 451.463 127.117 L 451.814 124.258 L 452.499 124.258 L 452.833 121.4 
                 L 453.167 121.4 L 453.468 118.542 L 454.137 118.542 L 454.471 115.683 L 454.822 115.683 
                 L 455.173 112.825 L 455.808 112.825 L 456.159 109.967 L 456.493 109.967 L 456.978 107.108 
                 L 457.496 107.108 L 457.814 104.25 L 458.449 104.25 L 458.482 101.392 L 459.168 101.392 
                 L 459.519 98.5333 L 460.17 98.5333 L 460.488 95.675 L 460.839 95.675 L 461.157 92.8167 
                 L 461.859 92.8167 L 462.159 89.9583 L 462.51 89.9583 L 462.828 87.1 L 463.513 87.1 L 463.848 84.2417 
                 L 464.165 84.2417 L 464.499 81.3833 L 465.185 81.3833 L 465.519 78.525 L 466.121 78.525 
                 L 466.187 75.6667 L 466.839 75.6667 L 467.207 72.8083 L 467.876 72.8083 L 468.193 75.6667 
                 L 468.527 75.6667 L 468.845 78.525 L 469.53 78.525 L 469.864 81.3833 L 470.182 81.3833 
                 L 470.533 84.2417 L 471.202 84.2417 L 471.519 87.1 L 472.154 87.1 L 472.188 89.9583 
                 L 472.873 89.9583 L 473.207 92.8167 L 473.893 92.8167 L 474.21 95.675 L 474.544 95.675 
                 L 474.862 98.5333 L 475.547 98.5333 L 475.865 101.392 L 476.216 101.392 L 476.533 104.25 
                 L 477.202 104.25 L 477.553 107.108 L 478.155 107.108 L 478.221 109.967 L 478.89 109.967 
                 L 479.224 112.825 L 479.826 112.825 L 479.876 115.683 L 480.561 115.683 L 480.896 118.542 
                 L 481.547 118.542 L 481.882 121.4 L 482.216 121.4 L 482.55 124.258 L 483.219 124.258 
                 L 483.57 127.117 L 483.904 127.117 L 484.238 129.975 L 484.907 129.975 L 485.224 132.833 
                 L 485.843 132.833 L 485.893 135.692 L 486.578 135.692 L 486.913 138.55 L 487.481 138.55 
                 L 487.564 141.408 L 488.233 141.408 L 488.567 144.267 L 489.236 144.267 L 489.57 147.125 
                 L 489.904 147.125 L 490.239 149.983 L 490.924 149.983 L 491.258 152.842 L 491.576 152.842 
                 L 491.91 155.7 L 492.579 155.7 L 492.913 158.558 L 493.498 158.558 L 493.598 161.417 
                 L 494.25 161.417 L 494.601 164.275 L 495.169 164.275 L 495.253 167.133 L 495.921 167.133 
                 L 496.256 169.992 L 496.941 169.992 L 497.258 172.85 L 497.609 172.85 L 497.927 175.708 
                 L 498.612 175.708 L 498.93 178.567 L 499.515 178.567 L 499.598 181.425 L 500.284 181.425 
                 L 500.601 184.283 L 501.203 184.283 L 501.286 187.142 L 501.955 187.142 L 502.289 190 
                 L 502.958 190 L 503.292 192.858 L 503.61 192.858 L 503.944 195.717 L 504.612 195.717 
                 L 504.947 198.575 L 505.281 198.575 L 505.615 201.433 L 506.301 201.433 L 506.635 204.292 
                 L 507.186 204.292 L 507.303 207.15 L 507.955 207.15 L 508.189 210.008 L 508.858 210.008 
                 L 508.975 212.867 L 509.627 212.867 L 509.961 215.725 L 510.646 215.725 L 510.98 218.583 
                 L 511.298 218.583 L 511.632 221.442 L 512.317 221.442 L 512.635 224.3 L 512.986 224.3 
                 L 513.304 227.158 L 513.989 227.158 L 514.306 230.017 L 514.891 230.017 L 514.992 232.875 
                 L 515.644 232.875 L 515.995 235.733 L 516.563 235.733 L 516.646 238.592 L 517.315 238.592 
                 L 517.666 241.45 L 518.217 241.45 L 518.318 244.308 L 518.986 244.308 L 519.22 247.167 
                 L 519.989 247.167 L 520.323 250.025 L 520.658 250.025 L 520.992 252.883 L 521.66 252.883 
                 L 521.894 255.742 L 522.58 255.742 L 522.68 258.6 L 523.332 258.6 L 523.666 261.458 
                 L 524.251 261.458 L 524.351 264.317 L 525.02 264.317 L 525.237 267.175 L 526.006 267.175 
                 L 526.223 270.033 L 526.675 270.033 L 526.992 272.892 L 527.661 272.892 L 527.895 275.75 
                 L 528.58 275.75 L 528.697 278.608 L 529.349 278.608 L 529.683 281.467 L 530.251 281.467 
                 L 530.352 284.325 L 531.037 284.325 L 531.237 287.183 L 532.04 287.183 L 532.357 290.042 
                 L 532.758 290.042 L 532.909 292.9 L 533.711 292.9 L 534.029 295.758 L 534.58 295.758 
                 L 534.697 298.617 L 535.366 298.617 L 535.683 301.475 L 536.252 301.475 L 536.369 304.333 
                 L 537.054 304.333 L 537.254 307.192 L 537.94 307.192 L 538.04 310.05 L 538.692 310.05 
                 L 538.926 312.908 L 539.711 312.908 L 540.029 315.767 L 540.38 315.767 L 540.714 318.625 
                 L 541.383 318.625 L 541.6 321.483 L 542.252 321.483 L 542.386 324.342 L 543.071 324.342 
                 L 543.372 327.2 L 543.94 327.2 L 544.057 330.058 L 544.742 330.058 L 544.943 332.917 
                 L 545.628 332.917 L 545.728 335.775 L 546.397 335.775 L 546.714 332.917 L 547.4 332.917 
                 L 547.617 330.058 L 548.068 330.058 L 613.085 112.825 "
          stroke="rgb(255,127,0)" fill="none" stroke-width="0.5"/>
      </g>
    </g>
    <!-- Legend -->
    <g id="Legend">
      <rect x="338.5" y="26.5" width="200" height="32.4" stroke="black" fill="none" stroke-width="0.5"/>
      <defs>
        <clipPath id="clipPath4">
          <rect x="338.5" y="26.5" width="200" height="32.4"/>
        </clipPath>
      </defs>
      <g clip-path="url(#clipPath4)">
        <path d="M 343.5 35.5 L 357.5 35.5 "
          stroke="rgb(55,126,184)" fill="none" stroke-width="0.5"/>
        <g font-family="Helvetica" font-size="12" fill="black">
          <text x="362.5" y="39.8037">Measured angle vs millis</text>
        </g>
        <path d="M 343.5 49.5 L 357.5 49.5 "
          stroke="rgb(255,127,0)" fill="none" stroke-width="0.5"/>
        <g font-family="Helvetica" font-size="12" fill="black">
          <text x="362.5" y="54.2037">Reference angle vs millis</text>
        </g>
      </g>
    </g>
  </g>
  <!-- Foreground -->
  <g id="Foreground">
    <!-- Y Axis -->
    <g id="Y_Axis">
      <g transform="translate(14.0188,190) rotate(-90) translate(-14.0188,-190)" font-family="Helvetica" font-size="12" fill="black">
        <text x="-17.0008" y="190">Angle (deg)</text>
      </g>
      <!-- Y Labels -->
      <g id="Y_Labels">
        <g font-family="Helvetica" font-size="12" fill="black">
          <text x="50.7523" y="365.804">80</text>
        </g>
        <g font-family="Helvetica" font-size="12" fill="black">
          <text x="50.7523" y="337.22">90</text>
        </g>
        <g font-family="Helvetica" font-size="12" fill="black">
          <text x="44.0785" y="308.637">100</text>
        </g>
        <g font-family="Helvetica" font-size="12" fill="black">
          <text x="44.9633" y="280.054">110</text>
        </g>
        <g font-family="Helvetica" font-size="12" fill="black">
          <text x="44.0785" y="251.47">120</text>
        </g>
        <g font-family="Helvetica" font-size="12" fill="black">
          <text x="44.0785" y="222.887">130</text>
        </g>
        <g font-family="Helvetica" font-size="12" fill="black">
          <text x="44.0785" y="194.304">140</text>
        </g>
        <g font-family="Helvetica" font-size="12" fill="black">
          <text x="44.0785" y="165.72">150</text>
        </g>
        <g font-family="Helvetica" font-size="12" fill="black">
          <text x="44.0785" y="137.137">160</text>
        </g>
        <g font-family="Helvetica" font-size="12" fill="black">
          <text x="44.0785" y="108.554">170</text>
        </g>
        <g font-family="Helvetica" font-size="12" fill="black">
          <text x="44.0785" y="79.9704">180</text>
        </g>
        <g font-family="Helvetica" font-size="12" fill="black">
          <text x="44.0785" y="51.387">190</text>
        </g>
        <g font-family="Helvetica" font-size="12" fill="black">
          <text x="44.0785" y="22.8037">200</text>
        </g>
      </g>
      <path d="M 66.5 361.5 L 74.5 361.5 M 70.5 347.208 L 74.5 347.208 M 66.5 332.917 L 74.5 332.917 
               M 70.5 318.625 L 74.5 318.625 M 66.5 304.333 L 74.5 304.333 M 70.5 290.042 L 74.5 290.042 
               M 66.5 275.75 L 74.5 275.75 M 70.5 261.458 L 74.5 261.458 M 66.5 247.167 L 74.5 247.167 
               M 70.5 232.875 L 74.5 232.875 M 66.5 218.583 L 74.5 218.583 M 70.5 204.292 L 74.5 204.292 
               M 66.5 190 L 74.5 190 M 70.5 175.708 L 74.5 175.708 M 66.5 161.417 L 74.5 161.417 M 70.5 147.125 L 74.5 147.125 
               M 66.5 132.833 L 74.5 132.833 M 70.5 118.542 L 74.5 118.542 M 66.5 104.25 L 74.5 104.25 
               M 70.5 89.9583 L 74.5 89.9583 M 66.5 75.6667 L 74.5 75.6667 M 70.5 61.375 L 74.5 61.375 
               M 66.5 47.0833 L 74.5 47.0833 M 70.5 32.7917 L 74.5 32.7917 M 66.5 18.5 L 74.5 18.5 "
        stroke="black" fill="none" stroke-width="0.5"/>
    </g>
    <!-- X Axis -->
    <g id="X_Axis">
      <g font-family="Helvetica" font-size="12" fill="black">
        <text x="284.226" y="399">Time (ms)</text>
      </g>
      <g>
        <g font-family="Helvetica" font-size="12" fill="black">
          <text x="94.5901" y="380.69">40,000</text>
        </g>
        <g font-family="Helvetica" font-size="12" fill="black">
          <text x="178.159" y="380.69">45,000</text>
        </g>
        <g font-family="Helvetica" font-size="12" fill="black">
          <text x="261.728" y="380.69">50,000</text>
        </g>
        <g font-family="Helvetica" font-size="12" fill="black">
          <text x="345.297" y="380.69">55,000</text>
        </g>
        <g font-family="Helvetica" font-size="12" fill="black">
          <text x="428.866" y="380.69">60,000</text>
        </g>
        <g font-family="Helvetica" font-size="12" fill="black">
          <text x="512.435" y="380.69">65,000</text>
        </g>
      </g>
      <path d="M 112.942 369.5 L 112.942 361.5 M 196.511 369.5 L 196.511 361.5 M 280.08 369.5 L 280.08 361.5 
               M 363.648 369.5 L 363.648 361.5 M 447.217 369.5 L 447.217 361.5 M 530.786 369.5 L 530.786 361.5 
               M 79.5141 365.5 L 79.5141 361.5 M 96.2279 365.5 L 96.2279 361.5 M 129.655 365.5 L 129.655 361.5 
               M 146.369 365.5 L 146.369 361.5 M 163.083 365.5 L 163.083 361.5 M 179.797 365.5 L 179.797 361.5 
               M 213.224 365.5 L 213.224 361.5 M 229.938 365.5 L 229.938 361.5 M 246.652 365.5 L 246.652 361.5 
               M 263.366 365.5 L 263.366 361.5 M 296.793 365.5 L 296.793 361.5 M 313.507 365.5 L 313.507 361.5 
               M 330.221 365.5 L 330.221 361.5 M 346.935 365.5 L 346.935 361.5 M 380.362 365.5 L 380.362 361.5 
               M 397.076 365.5 L 397.076 361.5 M 413.79 365.5 L 413.79 361.5 M 430.504 365.5 L 430.504 361.5 
               M 463.931 365.5 L 463.931 361.5 M 480.645 365.5 L 480.645 361.5 M 497.359 365.5 L 497.359 361.5 
               M 514.072 365.5 L 514.072 361.5 M 547.5 365.5 L 547.5 361.5 "
        stroke="black" fill="none" stroke-width="0.5"/>
    </g>
    <g font-family="Helvetica" font-size="12" fill="black">
      <text x="228.896" y="14.0188">measurement of angles (20/s)</text>
    </g>
    <path d="M 547.5 361.5 L 547.5 18.5 L 74.5 18.5 L 74.5 361.5 L 547.5 361.5 z "
      stroke="black" stroke-linecap="square" fill="none" stroke-width="0.5"/>
  </g>
</g>
</svg>
