<?xml version="1.0" encoding="utf-8" standalone="no"?>
<!-- Generator: DataGraph - https://www.visualdatatools.com/DataGraph/index.html  --><!DOCTYPE svg PUBLIC "-//W3C//DTD SVG 1.1//EN" "http://www.w3.org/Graphics/SVG/1.1/DTD/svg11.dtd">
<svg width="563" height="406" version="1.1" xmlns="http://www.w3.org/2000/svg" xmlns:xlink="http://www.w3.org/1999/xlink">
<g>
  <!-- Background -->
  <g id="Background">
    <defs>
      <clipPath id="clipPath">
        <rect x="74.5" y="18.5" width="473" height="343"/>
      </clipPath>
    </defs>
    <!-- Grid -->
    <g id="Grid" clip-path="url(#clipPath)">
      <path d="M 74.5 332.917 L 547.5 332.917 M 74.5 304.333 L 547.5 304.333 M 74.5 275.75 L 547.5 275.75 
               M 74.5 247.167 L 547.5 247.167 M 74.5 218.583 L 547.5 218.583 M 74.5 190 L 547.5 190 M 74.5 161.417 L 547.5 161.417 
               M 74.5 132.833 L 547.5 132.833 M 74.5 104.25 L 547.5 104.25 M 74.5 75.6667 L 547.5 75.6667 
               M 74.5 47.0833 L 547.5 47.0833 "
        stroke="black" stroke-dasharray="0.00997506,3.99002" stroke-linecap="round" fill="none" stroke-width="0.5"/>
    </g>
  </g>
  <!-- Commands -->
  <g id="Commands">
    <!-- Measured angle vs millis -->
    <g id="Measured_angle_vs_millis">
      <defs>
        <clipPath id="clipPath2">
          <rect x="74.5" y="18.5" width="473" height="343"/>
        </clipPath>
      </defs>
      <g clip-path="url(#clipPath2)">
        <path d="M -0.237409 77.0012 L 72.666 320.868 L 74.846 320.836 L 74.9329 324.363 L 74.9653 325.397 
                 L 75.2006 326.746 L 75.9863 326.719 L 78.0488 326.639 L 78.5414 326.635 L 79.9595 326.716 
                 L 80.0737 322.419 L 80.1743 321.494 L 80.8118 321.563 L 80.9942 317.862 L 81.4237 317.883 
                 L 82.2436 317.878 L 82.8572 317.822 L 83.3668 317.94 L 83.6072 310.051 L 83.8782 310.024 
                 L 84.2958 310.004 L 85.0816 310.046 L 85.2401 303.981 L 85.5145 301.929 L 85.8213 301.901 
                 L 86.3327 301.978 L 86.6054 301.999 L 86.8781 301.984 L 87.1594 301.986 L 87.398 298.977 
                 L 87.6622 299.027 L 87.698 298.504 L 87.8991 294.049 L 88.5144 294.13 L 88.7548 291.318 
                 L 89.0599 291.358 L 89.3326 291.351 L 90.1559 291.479 L 90.5956 284.631 L 91.8195 284.7 
                 L 92.4348 284.75 L 92.607 284.741 L 92.8456 280.659 L 93.016 276.99 L 93.9671 276.941 
                 L 94.3762 276.94 L 94.5126 276.496 L 94.7853 270.076 L 96.1523 270.174 L 96.4233 267.296 
                 L 97.2739 267.309 L 97.5125 267.374 L 97.8517 267.376 L 98.1619 258.338 L 98.7756 258.448 
                 L 100.308 258.516 L 100.478 258.407 L 100.509 256.957 L 100.782 250.524 L 101.022 250.56 
                 L 101.297 250.582 L 101.598 246.702 L 103.814 246.734 L 104.017 239.308 L 104.087 238.612 
                 L 104.869 238.666 L 106.272 238.678 L 106.471 237.516 L 106.674 231.623 L 108.957 231.651 
                 L 109.228 222.595 L 109.374 222.005 L 109.816 222.032 L 110.122 221.93 L 110.537 221.971 
                 L 110.772 219.566 L 110.794 217.904 L 110.907 214.623 L 112.408 214.622 L 112.671 213.587 
                 L 113.18 213.591 L 113.419 207.655 L 114.679 207.591 L 115.122 207.647 L 115.541 207.627 
                 L 115.838 207.576 L 116.09 200.58 L 116.463 200.554 L 116.652 200.579 L 116.823 197.204 
                 L 116.859 196.521 L 117.029 195.732 L 117.37 195.759 L 117.881 195.732 L 119.257 195.719 
                 L 119.378 188.481 L 119.414 187.137 L 119.669 186.75 L 119.923 186.764 L 120.74 186.725 
                 L 121.715 186.651 L 121.931 181.552 L 121.969 180.649 L 122.241 180.377 L 122.531 180.395 
                 L 122.715 179.884 L 122.852 177.444 L 124.065 177.36 L 125.054 177.316 L 125.511 168.245 
                 L 126.891 168.152 L 127.145 162.185 L 127.403 162.094 L 127.655 162.081 L 127.745 162.019 
                 L 127.916 162.039 L 128.461 161.96 L 128.715 161.945 L 129.486 161.822 L 129.721 152.836 
                 L 130.029 152.804 L 130.571 152.683 L 130.677 152.754 L 131.086 152.689 L 131.357 148.782 
                 L 131.63 147.694 L 132.187 147.571 L 132.721 147.53 L 132.992 145.661 L 133.208 141.646 
                 L 135.48 141.362 L 135.693 134.378 L 136.266 134.301 L 136.409 133.252 L 136.537 133.247 
                 L 136.815 133.25 L 137.083 133.144 L 137.429 133.13 L 137.908 133.09 L 138.421 125.411 
                 L 138.55 125.317 L 138.719 125.355 L 138.992 123.648 L 139.198 121.255 L 139.298 121.313 
                 L 139.571 121.203 L 139.984 119.079 L 140.084 119.095 L 140.222 119.013 L 140.355 119.048 
                 L 141.179 118.861 L 141.448 118.924 L 141.688 114.916 L 141.826 114.831 L 141.992 114.892 
                 L 142.539 114.706 L 143.052 114.599 L 143.933 114.645 L 144.149 108.529 L 144.378 106.691 
                 L 145.194 106.441 L 145.266 106.361 L 145.302 106.529 L 145.505 106.389 L 145.539 106.516 
                 L 145.776 104.192 L 145.81 102.706 L 146.082 99.488 L 146.255 99.5455 L 146.321 99.4437 
                 L 146.391 99.5513 L 146.624 99.327 L 146.664 99.5298 L 146.899 99.3053 L 146.902 99.4151 
                 L 147.172 99.3 L 147.31 99.4063 L 147.444 99.2206 L 147.652 95.3737 L 147.685 95.4881 
                 L 147.715 95.362 L 147.818 95.4683 L 147.853 95.3464 L 147.99 95.3644 L 148.233 95.2047 
                 L 148.266 95.4485 L 148.569 91.6946 L 148.602 91.9893 L 148.977 91.7102 L 149.047 91.8388 
                 L 149.147 91.5559 L 149.319 91.6919 L 149.348 91.5439 L 149.524 91.8636 L 149.623 91.7106 
                 L 149.725 91.7232 L 149.895 91.5711 L 149.935 91.7273 L 150.168 91.5593 L 150.171 91.6895 
                 L 150.306 91.383 L 150.441 91.521 L 150.545 91.3889 L 150.714 91.6893 L 150.952 87.7674 
                 L 150.956 87.9673 L 151.024 86.054 L 151.228 86.2735 L 151.259 86.4895 L 151.327 86.034 
                 L 151.36 86.5143 L 151.532 86.2644 L 151.702 86.2884 L 151.804 84.5081 L 151.808 84.7729 
                 L 151.946 83.7965 L 152.075 83.8013 L 152.213 84.0931 L 152.35 83.8195 L 152.52 84.0988 
                 L 152.587 83.3172 L 152.757 82.0594 L 152.894 82.1127 L 153.098 81.7526 L 153.165 82.1302 
                 L 153.234 81.8309 L 153.337 82.2792 L 153.437 82.5936 L 153.505 81.9018 L 153.717 81.9159 
                 L 153.984 82.359 L 154.255 82.0107 L 154.4 82.6412 L 154.503 82.3647 L 154.528 82.7099 
                 L 154.63 81.9732 L 154.801 82.337 L 154.835 81.9709 L 154.876 82.671 L 155.072 81.976 
                 L 155.176 81.9745 L 155.21 82.3398 L 155.319 82.3398 L 155.346 81.9927 L 155.455 82.3302 
                 L 155.686 81.9922 L 156.163 81.9565 L 156.205 82.3111 L 156.436 81.9565 L 156.511 82.3272 
                 L 156.707 82.3272 L 156.751 81.973 L 156.947 82.8551 L 157.09 83.1284 L 157.458 82.4586 
                 L 157.636 82.8245 L 157.799 82.8245 L 157.934 82.4882 L 158.074 82.8015 L 158.343 82.7999 
                 L 158.379 82.4631 L 158.582 83.4714 L 158.795 86.0676 L 158.888 86.2391 L 158.931 86.0313 
                 L 159.159 86.2725 L 159.17 86.0426 L 159.272 86.489 L 159.432 86.0432 L 159.775 86.0343 
                 L 159.92 86.2894 L 160.114 86.0333 L 160.23 86.0686 L 160.499 91.5889 L 160.521 91.4456 
                 L 160.739 91.7242 L 160.773 91.4242 L 161.034 91.5733 L 161.07 91.4294 L 161.373 91.5694 
                 L 161.556 91.5806 L 161.578 91.7225 L 161.646 91.5745 L 161.863 91.5745 L 162.089 93.2647 
                 L 162.125 93.3922 L 162.192 93.2638 L 162.294 93.5656 L 162.377 93.4322 L 162.648 93.4355 
                 L 162.873 94.4656 L 162.908 95.2825 L 163.214 97.2491 L 163.317 97.0203 L 163.453 97.1572 
                 L 163.874 97.3188 L 163.978 97.1859 L 164.01 97.3893 L 164.269 97.2701 L 164.474 97.5074 
                 L 164.542 97.3093 L 164.612 97.4338 L 164.782 97.3312 L 164.897 97.5602 L 165.033 97.3526 
                 L 165.054 97.4633 L 165.306 97.4586 L 165.563 104.506 L 165.611 104.258 L 165.717 104.59 
                 L 165.802 104.507 L 165.919 104.421 L 166.075 104.581 L 166.156 104.499 L 166.313 107.066 
                 L 166.55 108.476 L 166.637 108.306 L 166.686 108.476 L 166.842 108.431 L 166.891 108.52 
                 L 167.096 108.445 L 167.436 108.593 L 167.607 108.521 L 167.779 108.651 L 167.847 108.503 
                 L 167.948 108.662 L 168.12 108.514 L 168.374 108.599 L 168.459 108.534 L 168.493 108.664 
                 L 168.628 108.609 L 168.884 111.942 L 169.088 116.885 L 169.652 117.003 L 169.804 120.078 
                 L 169.908 119.981 L 169.993 119.924 L 170.162 119.966 L 170.23 120.1 L 170.656 119.994 
                 L 170.897 120.149 L 170.997 120.066 L 171.168 120.16 L 171.374 120.089 L 171.422 120.949 
                 L 171.544 123.104 L 171.694 122.993 L 171.762 123.106 L 172.206 123.057 L 172.717 123.18 
                 L 172.973 123.207 L 173.194 129.583 L 173.228 130.395 L 173.452 131.053 L 173.486 130.95 
                 L 173.568 131.065 L 173.995 131.084 L 174.249 131.145 L 174.386 131.11 L 174.418 131.212 
                 L 174.508 131.153 L 175.018 131.243 L 175.373 135.264 L 175.567 135.197 L 175.92 135.347 
                 L 176.077 135.308 L 176.348 135.373 L 176.564 140.023 L 176.603 141.226 L 176.757 142.532 
                 L 176.859 142.45 L 178.974 142.628 L 179.191 148.915 L 179.486 150.644 L 180.029 150.737 
                 L 181.391 150.941 L 181.64 151.793 L 181.94 158.873 L 182.935 159.066 L 184.12 159.17 
                 L 184.364 166.803 L 184.667 167.202 L 185.209 167.309 L 185.756 167.418 L 185.864 167.397 
                 L 186.031 172.497 L 186.273 173.568 L 186.609 173.581 L 187.665 173.69 L 187.936 174.502 
                 L 188.175 176.83 L 188.313 176.793 L 188.484 177.018 L 188.69 181.798 L 188.756 181.879 
                 L 189.298 181.896 L 189.607 181.97 L 190.088 181.994 L 190.936 182.006 L 191.177 189.835 
                 L 193.359 190.081 L 193.462 190.05 L 193.936 194.263 L 194.207 194.236 L 194.448 196.045 
                 L 194.48 197.595 L 194.753 201.009 L 195.026 201.027 L 196.969 201.036 L 197.206 208.113 
                 L 197.749 208.165 L 197.988 211.36 L 198.022 212.222 L 198.296 213.16 L 198.567 213.122 
                 L 199.082 217.2 L 199.655 217.196 L 201.162 217.221 L 201.264 217.349 L 201.501 225.076 
                 L 201.809 225.086 L 202.382 225.205 L 203.744 225.184 L 203.983 232.242 L 204.017 232.877 
                 L 204.289 233.193 L 205.72 233.296 L 205.967 233.249 L 206.239 233.249 L 206.435 237.009 
                 L 206.468 238.575 L 206.81 240.232 L 207.39 240.252 L 208.08 240.35 L 208.104 241.445 
                 L 208.443 249.374 L 208.65 249.323 L 209.805 249.378 L 210.555 249.352 L 210.808 256.272 
                 L 211.067 257.234 L 211.341 257.219 L 212.342 257.15 L 212.599 257.158 L 213.158 257.108 
                 L 213.485 265.021 L 213.738 265.021 L 214.917 265.065 L 215.203 270.765 L 215.734 270.745 
                 L 216.192 270.742 L 217.453 270.722 L 217.745 279.702 L 218.152 279.652 L 219.241 279.663 
                 L 220.025 279.616 L 220.232 286.523 L 220.828 286.502 L 221.046 289.011 L 222.292 288.964 
                 L 222.874 289.014 L 222.974 289.063 L 223.397 289.016 L 223.499 289.149 L 223.942 289.197 
                 L 224.145 297.468 L 224.474 300.043 L 224.951 299.993 L 226.042 299.95 L 226.259 305.125 
                 L 226.554 308.601 L 227.099 308.595 L 227.745 308.499 L 227.917 316.764 L 228.166 317.221 
                 L 229.008 317.254 L 229.554 317.183 L 230.304 317.136 L 230.346 318.722 L 230.643 322.921 
                 L 231.19 322.937 L 231.708 322.916 L 232.9 322.864 L 233.37 322.877 L 235.281 322.79 
                 L 236.131 322.786 L 236.914 322.794 L 237.152 322.903 L 237.156 322.663 L 237.459 321.634 
                 L 238.006 321.628 L 238.279 318.723 L 238.823 318.8 L 239.097 314.786 L 240.016 314.801 
                 L 240.529 314.883 L 240.734 310.953 L 241.415 311.006 L 241.516 307.721 L 241.55 307 
                 L 242.366 306.963 L 242.607 303.878 L 243.185 303.886 L 243.459 303.881 L 243.938 303.923 
                 L 243.972 303.819 L 244.001 302.537 L 244.243 298.137 L 244.552 298.155 L 244.819 298.155 
                 L 245.027 294.282 L 245.636 294.36 L 245.876 291.401 L 246.454 291.45 L 247.378 291.503 
                 L 247.788 284.644 L 248.232 284.698 L 248.498 281.716 L 249.186 281.769 L 249.999 281.774 
                 L 250.243 278.779 L 250.543 278.809 L 250.788 278.827 L 250.952 274.891 L 251.334 274.933 
                 L 252.082 274.975 L 252.449 274.975 L 252.789 270.29 L 254.085 270.354 L 254.393 263.226 
                 L 255.012 263.313 L 255.183 260.36 L 256.751 260.455 L 256.983 254.68 L 257.639 254.681 
                 L 257.831 251.632 L 257.98 250.937 L 258.24 250.988 L 258.409 251.004 L 258.65 250.859 
                 L 259.137 250.863 L 259.671 250.86 L 260.182 250.852 L 260.402 241.652 L 260.489 241.702 
                 L 260.877 241.631 L 261.489 241.728 L 262.717 241.78 L 262.785 241.01 L 263.091 235.201 
                 L 263.553 235.23 L 263.809 233.757 L 264.317 233.753 L 264.559 231.99 L 264.677 228.801 
                 L 265.41 228.855 L 266.126 228.833 L 266.345 223.787 L 266.466 222.933 L 267.777 222.962 
                 L 267.896 222.709 L 268.152 214.827 L 268.75 214.88 L 270.228 214.874 L 270.453 214.424 
                 L 270.467 212.537 L 270.603 207.768 L 271.251 207.762 L 271.421 205.793 L 271.764 205.821 
                 L 272.296 205.774 L 272.84 205.816 L 273.114 204.045 L 273.226 200.843 L 273.668 200.926 
                 L 274.452 200.818 L 274.68 198.517 L 274.975 196.919 L 275.466 196.891 L 275.739 192.216 
                 L 276.008 190.905 L 276.291 190.905 L 276.54 188.062 L 276.828 187.967 L 277.101 187.967 
                 L 277.341 187.724 L 277.547 184.904 L 278.703 184.871 L 278.976 184.841 L 279.252 181.63 
                 L 279.492 180.765 L 280.612 180.759 L 280.883 172.874 L 281.156 172.531 L 281.432 172.485 
                 L 281.911 172.508 L 282.519 172.396 L 283.067 172.394 L 283.58 166.46 L 284.907 166.268 
                 L 285.588 166.174 L 285.79 166.184 L 285.995 158.211 L 286.131 157.275 L 286.542 157.242 
                 L 286.782 154.827 L 287.086 154.174 L 287.737 154.072 L 287.907 154.107 L 288.214 154.037 
                 L 288.419 153.589 L 288.449 152.333 L 288.625 148.168 L 288.726 148.194 L 289.268 148.064 
                 L 289.61 147.876 L 290.084 147.826 L 290.29 142.054 L 290.629 142.078 L 291.006 141.962 
                 L 291.448 142.021 L 291.688 141.965 L 292.336 141.801 L 292.537 141.836 L 292.81 135.011 
                 L 293.052 134.861 L 293.353 134.897 L 293.594 134.025 L 293.831 132.865 L 294.991 132.745 
                 L 295.232 132.543 L 295.467 125.956 L 296.08 125.827 L 296.353 121.829 L 296.5 121.869 
                 L 296.626 121.754 L 296.899 121.673 L 297.141 119.648 L 297.444 119.55 L 298.532 119.5 
                 L 298.804 115.445 L 299.051 115.402 L 299.324 115.277 L 299.87 115.181 L 300.984 115.127 
                 L 301.231 113.018 L 301.257 111.159 L 301.53 107.464 L 301.802 107.354 L 302.041 107.251 
                 L 302.348 107.111 L 302.529 107.271 L 302.583 107.107 L 302.892 107.061 L 303.164 100.487 
                 L 303.412 100.353 L 304.56 100.302 L 304.763 98.0799 L 305.036 96.476 L 305.05 96.6141 
                 L 305.31 96.3469 L 305.344 96.4551 L 305.583 93.738 L 305.856 93.0515 L 306.025 92.907 
                 L 306.127 93.0384 L 306.197 92.9018 L 306.343 93.165 L 306.401 92.9117 L 306.672 92.9123 
                 L 306.788 93.0377 L 306.86 92.7767 L 306.925 92.9089 L 307.011 92.7714 L 307.161 92.8975 
                 L 307.184 92.76 L 307.366 92.7367 L 307.502 92.9034 L 307.557 92.7658 L 307.707 92.7658 
                 L 307.727 92.8981 L 307.796 92.7182 L 307.98 92.7352 L 308.239 88.1473 L 308.355 87.7544 
                 L 308.493 87.7544 L 308.527 88.1195 L 308.718 87.7005 L 308.784 87.8793 L 309.007 86.1728 
                 L 309.123 85.9803 L 309.445 85.9105 L 309.5 86.1389 L 309.568 85.7004 L 309.718 85.9603 
                 L 309.773 85.6664 L 309.976 84.5693 L 310.025 84.8361 L 310.059 84.5846 L 310.282 84.6554 
                 L 310.383 84.9068 L 310.489 84.3623 L 310.538 84.6651 L 310.657 84.3757 L 310.693 84.6667 
                 L 310.826 84.3746 L 310.896 84.6432 L 311.048 84.3765 L 311.099 84.645 L 311.305 84.3391 
                 L 311.407 84.8824 L 311.559 84.5875 L 311.581 84.8499 L 311.66 84.3502 L 311.798 84.6325 
                 L 311.815 84.3656 L 311.985 84.3632 L 312.087 84.8829 L 312.173 84.3175 L 312.326 84.3304 
                 L 312.343 84.5896 L 312.58 84.3428 L 312.836 84.3314 L 312.943 84.0669 L 312.972 84.3424 
                 L 313.076 84.3071 L 313.093 84.5674 L 313.332 84.3288 L 313.47 84.5991 L 313.504 84.06 
                 L 313.604 84.5875 L 313.671 84.3282 L 313.858 84.5875 L 314.014 84.317 L 314.097 85.1458 
                 L 314.114 84.9414 L 314.232 85.6232 L 314.37 85.3653 L 314.423 85.1205 L 314.627 85.1205 
                 L 314.729 85.5999 L 314.885 85.1454 L 314.966 85.6232 L 315.036 85.1393 L 315.139 85.3852 
                 L 315.391 85.1526 L 315.41 85.351 L 315.629 85.1021 L 315.65 85.3807 L 315.887 85.1119 
                 L 315.936 85.3508 L 316.073 85.0953 L 316.141 85.3255 L 316.161 85.078 L 316.378 86.2525 
                 L 316.516 87.5498 L 316.652 87.5412 L 316.719 87.8987 L 316.841 87.5094 L 316.925 87.9023 
                 L 317.182 87.5008 L 317.3 87.4996 L 317.385 87.8754 L 317.421 87.6836 L 317.557 92.6683 
                 L 317.694 92.5343 L 317.948 92.6791 L 318.069 92.7031 L 318.207 92.5329 L 318.355 92.8404 
                 L 318.614 92.5241 L 318.716 92.81 L 318.764 92.5285 L 318.89 92.8129 L 318.955 92.6787 
                 L 318.969 92.8117 L 319.159 92.5624 L 319.205 93.8559 L 319.275 94.33 L 319.5 94.3156 
                 L 319.534 94.2062 L 319.707 94.485 L 319.753 94.3472 L 319.841 94.4741 L 319.921 94.1973 
                 L 319.99 94.333 L 320.012 94.1973 L 320.162 97.1388 L 320.295 97.0225 L 320.637 97.2672 
                 L 320.828 97.0561 L 321.086 100.842 L 321.558 100.981 L 321.612 100.789 L 321.651 100.978 
                 L 321.865 100.89 L 321.897 100.986 L 322.023 100.886 L 322.124 100.995 L 322.26 100.817 
                 L 322.34 101.017 L 322.396 100.91 L 322.645 102.473 L 322.874 103.963 L 322.943 103.87 
                 L 323.02 103.961 L 323.22 103.883 L 323.489 105.503 L 323.6 108.88 L 323.76 108.846 
                 L 324.033 108.92 L 324.281 108.954 L 324.578 109.039 L 324.692 108.971 L 324.851 109.127 
                 L 324.996 108.978 L 325.124 109.063 L 325.943 109.176 L 326.18 118.129 L 326.393 118.158 
                 L 326.758 118.173 L 327.685 118.44 L 327.823 118.311 L 328.396 118.416 L 328.64 123.014 
                 L 328.841 123.46 L 329.078 123.403 L 329.213 123.421 L 329.487 124.601 L 329.731 126.446 
                 L 330.307 126.608 L 330.481 130.43 L 330.578 130.392 L 330.684 130.495 L 330.849 130.459 
                 L 331.463 130.477 L 331.536 130.578 L 331.667 130.518 L 331.742 130.584 L 331.94 130.595 
                 L 332.214 135.525 L 332.523 135.633 L 332.729 135.617 L 333.303 135.691 L 333.578 135.697 
                 L 333.851 141.713 L 334.122 141.782 L 334.635 141.861 L 335.214 141.928 L 335.485 144.921 
                 L 335.587 144.992 L 335.758 144.932 L 336.031 144.985 L 336.273 147.533 L 336.576 150.092 
                 L 336.68 150.065 L 336.847 150.142 L 337.393 150.16 L 337.979 150.23 L 338.177 154.354 
                 L 338.212 155.099 L 338.485 156.272 L 339.573 156.419 L 339.845 161.411 L 340.222 161.512 
                 L 340.665 161.552 L 341.207 161.603 L 341.62 167.482 L 341.753 167.451 L 342.298 167.602 
                 L 342.842 167.611 L 343.082 168.447 L 343.116 169.94 L 343.387 173.794 L 343.662 173.84 
                 L 344.586 173.89 L 344.749 173.89 L 345.024 176.981 L 345.567 177.023 L 345.908 182.063 
                 L 346.418 182.087 L 346.626 183.892 L 346.658 184.971 L 346.829 186.259 L 347.246 186.273 
                 L 347.892 186.322 L 348.027 186.263 L 348.293 189.173 L 348.768 189.277 L 350.71 189.384 
                 L 351 195.252 L 351.598 195.282 L 351.779 196.398 L 351.801 197.622 L 352.14 200.254 
                 L 352.346 200.227 L 352.619 204.127 L 353.435 204.193 L 353.994 204.191 L 354.219 205.477 
                 L 354.492 208.167 L 355.852 208.23 L 356.11 217.989 L 356.365 218.035 L 358.424 218.312 
                 L 358.678 225.184 L 358.953 225.246 L 359.701 225.331 L 360.979 225.305 L 361.235 233.251 
                 L 362.261 233.298 L 362.515 234.341 L 363.536 234.385 L 363.688 239.444 L 363.945 239.465 
                 L 364.302 239.44 L 364.537 242.642 L 364.811 244.448 L 365.072 244.421 L 365.597 244.441 
                 L 366.909 244.451 L 367.15 253.786 L 367.387 254.403 L 368.207 254.374 L 368.513 254.352 
                 L 369.001 260.255 L 370.387 260.196 L 370.661 264.143 L 371.186 264.193 L 371.445 267.987 
                 L 371.691 268.036 L 373.625 267.99 L 374.007 273.694 L 376.351 273.641 L 376.63 284.594 
                 L 378.028 284.535 L 378.26 289.201 L 378.841 289.182 L 380.203 289.124 L 380.583 289.154 
                 L 380.716 290.284 L 380.99 298.155 L 381.498 298.1 L 381.536 299.071 L 381.841 299.966 
                 L 382.385 299.949 L 382.898 299.959 L 383.203 299.929 L 383.443 305.873 L 383.748 308.597 
                 L 384.872 308.543 L 385.076 317.339 L 385.593 317.281 L 387.29 317.24 L 387.432 317.218 
                 L 387.531 319.918 L 387.563 321.368 L 387.665 322.973 L 390.288 322.836 L 390.6 322.785 
                 L 391.11 322.838 L 391.923 322.832 L 392.78 322.849 L 394.103 322.837 L 394.342 322.492 
                 L 394.347 322.6 L 394.374 322.361 L 394.649 321.725 L 395.167 321.672 L 395.194 321.511 
                 L 395.358 318.741 L 395.738 318.747 L 395.985 318.747 L 396.009 317.987 L 396.154 314.919 
                 L 397.642 314.884 L 397.954 310.984 L 398.915 310.978 L 399.425 311.042 L 399.689 302.926 
                 L 400.267 302.934 L 401.029 302.936 L 401.357 299.036 L 401.917 299.099 L 402.142 295.016 
                 L 402.288 294.271 L 402.719 294.33 L 402.926 292.594 L 402.956 291.968 L 403.093 291.42 
                 L 403.449 291.468 L 404.253 291.521 L 405.274 291.612 L 405.627 280.759 L 405.835 280.762 
                 L 407.93 280.937 L 408.085 275.711 L 408.307 274.764 L 408.782 274.871 L 408.987 271.211 
                 L 409.618 271.255 L 410.502 271.364 L 410.64 268.223 L 410.758 267.354 L 411.404 267.358 
                 L 411.642 263.908 L 411.902 263.618 L 412.684 263.708 L 413.741 263.703 L 413.945 263.726 
                 L 413.959 263.582 L 414.22 254.724 L 415.547 254.805 L 415.788 248.471 L 416.001 245.778 
                 L 416.332 245.829 L 418.104 245.936 L 418.217 245.749 L 418.454 238.906 L 419.608 238.951 
                 L 420.158 238.962 L 420.697 238.94 L 420.968 232.776 L 421.353 232.731 L 421.512 232.731 
                 L 421.789 229.107 L 421.927 228.934 L 422.134 228.983 L 422.331 228.977 L 423.184 229.028 
                 L 423.421 228.849 L 423.693 223.052 L 424.246 223.003 L 425.057 223.005 L 425.331 214.951 
                 L 425.607 214.988 L 425.88 214.963 L 426.935 215.02 L 427.511 214.997 L 427.818 207.998 
                 L 428.231 207.976 L 430.034 207.936 L 430.239 207.136 L 430.51 201.096 L 431.055 201.031 
                 L 431.468 200.927 L 432.729 200.939 L 432.966 190.96 L 433.208 190.208 L 433.781 190.154 
                 L 434.329 190.124 L 434.633 185.007 L 434.871 184.917 L 435.01 184.891 L 435.961 184.893 
                 L 436.201 183.997 L 436.233 183.2 L 436.508 181.929 L 436.779 181.913 L 437.021 181.726 
                 L 437.186 177.832 L 437.599 177.831 L 438.248 177.81 L 439.508 177.779 L 439.784 169.604 
                 L 440.391 169.576 L 440.593 169.496 L 441.139 169.441 L 441.546 162.679 L 441.957 162.654 
                 L 443.59 162.423 L 443.835 162.123 L 444.069 153.442 L 445.02 153.269 L 445.465 153.218 
                 L 445.736 149.165 L 446.292 149.095 L 446.52 146.077 L 447.1 146.008 L 447.313 144.708 
                 L 447.338 143.846 L 447.609 143.088 L 448.155 143.052 L 449.757 142.93 L 450.028 135.119 
                 L 450.846 134.999 L 451.357 134.972 L 451.61 134.927 L 452.378 134.835 L 452.595 127.226 
                 L 453.162 127.045 L 453.415 122.313 L 454.182 122.078 L 454.436 120.055 L 454.572 120.119 
                 L 454.695 120.022 L 454.845 120.14 L 454.947 120.018 L 455.443 120.041 L 455.477 119.919 
                 L 455.714 120 L 455.954 119.928 L 456.038 119.864 L 456.483 119.908 L 456.993 112.8 
                 L 458.02 112.677 L 458.29 112.674 L 458.544 109.444 L 458.712 108.816 L 458.799 108.902 
                 L 459.038 108.813 L 459.072 108.932 L 459.312 108.668 L 460.061 108.548 L 460.076 107.433 
                 L 460.299 101.204 L 460.313 101.356 L 460.383 101.088 L 460.417 101.251 L 460.843 101.032 
                 L 460.913 100.948 L 461.099 101.012 L 461.39 101.013 L 461.506 100.81 L 461.61 100.975 
                 L 461.799 101.008 L 461.869 100.071 L 462.086 97.4258 L 462.173 97.5338 L 462.328 97.3004 
                 L 462.481 97.4042 L 462.686 97.2409 L 462.957 94.7813 L 463.072 94.5137 L 463.209 94.6394 
                 L 463.299 94.7553 L 463.468 94.6048 L 463.502 94.7467 L 463.72 92.4246 L 463.88 92.2671 
                 L 463.961 92.4113 L 464.027 92.1148 L 464.059 92.4013 L 464.254 92.3753 L 464.503 92.2292 
                 L 464.629 92.099 L 464.936 92.2658 L 465.072 92.1241 L 465.082 92.2558 L 465.343 91.3062 
                 L 465.481 89.7986 L 465.593 89.9986 L 465.617 89.8486 L 465.762 90.1215 L 465.798 89.8092 
                 L 465.924 90.0033 L 466.161 88.0406 L 466.309 87.6212 L 466.435 87.8154 L 466.478 87.6252 
                 L 466.708 87.8209 L 466.717 87.6309 L 466.817 87.825 L 467.022 87.6195 L 467.116 86.7249 
                 L 467.295 86.7573 L 467.399 86.3284 L 467.501 86.5805 L 467.601 86.5587 L 467.797 86.3373 
                 L 467.91 86.7671 L 468.172 86.3586 L 468.343 86.5906 L 468.445 86.3474 L 468.588 86.567 
                 L 468.726 86.164 L 468.82 86.6055 L 469.033 86.1285 L 469.159 86.355 L 469.238 86.1394 
                 L 469.4 86.3955 L 469.432 86.1832 L 469.613 86.6117 L 469.841 86.1574 L 469.977 86.6058 
                 L 470.124 86.1455 L 470.26 86.5822 L 470.523 86.3605 L 470.565 86.6118 L 470.695 86.1435 
                 L 470.939 86.5803 L 471.07 86.3493 L 471.177 86.2396 L 471.344 86.9149 L 471.418 86.7049 
                 L 471.479 86.9353 L 471.588 86.9353 L 471.655 86.7301 L 471.825 87.1668 L 471.927 86.9603 
                 L 472.13 87.1972 L 472.536 86.7419 L 472.643 87.1517 L 472.705 86.9447 L 472.814 86.7756 
                 L 472.948 87.7352 L 472.979 87.5821 L 473.155 89.4244 L 473.422 89.0676 L 473.525 89.2392 
                 L 473.664 89.06 L 473.767 89.6212 L 473.869 91.445 L 474.073 91.2907 L 474.585 91.4837 
                 L 474.615 91.6161 L 474.82 93.7772 L 474.856 93.6631 L 474.924 93.5364 L 475.13 93.782 
                 L 475.159 93.6478 L 475.331 93.5216 L 475.398 93.7878 L 475.539 93.645 L 475.606 93.7959 
                 L 475.705 93.6699 L 475.877 93.6276 L 475.977 93.9186 L 476.013 93.6507 L 476.318 93.6632 
                 L 476.39 93.9543 L 476.526 93.8175 L 476.795 93.864 L 476.799 93.7386 L 477.068 93.869 
                 L 477.319 98.4947 L 477.412 98.8818 L 477.651 98.7573 L 477.685 98.8773 L 477.885 98.849 
                 L 478.159 99.0093 L 478.261 98.9177 L 478.432 99.054 L 478.57 98.9573 L 478.737 99.0605 
                 L 479.115 99.196 L 479.248 98.9868 L 479.385 99.1068 L 479.524 99.0114 L 479.765 100.82 
                 L 479.794 102.736 L 480.037 106.44 L 480.888 106.648 L 481.295 106.702 L 481.399 106.619 
                 L 481.498 106.699 L 482.248 106.729 L 482.521 113.523 L 482.792 113.508 L 483.066 113.659 
                 L 483.337 117.587 L 483.44 117.6 L 483.61 117.534 L 484.396 117.771 L 484.701 117.794 
                 L 484.904 120.783 L 485.045 120.739 L 485.487 120.894 L 485.62 120.85 L 485.756 121.618 
                 L 485.892 123.691 L 486.305 123.745 L 486.441 123.719 L 486.54 123.813 L 487.152 123.891 
                 L 487.265 123.873 L 487.401 124.059 L 487.599 131.732 L 488.725 131.877 L 489.025 131.988 
                 L 489.298 134.9 L 489.85 134.902 L 490.114 137.864 L 490.662 137.978 L 491.033 141.902 
                 L 491.205 141.896 L 491.751 142.035 L 492.192 142.109 L 492.398 142.027 L 492.772 142.182 
                 L 492.848 142.107 L 493.155 142.15 L 493.384 142.222 L 493.656 151.044 L 494.001 151.133 
                 L 494.28 151.183 L 495.02 151.2 L 495.361 151.403 L 495.838 151.369 L 496.109 159.173 
                 L 496.361 159.423 L 496.793 159.54 L 497.916 159.608 L 498.473 159.588 L 498.634 164.883 
                 L 498.666 166.06 L 498.939 167.537 L 499.191 167.584 L 500.21 167.78 L 500.415 173.879 
                 L 502.174 174.01 L 502.62 174.012 L 502.823 176.512 L 502.966 182.192 L 503.093 182.197 
                 L 503.607 182.286 L 503.868 186.199 L 504.373 186.295 L 505.663 186.393 L 506.023 186.41 
                 L 506.176 186.41 L 506.363 192.337 L 508.733 192.49 L 508.985 200.5 L 509.28 201.224 
                 L 510.303 201.279 L 511.325 201.3 L 511.67 208.401 L 512.111 208.404 L 512.931 208.441 
                 L 513.204 216.691 L 513.34 217.635 L 514.603 217.66 L 514.842 218.612 L 515.193 218.611 
                 L 515.566 218.615 L 515.941 224.613 L 516.451 224.606 L 516.659 227.439 L 517.274 227.428 
                 L 517.847 227.478 L 518.05 227.452 L 518.322 227.626 L 518.593 233.44 L 518.936 233.455 
                 L 519.18 233.531 L 520.231 233.511 L 520.605 233.51 L 520.778 235.024 L 520.98 239.606 
                 L 521.597 239.56 L 522.113 244.555 L 522.756 244.524 L 523.506 244.554 L 524.053 244.518 
                 L 524.327 253.548 L 524.598 253.687 L 524.941 253.66 L 525.142 256.516 L 525.962 256.535 
                 L 527.598 256.539 L 527.874 265.256 L 528.931 265.327 L 529.236 265.278 L 529.442 270.889 
                 L 529.816 270.927 L 530.325 270.879 L 531.691 270.973 L 531.928 274.622 L 531.962 276.35 
                 L 532.136 279.943 L 533.053 279.869 L 534.386 279.853 L 534.687 286.68 L 535.066 286.709 
                 L 535.234 286.692 L 535.337 288.561 L 536.879 288.522 L 537.142 289.469 L 537.754 289.411 
                 L 537.924 295.526 L 537.958 297.123 L 538.231 298.356 L 538.574 298.354 L 538.744 300.12 
                 L 541.231 300.006 L 541.469 312.976 L 541.504 313.73 L 541.809 313.77 L 542.083 313.748 
                 L 542.32 316.624 L 542.729 316.583 L 543.661 316.519 L 543.888 318.108 L 543.922 318.688 
                 L 544.072 319.456 L 544.682 319.37 L 544.856 322.291 L 545.264 322.272 L 545.898 322.243 
                 L 546.32 322.21 L 546.581 325.053 L 551.5 325.02 L 613.04 121.18 "
          stroke="rgb(55,126,184)" fill="none" stroke-width="0.5"/>
      </g>
    </g>
    <!-- Reference angle vs millis -->
    <g id="Reference_angle_vs_millis">
      <defs>
        <clipPath id="clipPath3">
          <rect x="74.5" y="18.5" width="473" height="343"/>
        </clipPath>
      </defs>
      <g clip-path="url(#clipPath3)">
        <path d="M -3.88334 75.6667 L 73.9409 332.917 L 74.7114 332.917 L 74.7932 335.775 L 75.475 335.775 
                 L 75.7307 332.917 L 76.2437 332.917 L 76.4994 330.058 L 77.2647 330.058 L 77.3482 327.2 
                 L 78.0488 327.2 L 78.2891 324.342 L 78.8141 324.342 L 79.0732 321.483 L 79.8368 321.483 
                 L 79.9254 318.625 L 80.6413 318.625 L 80.776 315.767 L 81.4237 315.767 L 81.6998 312.908 
                 L 82.2436 312.908 L 82.5163 310.05 L 83.06 310.05 L 83.3344 307.192 L 84.1526 307.192 
                 L 84.1867 304.333 L 84.9674 304.333 L 85.0355 301.475 L 85.7872 301.475 L 85.8912 298.617 
                 L 86.6054 298.617 L 86.7435 295.758 L 87.4253 295.758 L 87.6673 292.9 L 88.24 292.9 
                 L 88.5144 290.042 L 89.0599 290.042 L 89.3326 287.183 L 90.1508 287.183 L 90.1849 284.325 
                 L 90.9672 284.325 L 91.0388 281.467 L 91.7871 281.467 L 91.8894 278.608 L 92.6052 278.608 
                 L 92.7399 275.75 L 93.4217 275.75 L 93.6654 272.892 L 94.2416 272.892 L 94.5126 270.033 
                 L 95.0597 270.033 L 95.3325 267.175 L 95.8762 267.175 L 96.1489 264.317 L 96.9688 264.317 
                 L 97.0012 261.458 L 97.7869 261.458 L 97.8517 258.6 L 98.6017 258.6 L 98.704 255.742 
                 L 99.4233 255.742 L 99.5579 252.883 L 100.236 252.883 L 100.478 250.025 L 101.054 250.025 
                 L 101.327 247.167 L 101.871 247.167 L 102.144 244.308 L 102.962 244.308 L 102.996 241.45 
                 L 103.78 241.45 L 103.848 238.592 L 104.6 238.592 L 104.699 235.733 L 105.413 235.733 
                 L 105.551 232.875 L 106.231 232.875 L 106.478 230.017 L 107.049 230.017 L 107.322 227.158 
                 L 107.866 227.158 L 108.138 224.3 L 108.684 224.3 L 108.957 221.442 L 109.753 221.442 
                 L 109.811 218.583 L 110.523 218.583 L 110.659 215.725 L 111.316 215.725 L 111.578 212.867 
                 L 112.125 212.867 L 112.396 210.008 L 113.18 210.008 L 113.225 207.15 L 113.997 207.15 
                 L 114.077 204.292 L 114.813 204.292 L 114.929 201.433 L 115.579 201.433 L 115.838 198.575 
                 L 116.6 198.575 L 116.652 195.717 L 117.37 195.717 L 117.505 192.858 L 118.134 192.858 
                 L 118.393 190 L 119.156 190 L 119.213 187.142 L 119.923 187.142 L 120.058 184.283 L 120.692 184.283 
                 L 120.944 181.425 L 121.715 181.425 L 121.764 178.567 L 122.478 178.567 L 122.715 175.708 
                 L 123.245 175.708 L 123.499 172.85 L 124.27 172.85 L 124.336 169.992 L 125.054 169.992 
                 L 125.189 167.133 L 125.87 167.133 L 126.123 164.275 L 126.634 164.275 L 126.891 161.417 
                 L 127.655 161.417 L 127.745 158.558 L 128.461 158.558 L 128.698 155.7 L 129.223 155.7 
                 L 129.486 152.842 L 130.304 152.842 L 130.312 149.983 L 131.086 149.983 L 131.163 147.125 
                 L 131.903 147.125 L 132.013 144.267 L 132.721 144.267 L 132.867 141.408 L 133.539 141.408 
                 L 133.815 138.55 L 134.359 138.55 L 134.628 135.692 L 135.177 135.692 L 135.448 132.833 
                 L 136.266 132.833 L 136.3 129.975 L 137.083 129.975 L 137.152 127.117 L 137.902 127.117 
                 L 138.003 124.258 L 138.719 124.258 L 138.857 121.4 L 139.539 121.4 L 139.81 118.542 
                 L 140.355 118.542 L 140.628 115.683 L 141.173 115.683 L 141.448 112.825 L 141.992 112.825 
                 L 142.264 109.967 L 143.082 109.967 L 143.117 107.108 L 143.901 107.108 L 143.969 104.25 
                 L 144.719 104.25 L 144.826 101.392 L 145.537 101.392 L 145.781 98.5333 L 146.355 98.5333 
                 L 146.624 95.675 L 147.172 95.675 L 147.444 92.8167 L 147.99 92.8167 L 148.262 89.9583 
                 L 149.077 89.9583 L 149.115 87.1 L 149.895 87.1 L 149.964 84.2417 L 150.714 84.2417 
                 L 150.816 81.3833 L 151.532 81.3833 L 151.666 78.525 L 152.35 78.525 L 152.619 75.6667 
                 L 153.165 75.6667 L 153.437 72.8083 L 153.984 72.8083 L 154.255 75.6667 L 154.801 75.6667 
                 L 155.072 78.525 L 155.892 78.525 L 155.933 81.3833 L 156.707 81.3833 L 156.785 84.2417 
                 L 157.528 84.2417 L 157.636 87.1 L 158.343 87.1 L 158.592 89.9583 L 159.159 89.9583 
                 L 159.432 92.8167 L 159.979 92.8167 L 160.25 95.675 L 161.034 95.675 L 161.07 98.5333 
                 L 161.852 98.5333 L 161.921 101.392 L 162.637 101.392 L 162.769 104.25 L 163.453 104.25 
                 L 163.702 107.108 L 164.235 107.108 L 164.51 109.967 L 165.306 109.967 L 165.326 112.825 
                 L 166.075 112.825 L 166.177 115.683 L 166.842 115.683 L 167.096 118.542 L 167.863 118.542 
                 L 167.895 121.4 L 168.628 121.4 L 168.747 124.258 L 169.397 124.258 L 169.652 127.117 
                 L 170.419 127.117 L 170.452 129.975 L 171.183 129.975 L 171.304 132.833 L 171.95 132.833 
                 L 172.206 135.692 L 172.973 135.692 L 173.022 138.55 L 173.738 138.55 L 173.874 141.408 
                 L 174.508 141.408 L 174.761 144.267 L 175.531 144.267 L 175.581 147.125 L 176.348 147.125 
                 L 176.431 149.983 L 177.111 149.983 L 177.37 152.842 L 177.883 152.842 L 178.156 155.7 
                 L 178.94 155.7 L 179.005 158.558 L 179.757 158.558 L 179.861 161.417 L 180.576 161.417 
                 L 180.713 164.275 L 181.391 164.275 L 181.64 167.133 L 182.213 167.133 L 182.484 169.992 
                 L 183.028 169.992 L 183.304 172.85 L 183.846 172.85 L 184.12 175.708 L 184.937 175.708 
                 L 184.972 178.567 L 185.756 178.567 L 185.825 181.425 L 186.573 181.425 L 186.675 184.283 
                 L 187.393 184.283 L 187.533 187.142 L 188.209 187.142 L 188.484 190 L 189.029 190 L 189.298 192.858 
                 L 189.846 192.858 L 190.117 195.717 L 190.936 195.717 L 190.97 198.575 L 191.753 198.575 
                 L 191.824 201.433 L 192.573 201.433 L 192.675 204.292 L 193.391 204.292 L 193.526 207.15 
                 L 194.207 207.15 L 194.449 210.008 L 195.026 210.008 L 195.298 212.867 L 195.844 212.867 
                 L 196.115 215.725 L 196.66 215.725 L 196.933 218.583 L 197.749 218.583 L 197.783 221.442 
                 L 198.567 221.442 L 198.636 224.3 L 199.386 224.3 L 199.486 227.158 L 200.202 227.158 
                 L 200.344 230.017 L 201.019 230.017 L 201.293 232.875 L 201.838 232.875 L 202.108 235.733 
                 L 202.655 235.733 L 202.926 238.592 L 203.744 238.592 L 203.778 241.45 L 204.561 241.45 
                 L 204.629 244.308 L 205.379 244.308 L 205.483 247.167 L 206.2 247.167 L 206.333 250.025 
                 L 207.013 250.025 L 207.262 252.883 L 207.831 252.883 L 208.104 255.742 L 208.65 255.742 
                 L 208.922 258.6 L 209.466 258.6 L 209.741 261.458 L 210.555 261.458 L 210.603 264.317 
                 L 211.319 264.317 L 211.455 267.175 L 212.089 267.175 L 212.342 270.033 L 213.11 270.033 
                 L 213.158 272.892 L 213.874 272.892 L 214.01 275.75 L 214.646 275.75 L 214.917 278.608 
                 L 215.684 278.608 L 215.734 281.467 L 216.449 281.467 L 216.584 284.325 L 217.218 284.325 
                 L 217.472 287.183 L 218.237 287.183 L 218.292 290.042 L 219.004 290.042 L 219.139 292.9 
                 L 219.772 292.9 L 220.025 295.758 L 220.794 295.758 L 220.842 298.617 L 221.578 298.617 
                 L 221.713 301.475 L 222.361 301.475 L 222.615 304.333 L 223.397 304.333 L 223.417 307.192 
                 L 224.169 307.192 L 224.277 310.05 L 224.951 310.05 L 225.204 312.908 L 225.737 312.908 
                 L 226.012 315.767 L 226.554 315.767 L 226.828 318.625 L 227.645 318.625 L 227.679 321.483 
                 L 228.463 321.483 L 228.533 324.342 L 229.281 324.342 L 229.383 327.2 L 230.099 327.2 
                 L 230.242 330.058 L 230.916 330.058 L 231.19 332.917 L 231.734 332.917 L 232.006 335.775 
                 L 232.552 335.775 L 232.826 332.917 L 233.643 332.917 L 233.677 330.058 L 234.463 330.058 
                 L 234.529 327.2 L 235.281 327.2 L 235.381 324.342 L 236.097 324.342 L 236.234 321.483 
                 L 236.914 321.483 L 237.156 318.625 L 237.732 318.625 L 238.006 315.767 L 238.552 315.767 
                 L 238.823 312.908 L 239.37 312.908 L 239.643 310.05 L 240.461 310.05 L 240.493 307.192 
                 L 241.277 307.192 L 241.347 304.333 L 242.095 304.333 L 242.199 301.475 L 242.912 301.475 
                 L 243.05 298.617 L 243.73 298.617 L 244.001 295.758 L 244.548 295.758 L 244.819 292.9 
                 L 245.365 292.9 L 245.636 290.042 L 246.454 290.042 L 246.488 287.183 L 247.274 287.183 
                 L 247.342 284.325 L 248.09 284.325 L 248.191 281.467 L 248.908 281.467 L 249.045 278.608 
                 L 249.725 278.608 L 249.969 275.75 L 250.543 275.75 L 250.814 272.892 L 251.359 272.892 
                 L 251.632 270.033 L 252.178 270.033 L 252.449 267.175 L 253.268 267.175 L 253.301 264.317 
                 L 254.085 264.317 L 254.162 261.458 L 254.903 261.458 L 255.012 258.6 L 255.697 258.6 
                 L 255.958 255.742 L 256.502 255.742 L 256.775 252.883 L 257.559 252.883 L 257.593 250.025 
                 L 258.375 250.025 L 258.445 247.167 L 259.159 247.167 L 259.294 244.308 L 259.923 244.308 
                 L 260.182 241.45 L 260.966 241.45 L 260.998 238.592 L 261.75 238.592 L 261.851 235.733 
                 L 262.531 235.733 L 262.785 232.875 L 263.296 232.875 L 263.553 230.017 L 264.317 230.017 
                 L 264.407 227.158 L 265.086 227.158 L 265.343 224.3 L 266.108 224.3 L 266.126 221.442 
                 L 266.875 221.442 L 266.978 218.583 L 267.641 218.583 L 267.896 215.725 L 268.664 215.725 
                 L 268.682 212.867 L 269.434 212.867 L 269.533 210.008 L 270.215 210.008 L 270.467 207.15 
                 L 270.978 207.15 L 271.239 204.292 L 272.021 204.292 L 272.105 201.433 L 272.84 201.433 
                 L 272.954 198.575 L 273.637 198.575 L 273.896 195.717 L 274.423 195.717 L 274.68 192.858 
                 L 275.466 192.858 L 275.507 190 L 276.281 190 L 276.385 187.142 L 277.065 187.142 L 277.312 184.283 
                 L 277.885 184.283 L 278.156 181.425 L 278.703 181.425 L 278.976 178.567 L 279.521 178.567 
                 L 279.792 175.708 L 280.612 175.708 L 280.644 172.85 L 281.432 172.85 L 281.498 169.992 
                 L 282.247 169.992 L 282.349 167.133 L 283.067 167.133 L 283.201 164.275 L 283.883 164.275 
                 L 284.127 161.417 L 284.682 161.417 L 284.938 158.558 L 285.736 158.558 L 285.756 155.7 
                 L 286.542 155.7 L 286.614 152.842 L 287.359 152.842 L 287.495 149.983 L 288.177 149.983 
                 L 288.419 147.125 L 288.995 147.125 L 289.268 144.267 L 289.813 144.267 L 290.084 141.408 
                 L 290.629 141.408 L 290.906 138.55 L 291.72 138.55 L 291.758 135.692 L 292.537 135.692 
                 L 292.605 132.833 L 293.353 132.833 L 293.456 129.975 L 294.173 129.975 L 294.308 127.117 
                 L 294.991 127.117 L 295.232 124.258 L 295.809 124.258 L 296.08 121.4 L 296.626 121.4 
                 L 296.899 118.542 L 297.713 118.542 L 297.722 115.683 L 298.532 115.683 L 298.574 112.825 
                 L 299.348 112.825 L 299.425 109.967 L 300.168 109.967 L 300.306 107.108 L 300.984 107.108 
                 L 301.231 104.25 L 301.802 104.25 L 302.075 101.392 L 302.619 101.392 L 302.892 98.5333 
                 L 303.437 98.5333 L 303.71 95.675 L 304.525 95.675 L 304.56 92.8167 L 305.31 92.8167 
                 L 305.411 89.9583 L 306.127 89.9583 L 306.261 87.1 L 306.925 87.1 L 307.184 84.2417 
                 L 307.727 84.2417 L 307.98 81.3833 L 308.75 81.3833 L 308.832 78.525 L 309.514 78.525 
                 L 309.773 75.6667 L 310.282 75.6667 L 310.538 72.8083 L 311.305 72.8083 L 311.389 75.6667 
                 L 312.069 75.6667 L 312.326 78.525 L 312.836 78.525 L 313.093 81.3833 L 313.858 81.3833 
                 L 313.961 84.2417 L 314.627 84.2417 L 314.885 87.1 L 315.65 87.1 L 315.664 89.9583 L 316.414 89.9583 
                 L 316.516 92.8167 L 317.182 92.8167 L 317.435 95.675 L 318.207 95.675 L 318.217 98.5333 
                 L 318.969 98.5333 L 319.069 101.392 L 319.753 101.392 L 320.012 104.25 L 320.557 104.25 
                 L 320.828 107.108 L 321.612 107.108 L 321.651 109.967 L 322.396 109.967 L 322.499 112.825 
                 L 323.22 112.825 L 323.353 115.683 L 324.033 115.683 L 324.281 118.542 L 324.851 118.542 
                 L 325.124 121.4 L 325.669 121.4 L 325.943 124.258 L 326.487 124.258 L 326.758 127.117 
                 L 327.578 127.117 L 327.612 129.975 L 328.396 129.975 L 328.463 132.833 L 329.213 132.833 
                 L 329.322 135.692 L 330.032 135.692 L 330.174 138.55 L 330.849 138.55 L 331.122 141.408 
                 L 331.667 141.408 L 331.94 144.267 L 332.485 144.267 L 332.758 147.125 L 333.578 147.125 
                 L 333.612 149.983 L 334.394 149.983 L 334.463 152.842 L 335.214 152.842 L 335.315 155.7 
                 L 336.031 155.7 L 336.167 158.558 L 336.847 158.558 L 337.091 161.417 L 337.667 161.417 
                 L 337.938 164.275 L 338.485 164.275 L 338.76 167.133 L 339.3 167.133 L 339.573 169.992 
                 L 340.391 169.992 L 340.427 172.85 L 341.207 172.85 L 341.277 175.708 L 342.027 175.708 
                 L 342.133 178.567 L 342.842 178.567 L 343.086 181.425 L 343.662 181.425 L 343.933 184.283 
                 L 344.48 184.283 L 344.749 187.142 L 345.296 187.142 L 345.567 190 L 346.386 190 L 346.418 192.858 
                 L 347.21 192.858 L 347.27 195.717 L 348.02 195.717 L 348.122 198.575 L 348.837 198.575 
                 L 348.973 201.433 L 349.656 201.433 L 349.902 204.292 L 350.449 204.292 L 350.71 207.15 
                 L 351.257 207.15 L 351.528 210.008 L 352.346 210.008 L 352.38 212.867 L 353.164 212.867 
                 L 353.243 215.725 L 353.981 215.725 L 354.093 218.583 L 354.763 218.583 L 355.038 221.442 
                 L 355.583 221.442 L 355.852 224.3 L 356.618 224.3 L 356.652 227.158 L 357.391 227.158 
                 L 357.524 230.017 L 358.17 230.017 L 358.424 232.875 L 359.191 232.875 L 359.226 235.733 
                 L 359.957 235.733 L 360.076 238.592 L 360.726 238.592 L 360.979 241.45 L 361.747 241.45 
                 L 361.779 244.308 L 362.515 244.308 L 362.631 247.167 L 363.277 247.167 L 363.536 250.025 
                 L 364.302 250.025 L 364.36 252.883 L 365.072 252.883 L 365.207 255.742 L 365.853 255.742 
                 L 366.107 258.6 L 366.879 258.6 L 366.909 261.458 L 367.661 261.458 L 367.762 264.317 
                 L 368.478 264.317 L 368.614 267.175 L 369.296 267.175 L 369.546 270.033 L 370.114 270.033 
                 L 370.387 272.892 L 370.932 272.892 L 371.186 275.75 L 371.989 275.75 L 372.033 278.608 
                 L 372.807 278.608 L 372.885 281.467 L 373.625 281.467 L 373.736 284.325 L 374.443 284.325 
                 L 374.689 287.183 L 375.262 287.183 L 375.534 290.042 L 376.078 290.042 L 376.351 292.9 
                 L 376.896 292.9 L 377.171 295.758 L 377.987 295.758 L 378.023 298.617 L 378.841 298.617 
                 L 378.875 301.475 L 379.657 301.475 L 379.727 304.333 L 380.476 304.333 L 380.58 307.192 
                 L 381.294 307.192 L 381.432 310.05 L 382.112 310.05 L 382.354 312.908 L 382.93 312.908 
                 L 383.203 315.767 L 383.748 315.767 L 384.021 318.625 L 384.565 318.625 L 384.841 321.483 
                 L 385.656 321.483 L 385.724 324.342 L 386.472 324.342 L 386.578 327.2 L 387.29 327.2 
                 L 387.428 330.058 L 388.108 330.058 L 388.35 332.917 L 388.928 332.917 L 389.201 335.775 
                 L 389.745 335.775 L 390.016 332.917 L 390.559 332.917 L 390.832 330.058 L 391.652 330.058 
                 L 391.684 327.2 L 392.47 327.2 L 392.537 324.342 L 393.285 324.342 L 393.389 321.483 
                 L 394.103 321.483 L 394.239 318.625 L 394.921 318.625 L 395.167 315.767 L 395.738 315.767 
                 L 396.009 312.908 L 396.808 312.908 L 396.824 310.05 L 397.642 310.05 L 397.744 307.192 
                 L 398.484 307.192 L 398.531 304.333 L 399.167 304.333 L 399.425 301.475 L 399.97 301.475 
                 L 400.234 298.617 L 401.056 298.617 L 401.085 295.758 L 401.869 295.758 L 401.937 292.9 
                 L 402.685 292.9 L 402.793 290.042 L 403.469 290.042 L 403.72 287.183 L 404.253 287.183 
                 L 404.506 284.325 L 405.274 284.325 L 405.341 281.467 L 406.038 281.467 L 406.295 278.608 
                 L 406.807 278.608 L 407.059 275.75 L 407.831 275.75 L 407.913 272.892 L 408.593 272.892 
                 L 408.85 270.033 L 409.36 270.033 L 409.618 267.175 L 410.383 267.175 L 410.468 264.317 
                 L 411.15 264.317 L 411.404 261.458 L 412.173 261.458 L 412.19 258.6 L 412.94 258.6 L 413.04 255.742 
                 L 413.707 255.742 L 413.959 252.883 L 414.731 252.883 L 414.743 250.025 L 415.513 250.025 
                 L 415.595 247.167 L 416.332 247.167 L 416.468 244.308 L 417.15 244.308 L 417.4 241.45 
                 L 417.966 241.45 L 418.241 238.592 L 418.786 238.592 L 419.057 235.733 L 419.608 235.733 
                 L 419.877 232.875 L 420.697 232.875 L 420.729 230.017 L 421.512 230.017 L 421.581 227.158 
                 L 422.331 227.158 L 422.432 224.3 L 423.148 224.3 L 423.283 221.442 L 423.968 221.442 
                 L 424.215 218.583 L 424.784 218.583 L 425.057 215.725 L 425.602 215.725 L 425.875 212.867 
                 L 426.693 212.867 L 426.698 210.008 L 427.511 210.008 L 427.58 207.15 L 428.33 207.15 
                 L 428.432 204.292 L 429.148 204.292 L 429.284 201.433 L 429.966 201.433 L 430.206 198.575 
                 L 430.782 198.575 L 431.055 195.717 L 431.606 195.717 L 431.873 192.858 L 432.42 192.858 
                 L 432.691 190 L 433.511 190 L 433.544 187.142 L 434.329 187.142 L 434.396 184.283 L 435.144 184.283 
                 L 435.246 181.425 L 435.961 181.425 L 436.099 178.567 L 436.779 178.567 L 437.021 175.708 
                 L 437.599 175.708 L 437.87 172.85 L 438.413 172.85 L 438.686 169.992 L 439.504 169.992 
                 L 439.508 167.133 L 440.321 167.133 L 440.391 164.275 L 441.139 164.275 L 441.241 161.417 
                 L 441.957 161.417 L 442.092 158.558 L 442.774 158.558 L 443.019 155.7 L 443.59 155.7 
                 L 443.864 152.842 L 444.406 152.842 L 444.659 149.983 L 445.465 149.983 L 445.497 147.125 
                 L 446.263 147.125 L 446.348 144.267 L 447.065 144.267 L 447.2 141.408 L 447.882 141.408 
                 L 448.131 138.55 L 448.698 138.55 L 448.951 135.692 L 449.757 135.692 L 449.767 132.833 
                 L 450.573 132.833 L 450.619 129.975 L 451.357 129.975 L 451.473 127.117 L 452.119 127.117 
                 L 452.378 124.258 L 453.162 124.258 L 453.174 121.4 L 453.926 121.4 L 454.047 118.542 
                 L 454.695 118.542 L 454.947 115.683 L 455.714 115.683 L 455.752 112.825 L 456.483 112.825 
                 L 456.6 109.967 L 457.25 109.967 L 457.506 107.108 L 458.29 107.108 L 458.303 104.25 
                 L 459.053 104.25 L 459.156 101.392 L 459.82 101.392 L 460.076 98.5333 L 460.843 98.5333 
                 L 460.879 95.675 L 461.61 95.675 L 461.731 92.8167 L 462.411 92.8167 L 462.662 89.9583 
                 L 463.209 89.9583 L 463.468 87.1 L 464.254 87.1 L 464.288 84.2417 L 465.072 84.2417 
                 L 465.14 81.3833 L 465.89 81.3833 L 465.991 78.525 L 466.708 78.525 L 466.843 75.6667 
                 L 467.526 75.6667 L 467.774 72.8083 L 468.343 72.8083 L 468.616 75.6667 L 469.159 75.6667 
                 L 469.432 78.525 L 470.252 78.525 L 470.26 81.3833 L 471.07 81.3833 L 471.136 84.2417 
                 L 471.888 84.2417 L 471.989 87.1 L 472.705 87.1 L 472.843 89.9583 L 473.525 89.9583 
                 L 473.767 92.8167 L 474.343 92.8167 L 474.615 95.675 L 475.159 95.675 L 475.432 98.5333 
                 L 475.977 98.5333 L 476.248 101.392 L 477.068 101.392 L 477.102 104.25 L 477.885 104.25 
                 L 477.955 107.108 L 478.704 107.108 L 478.807 109.967 L 479.523 109.967 L 479.662 112.825 
                 L 480.341 112.825 L 480.583 115.683 L 481.159 115.683 L 481.432 118.542 L 481.975 118.542 
                 L 482.248 121.4 L 483.066 121.4 L 483.099 124.258 L 483.884 124.258 L 483.951 127.117 
                 L 484.701 127.117 L 484.805 129.975 L 485.516 129.975 L 485.652 132.833 L 486.336 132.833 
                 L 486.607 135.692 L 487.152 135.692 L 487.404 138.55 L 487.936 138.55 L 488.209 141.408 
                 L 489.025 141.408 L 489.059 144.267 L 489.842 144.267 L 489.912 147.125 L 490.662 147.125 
                 L 490.762 149.983 L 491.478 149.983 L 491.613 152.842 L 492.295 152.842 L 492.542 155.7 
                 L 493.113 155.7 L 493.384 158.558 L 493.929 158.558 L 494.204 161.417 L 495.02 161.417 
                 L 495.03 164.275 L 495.838 164.275 L 495.882 167.133 L 496.621 167.133 L 496.755 169.992 
                 L 497.384 169.992 L 497.642 172.85 L 498.409 172.85 L 498.468 175.708 L 499.191 175.708 
                 L 499.314 178.567 L 499.972 178.567 L 500.231 181.425 L 500.994 181.425 L 501.081 184.283 
                 L 501.812 184.283 L 501.867 187.142 L 502.583 187.142 L 502.721 190 L 503.348 190 L 503.607 192.858 
                 L 504.378 192.858 L 504.441 195.717 L 505.153 195.717 L 505.29 198.575 L 505.92 198.575 
                 L 506.176 201.433 L 506.943 201.433 L 506.992 204.292 L 507.71 204.292 L 507.846 207.15 
                 L 508.475 207.15 L 508.733 210.008 L 509.498 210.008 L 509.551 212.867 L 510.303 212.867 
                 L 510.403 215.725 L 511.087 215.725 L 511.339 218.583 L 511.872 218.583 L 512.125 221.442 
                 L 512.931 221.442 L 512.974 224.3 L 513.751 224.3 L 513.828 227.158 L 514.567 227.158 
                 L 514.68 230.017 L 515.385 230.017 L 515.634 232.875 L 516.205 232.875 L 516.478 235.733 
                 L 517.248 235.733 L 517.274 238.592 L 518.05 238.592 L 518.118 241.45 L 518.868 241.45 
                 L 518.97 244.308 L 519.686 244.308 L 519.821 247.167 L 520.507 247.167 L 520.748 250.025 
                 L 521.322 250.025 L 521.597 252.883 L 522.14 252.883 L 522.415 255.742 L 522.96 255.742 
                 L 523.231 258.6 L 524.053 258.6 L 524.087 261.458 L 524.869 261.458 L 524.939 264.317 
                 L 525.689 264.317 L 525.795 267.175 L 526.509 267.175 L 526.749 270.033 L 527.327 270.033 
                 L 527.598 272.892 L 528.145 272.892 L 528.418 275.75 L 528.964 275.75 L 529.236 278.608 
                 L 530.053 278.608 L 530.088 281.467 L 530.871 281.467 L 530.941 284.325 L 531.691 284.325 
                 L 531.791 287.183 L 532.507 287.183 L 532.644 290.042 L 533.324 290.042 L 533.566 292.9 
                 L 534.142 292.9 L 534.415 295.758 L 534.963 295.758 L 535.234 298.617 L 535.778 298.617 
                 L 536.051 301.475 L 536.867 301.475 L 536.912 304.333 L 537.689 304.333 L 537.762 307.192 
                 L 538.505 307.192 L 538.64 310.05 L 539.322 310.05 L 539.567 312.908 L 540.142 312.908 
                 L 540.411 315.767 L 540.956 315.767 L 541.231 318.625 L 541.776 318.625 L 542.056 321.483 
                 L 542.865 321.483 L 542.9 324.342 L 543.661 324.342 L 543.753 327.2 L 544.468 327.2 
                 L 544.602 330.058 L 545.264 330.058 L 545.524 332.917 L 546.068 332.917 L 546.32 335.775 
                 L 547.105 335.775 L 547.173 332.917 L 547.887 332.917 L 548.023 330.058 L 613.04 112.825 "
          stroke="rgb(255,127,0)" fill="none" stroke-width="0.5"/>
      </g>
    </g>
    <!-- Legend -->
    <g id="Legend">
      <rect x="338.5" y="26.5" width="200" height="32.4" stroke="black" fill="none" stroke-width="0.5"/>
      <defs>
        <clipPath id="clipPath4">
          <rect x="338.5" y="26.5" width="200" height="32.4"/>
        </clipPath>
      </defs>
      <g clip-path="url(#clipPath4)">
        <path d="M 343.5 35.5 L 357.5 35.5 "
          stroke="rgb(55,126,184)" fill="none" stroke-width="0.5"/>
        <g font-family="Helvetica" font-size="12" fill="black">
          <text x="362.5" y="39.8037">Measured angle vs millis</text>
        </g>
        <path d="M 343.5 49.5 L 357.5 49.5 "
          stroke="rgb(255,127,0)" fill="none" stroke-width="0.5"/>
        <g font-family="Helvetica" font-size="12" fill="black">
          <text x="362.5" y="54.2037">Reference angle vs millis</text>
        </g>
      </g>
    </g>
  </g>
  <!-- Foreground -->
  <g id="Foreground">
    <!-- Y Axis -->
    <g id="Y_Axis">
      <g transform="translate(14.0188,190) rotate(-90) translate(-14.0188,-190)" font-family="Helvetica" font-size="12" fill="black">
        <text x="-17.0008" y="190">Angle (deg)</text>
      </g>
      <!-- Y Labels -->
      <g id="Y_Labels">
        <g font-family="Helvetica" font-size="12" fill="black">
          <text x="50.7523" y="365.804">80</text>
        </g>
        <g font-family="Helvetica" font-size="12" fill="black">
          <text x="50.7523" y="337.22">90</text>
        </g>
        <g font-family="Helvetica" font-size="12" fill="black">
          <text x="44.0785" y="308.637">100</text>
        </g>
        <g font-family="Helvetica" font-size="12" fill="black">
          <text x="44.9633" y="280.054">110</text>
        </g>
        <g font-family="Helvetica" font-size="12" fill="black">
          <text x="44.0785" y="251.47">120</text>
        </g>
        <g font-family="Helvetica" font-size="12" fill="black">
          <text x="44.0785" y="222.887">130</text>
        </g>
        <g font-family="Helvetica" font-size="12" fill="black">
          <text x="44.0785" y="194.304">140</text>
        </g>
        <g font-family="Helvetica" font-size="12" fill="black">
          <text x="44.0785" y="165.72">150</text>
        </g>
        <g font-family="Helvetica" font-size="12" fill="black">
          <text x="44.0785" y="137.137">160</text>
        </g>
        <g font-family="Helvetica" font-size="12" fill="black">
          <text x="44.0785" y="108.554">170</text>
        </g>
        <g font-family="Helvetica" font-size="12" fill="black">
          <text x="44.0785" y="79.9704">180</text>
        </g>
        <g font-family="Helvetica" font-size="12" fill="black">
          <text x="44.0785" y="51.387">190</text>
        </g>
        <g font-family="Helvetica" font-size="12" fill="black">
          <text x="44.0785" y="22.8037">200</text>
        </g>
      </g>
      <path d="M 66.5 361.5 L 74.5 361.5 M 70.5 347.208 L 74.5 347.208 M 66.5 332.917 L 74.5 332.917 
               M 70.5 318.625 L 74.5 318.625 M 66.5 304.333 L 74.5 304.333 M 70.5 290.042 L 74.5 290.042 
               M 66.5 275.75 L 74.5 275.75 M 70.5 261.458 L 74.5 261.458 M 66.5 247.167 L 74.5 247.167 
               M 70.5 232.875 L 74.5 232.875 M 66.5 218.583 L 74.5 218.583 M 70.5 204.292 L 74.5 204.292 
               M 66.5 190 L 74.5 190 M 70.5 175.708 L 74.5 175.708 M 66.5 161.417 L 74.5 161.417 M 70.5 147.125 L 74.5 147.125 
               M 66.5 132.833 L 74.5 132.833 M 70.5 118.542 L 74.5 118.542 M 66.5 104.25 L 74.5 104.25 
               M 70.5 89.9583 L 74.5 89.9583 M 66.5 75.6667 L 74.5 75.6667 M 70.5 61.375 L 74.5 61.375 
               M 66.5 47.0833 L 74.5 47.0833 M 70.5 32.7917 L 74.5 32.7917 M 66.5 18.5 L 74.5 18.5 "
        stroke="black" fill="none" stroke-width="0.5"/>
    </g>
    <!-- X Axis -->
    <g id="X_Axis">
      <g font-family="Helvetica" font-size="12" fill="black">
        <text x="284.226" y="399">Time (ms)</text>
      </g>
      <g>
        <g font-family="Helvetica" font-size="12" fill="black">
          <text x="141.492" y="380.69">110</text>
          <text x="168.521" y="375.356" font-size="9">5</text>
        </g>
        <g font-family="Helvetica" font-size="12" fill="black">
          <text x="311.942" y="380.69">210</text>
          <text x="338.972" y="375.356" font-size="9">5</text>
        </g>
        <g font-family="Helvetica" font-size="12" fill="black">
          <text x="482.393" y="380.69">310</text>
          <text x="509.422" y="375.356" font-size="9">5</text>
        </g>
      </g>
      <path d="M 157.509 369.5 L 157.509 361.5 M 327.96 369.5 L 327.96 361.5 M 498.41 369.5 L 498.41 361.5 
               M 89.3292 365.5 L 89.3292 361.5 M 106.374 365.5 L 106.374 361.5 M 123.419 365.5 L 123.419 361.5 
               M 140.464 365.5 L 140.464 361.5 M 174.554 365.5 L 174.554 361.5 M 191.599 365.5 L 191.599 361.5 
               M 208.645 365.5 L 208.645 361.5 M 225.69 365.5 L 225.69 361.5 M 242.735 365.5 L 242.735 361.5 
               M 259.78 365.5 L 259.78 361.5 M 276.825 365.5 L 276.825 361.5 M 293.87 365.5 L 293.87 361.5 
               M 310.915 365.5 L 310.915 361.5 M 345.005 365.5 L 345.005 361.5 M 362.05 365.5 L 362.05 361.5 
               M 379.095 365.5 L 379.095 361.5 M 396.14 365.5 L 396.14 361.5 M 413.185 365.5 L 413.185 361.5 
               M 430.23 365.5 L 430.23 361.5 M 447.275 365.5 L 447.275 361.5 M 464.32 365.5 L 464.32 361.5 
               M 481.365 365.5 L 481.365 361.5 M 515.455 365.5 L 515.455 361.5 M 532.5 365.5 L 532.5 361.5 "
        stroke="black" fill="none" stroke-width="0.5"/>
    </g>
    <g font-family="Helvetica" font-size="12" fill="black">
      <text x="232.232" y="14.0188">measurement of angles (2/s)</text>
    </g>
    <path d="M 547.5 361.5 L 547.5 18.5 L 74.5 18.5 L 74.5 361.5 L 547.5 361.5 z "
      stroke="black" stroke-linecap="square" fill="none" stroke-width="0.5"/>
  </g>
</g>
</svg>
