<?xml version="1.0" encoding="utf-8" standalone="no"?>
<!-- Generator: DataGraph - https://www.visualdatatools.com/DataGraph/index.html  --><!DOCTYPE svg PUBLIC "-//W3C//DTD SVG 1.1//EN" "http://www.w3.org/Graphics/SVG/1.1/DTD/svg11.dtd">
<svg width="563" height="406" version="1.1" xmlns="http://www.w3.org/2000/svg" xmlns:xlink="http://www.w3.org/1999/xlink">
<g>
  <!-- Background -->
  <g id="Background">
    <defs>
      <clipPath id="clipPath">
        <rect x="74.5" y="18.5" width="473" height="343"/>
      </clipPath>
    </defs>
    <!-- Grid -->
    <g id="Grid" clip-path="url(#clipPath)">
      <path d="M 74.5 332.917 L 547.5 332.917 M 74.5 304.333 L 547.5 304.333 M 74.5 275.75 L 547.5 275.75 
               M 74.5 247.167 L 547.5 247.167 M 74.5 218.583 L 547.5 218.583 M 74.5 190 L 547.5 190 M 74.5 161.417 L 547.5 161.417 
               M 74.5 132.833 L 547.5 132.833 M 74.5 104.25 L 547.5 104.25 M 74.5 75.6667 L 547.5 75.6667 
               M 74.5 47.0833 L 547.5 47.0833 "
        stroke="black" stroke-dasharray="0.00997506,3.99002" stroke-linecap="round" fill="none" stroke-width="0.5"/>
    </g>
  </g>
  <!-- Commands -->
  <g id="Commands">
    <!-- Measured angle vs millis -->
    <g id="Measured_angle_vs_millis">
      <defs>
        <clipPath id="clipPath2">
          <rect x="74.5" y="18.5" width="473" height="343"/>
        </clipPath>
      </defs>
      <g clip-path="url(#clipPath2)">
        <path d="M -12.5895 80.6633 L 68.5555 328.344 L 83.161 328.42 L 86.357 328.458 L 97.8304 328.499 
                 L 97.9582 328.529 L 100.387 328.527 L 101.154 328.042 L 101.666 323.462 L 101.793 323.478 
                 L 103.072 304.492 L 104.286 279.64 L 104.893 266.234 L 105.021 266.243 L 105.501 252.565 
                 L 105.66 252.563 L 106.236 238.097 L 106.811 223.726 L 107.45 209.395 L 108.025 195.108 
                 L 108.185 195.136 L 109.368 165.961 L 111.861 109.472 L 112.02 109.437 L 112.532 97.4475 
                 L 113.171 88.4472 L 113.299 88.4472 L 113.81 84.0436 L 113.938 84.201 L 114.545 81.9534 
                 L 115.216 81.4616 L 117.677 81.0973 L 117.741 80.9341 L 118.412 81.369 L 118.956 80.8344 
                 L 119.051 81.2583 L 119.563 81.2155 L 119.659 80.6176 L 120.33 81.0781 L 120.809 81.0905 
                 L 120.937 81.4957 L 122.247 81.2405 L 123.558 81.1979 L 124.133 80.53 L 124.804 80.986 
                 L 125.348 80.9989 L 125.443 81.3431 L 126.019 81.3555 L 126.051 80.8465 L 126.626 80.8006 
                 L 126.69 81.2253 L 127.329 81.225 L 127.968 80.646 L 128.639 81.0922 L 129.215 80.4818 
                 L 129.79 80.9416 L 129.95 81.3566 L 130.525 81.3032 L 131.835 81.1526 L 132.443 81.0964 
                 L 133.018 80.6646 L 133.114 81.0082 L 133.753 81.427 L 134.264 81.427 L 134.36 80.9468 
                 L 135.543 80.9613 L 135.638 81.2871 L 136.31 81.2328 L 136.789 80.8124 L 136.917 81.1465 
                 L 137.46 81.4847 L 137.588 81.4201 L 138.067 81.4201 L 138.195 81.0103 L 138.739 80.9664 
                 L 138.834 81.3794 L 139.346 81.4332 L 139.985 80.8034 L 140.145 80.8034 L 140.752 81.2374 
                 L 141.263 81.2374 L 141.391 81.0787 L 142.062 80.646 L 142.542 81.1491 L 143.309 81.0802 
                 L 143.98 81.0025 L 144.459 81.0169 L 144.619 81.3392 L 146.409 81.2859 L 146.537 81.5945 
                 L 148.294 81.6069 L 148.422 81.4586 L 149.701 81.3933 L 150.34 80.9872 L 150.851 81.4061 
                 L 150.979 81.34 L 151.65 81.1776 L 152.098 80.7534 L 152.289 80.7534 L 152.769 81.1918 
                 L 152.929 81.0321 L 153.408 81.0321 L 153.568 81.44 L 154.143 81.44 L 154.846 80.9658 
                 L 155.294 81.388 L 155.485 81.3004 L 156.124 81.3004 L 156.732 80.8143 L 157.243 81.2474 
                 L 157.371 81.1582 L 158.553 81.1582 L 158.649 81.4927 L 159.288 81.4073 L 159.96 81.0016 
                 L 160.439 81.4209 L 160.567 81.7426 L 161.046 81.7426 L 161.206 81.2694 L 161.685 81.2694 
                 L 161.845 81.5977 L 162.964 81.6106 L 163.124 81.4633 L 165.073 81.3981 L 165.648 80.8987 
                 L 166.32 81.3254 L 166.799 81.2505 L 166.927 81.5796 L 168.269 81.4957 L 168.876 81.0049 
                 L 169.356 81.4237 L 169.484 81.3586 L 170.794 81.2144 L 171.273 81.2908 L 171.433 81.6206 
                 L 172.04 81.5481 L 172.679 81.5381 L 173.351 81.4538 L 173.99 81.0521 L 174.469 81.4677 
                 L 174.629 81.4006 L 176.355 81.3123 L 176.579 81.1567 L 177.026 81.3078 L 177.186 81.6993 
                 L 177.665 84.9887 L 177.825 85.0253 L 178.304 92.4254 L 178.496 92.3344 L 178.975 101.617 
                 L 179.103 101.665 L 179.583 113.088 L 179.743 113.115 L 180.222 125.443 L 180.382 125.456 
                 L 180.829 137.84 L 181.053 137.885 L 181.5 150.848 L 181.628 150.839 L 182.139 164.62 
                 L 182.363 164.62 L 182.779 178.863 L 182.97 178.863 L 183.418 192.656 L 183.578 192.65 
                 L 184.057 206.245 L 184.217 206.245 L 184.696 220.515 L 184.824 220.506 L 185.303 235.04 
                 L 185.463 235.033 L 185.943 249.775 L 186.166 249.773 L 186.614 264.325 L 186.774 264.314 
                 L 187.253 279.122 L 187.381 279.124 L 187.892 293.797 L 188.052 293.794 L 188.531 306.584 
                 L 188.659 306.536 L 189.171 316.373 L 189.33 316.355 L 189.81 322.582 L 189.97 322.546 
                 L 190.449 325.707 L 190.577 325.704 L 191.056 327.4 L 191.216 327.384 L 191.727 327.975 
                 L 195.562 328.149 L 197.001 328.209 L 205.726 328.362 L 207.068 328.366 L 223.207 328.449 
                 L 226.819 328.517 L 242.159 328.617 L 250.053 328.631 L 251.939 328.654 L 252.61 328.519 
                 L 253.026 325.776 L 253.249 325.793 L 253.697 318.976 L 253.888 318.995 L 254.304 309.345 
                 L 254.496 309.36 L 254.975 297.934 L 255.199 297.934 L 255.614 285.389 L 255.742 285.389 
                 L 256.221 272.181 L 256.477 272.183 L 256.861 258.558 L 257.084 258.54 L 257.468 244.787 
                 L 257.724 244.796 L 258.107 230.422 L 258.331 230.422 L 258.778 216.337 L 258.97 216.336 
                 L 259.417 202.043 L 259.609 202.043 L 260.057 187.903 L 260.28 187.937 L 260.664 172.95 
                 L 260.92 172.95 L 261.335 158.692 L 261.527 158.692 L 261.974 144.184 L 262.198 144.175 
                 L 262.581 129.972 L 262.805 129.969 L 263.253 116.373 L 263.508 116.291 L 263.892 103.28 
                 L 264.084 103.33 L 264.499 92.73 L 264.755 92.73 L 265.138 86.4967 L 265.394 86.2745 
                 L 265.809 83.3929 L 266.033 83.3929 L 266.417 82.531 L 266.64 82.8582 L 267.088 82.4457 
                 L 267.311 82.4457 L 267.695 82.7024 L 268.558 82.61 L 269.868 82.5498 L 270.252 82.1731 
                 L 270.475 82.1731 L 271.019 82.4809 L 271.147 82.1367 L 271.53 82.0275 L 271.754 82.3771 
                 L 273.032 82.4209 L 275.589 82.2431 L 277.538 82.286 L 277.89 82.6265 L 278.146 82.6265 
                 L 278.561 82.2956 L 279.2 82.2399 L 279.424 82.1673 L 279.84 82.5296 L 280.063 82.5296 
                 L 280.447 82.194 L 282.652 82.237 L 283.035 82.5806 L 283.259 82.5806 L 283.643 82.247 
                 L 283.898 82.247 L 284.314 82.5906 L 284.538 82.5906 L 284.953 82.2584 L 285.816 82.1918 
                 L 287.094 82.1517 L 287.51 82.4999 L 287.765 82.4999 L 288.149 82.1628 L 288.373 82.1628 
                 L 288.788 82.5102 L 289.012 82.5631 L 289.427 82.2287 L 289.651 81.872 L 290.706 81.8312 
                 L 290.929 82.1339 L 295.404 82.2226 L 295.819 82.5672 L 296.075 82.5672 L 296.426 82.2333 
                 L 299.654 82.244 L 299.91 81.8887 L 300.517 81.8364 L 302.435 81.848 L 302.818 82.2128 
                 L 303.713 82.2128 L 304.097 81.8601 L 305.599 81.8601 L 306.014 82.2236 L 306.27 82.2236 
                 L 306.685 81.8195 L 308.827 81.8195 L 309.466 82.5261 L 310.105 82.5261 L 310.489 82.1906 
                 L 314.963 82.2023 L 315.219 81.8449 L 315.602 82.2092 L 315.858 82.1532 L 316.241 81.7442 
                 L 319.054 81.8231 L 319.437 82.1896 L 320.332 82.1149 L 320.716 81.7571 L 320.971 82.1935 
                 L 322.633 82.1935 L 322.889 81.7749 L 323.912 81.8337 L 324.167 82.1935 L 324.583 82.6026 
                 L 324.806 82.5498 L 325.19 82.1663 L 327.363 82.1663 L 327.715 82.5137 L 328.386 82.5484 
                 L 328.642 82.4955 L 329.025 82.7237 L 329.281 82.3978 L 329.664 85.8113 L 329.92 85.9148 
                 L 330.304 93.7011 L 330.559 93.7302 L 330.943 103.363 L 331.23 103.419 L 331.55 114.495 
                 L 331.838 114.466 L 332.189 126.656 L 332.477 126.656 L 332.86 139.401 L 333.116 139.401 
                 L 333.499 152.535 L 333.755 152.576 L 334.107 166.648 L 334.394 166.612 L 334.746 180.843 
                 L 335.034 180.848 L 335.385 194.449 L 335.673 194.447 L 336.056 208.241 L 336.312 208.235 
                 L 336.663 222.638 L 336.919 222.633 L 337.303 237.067 L 337.59 237.06 L 337.942 251.662 
                 L 338.229 251.684 L 338.613 266.582 L 338.869 266.582 L 339.252 281.189 L 339.508 281.189 
                 L 339.859 295.163 L 340.147 295.143 L 340.499 307.525 L 340.786 307.47 L 341.138 316.999 
                 L 341.425 316.963 L 341.809 322.868 L 342.065 322.85 L 342.416 325.79 L 342.704 325.787 
                 L 343.055 327.219 L 343.407 327.216 L 343.726 327.824 L 345.293 327.912 L 346.89 328.008 
                 L 348.169 328.043 L 349.447 328.091 L 352.324 328.147 L 372.746 328.398 L 393.168 328.494 
                 L 404.066 328.526 L 404.386 328.284 L 404.673 328.299 L 405.025 324.998 L 405.344 325.019 
                 L 405.664 318.047 L 405.984 318.062 L 406.303 308.289 L 406.623 308.289 L 406.91 297.298 
                 L 407.23 297.301 L 407.55 284.939 L 407.965 284.942 L 408.189 271.877 L 408.508 271.856 
                 L 408.828 258.664 L 409.148 258.668 L 409.467 245.459 L 409.787 245.501 L 410.106 231.578 
                 L 410.426 231.602 L 410.745 217.906 L 411.065 217.913 L 411.385 203.827 L 411.704 203.86 
                 L 412.024 189.642 L 412.343 189.672 L 412.663 174.832 L 413.015 174.826 L 413.302 160.427 
                 L 413.622 160.365 L 413.909 146.287 L 414.261 146.259 L 414.581 132.417 L 414.9 132.389 
                 L 415.22 119.406 L 415.539 119.401 L 415.987 106.348 L 416.179 106.373 L 416.498 95.3269 
                 L 416.85 95.3269 L 417.137 88.1189 L 417.457 88.098 L 417.745 84.6656 L 418.128 84.6656 
                 L 418.416 83.4947 L 418.735 83.4947 L 419.023 82.7122 L 419.375 82.7122 L 419.694 82.8575 
                 L 420.685 82.7727 L 421.292 82.6796 L 421.931 82.6479 L 422.251 82.9341 L 423.242 82.9091 
                 L 423.529 82.5996 L 423.977 82.5996 L 424.136 82.8872 L 424.52 82.8872 L 424.808 82.5142 
                 L 425.159 82.4628 L 425.415 82.803 L 425.798 82.803 L 426.086 82.4403 L 426.438 82.4403 
                 L 426.693 82.7817 L 427.045 82.4556 L 427.364 82.465 L 427.652 82.7934 L 427.972 82.4793 
                 L 428.355 82.4793 L 428.643 82.3752 L 430.528 82.4554 L 430.88 82.1094 L 431.519 82.7855 
                 L 432.446 82.7425 L 433.085 82.7035 L 433.501 82.3712 L 433.692 82.3809 L 434.076 82.7128 
                 L 434.364 82.7219 L 434.715 82.3905 L 435.003 82.4002 L 435.354 82.7966 L 435.674 82.6883 
                 L 436.281 82.6978 L 436.633 82.3664 L 436.92 82.3762 L 437.272 82.7072 L 437.911 82.0325 
                 L 438.582 82.7187 L 439.189 82.7265 L 439.509 82.4005 L 439.829 82.3475 L 440.212 82.6856 
                 L 440.468 82.6856 L 440.755 82.2927 L 441.139 82.2927 L 441.395 82.6334 L 443.664 82.7035 
                 L 443.951 82.3769 L 444.591 82.3224 L 444.942 82.2686 L 445.23 82.6579 L 445.581 82.6579 
                 L 445.837 82.3291 L 446.252 82.3291 L 446.476 82.668 L 446.86 82.668 L 447.531 81.9894 
                 L 447.786 82.3451 L 448.17 82.6776 L 448.777 82.6155 L 449.065 82.2848 L 449.448 82.0066 
                 L 450.056 81.9313 L 450.695 82.6769 L 451.014 82.349 L 451.334 82.349 L 451.622 82.6869 
                 L 451.973 82.6869 L 452.612 82.0094 L 452.868 82.3645 L 453.252 82.3645 L 453.539 82.0205 
                 L 454.178 82.7069 L 454.53 82.6392 L 454.818 82.3752 L 456.447 82.3917 L 456.735 82.7278 
                 L 457.087 82.6605 L 457.374 82.3315 L 458.365 82.3315 L 458.653 82.6703 L 459.036 82.6703 
                 L 459.26 82.342 L 460.922 82.3955 L 461.178 82.6853 L 461.817 82.0084 L 462.488 82.6801 
                 L 463.127 82.6339 L 463.734 81.9516 L 464.15 82.2319 L 464.373 82.6231 L 465.013 82.6908 
                 L 465.46 82.6236 L 465.652 82.2934 L 466.706 82.2934 L 466.93 82.6345 L 467.921 82.6345 
                 L 468.209 82.3046 L 469.263 82.2392 L 469.519 82.5827 L 469.87 82.5827 L 470.126 82.2501 
                 L 471.149 82.2518 L 471.405 82.5952 L 471.788 82.5952 L 472.044 82.2635 L 473.066 82.2635 
                 L 473.322 82.6067 L 473.706 82.5382 L 473.961 82.2031 L 474.6 82.2753 L 474.984 82.2753 
                 L 475.24 82.6176 L 475.879 82.5489 L 476.294 82.5489 L 476.518 82.2151 L 476.934 82.5545 
                 L 478.18 82.6061 L 478.468 82.933 L 479.107 82.2814 L 480.737 82.1867 L 480.992 82.7837 
                 L 481.344 83.0994 L 481.632 86.1318 L 482.015 85.97 L 482.271 93.3498 L 482.622 93.4042 
                 L 482.91 102.805 L 483.325 102.766 L 483.549 114.039 L 483.901 114.039 L 484.188 126.238 
                 L 484.572 126.25 L 484.827 138.653 L 485.211 138.653 L 485.499 151.213 L 485.85 151.241 
                 L 486.106 164.684 L 486.457 164.684 L 486.745 178.715 L 487.129 178.688 L 487.384 192.163 
                 L 487.768 192.163 L 488.055 205.505 L 488.439 205.527 L 488.663 219.606 L 489.046 219.575 
                 L 489.302 233.733 L 489.653 233.724 L 489.941 248.189 L 490.356 248.157 L 490.58 262.963 
                 L 490.932 262.965 L 491.219 277.612 L 491.603 277.61 L 491.827 291.897 L 492.21 291.883 
                 L 492.498 304.992 L 492.913 304.952 L 493.105 315.304 L 493.52 315.252 L 493.776 322.13 
                 L 494.16 322.097 L 494.383 325.474 L 494.767 325.489 L 495.055 327.264 L 495.406 327.246 
                 L 495.662 328.081 L 497.995 328.169 L 499.529 328.211 L 505.633 328.303 L 506.911 328.324 
                 L 522.252 328.41 L 524.17 328.468 L 556.768 328.509 L 613.049 82.8234 "
          stroke="rgb(55,126,184)" fill="none" stroke-width="0.5"/>
      </g>
    </g>
    <!-- Reference angle vs millis -->
    <g id="Reference_angle_vs_millis">
      <defs>
        <clipPath id="clipPath3">
          <rect x="74.5" y="18.5" width="473" height="343"/>
        </clipPath>
      </defs>
      <g clip-path="url(#clipPath3)">
        <path d="M -12.5895 75.6667 L 42.956 335.775 L 99.2366 335.775 L 110.742 78.525 L 111.349 72.8083 
                 L 175.14 72.8083 L 186.774 332.917 L 187.253 335.775 L 250.693 335.775 L 251.108 332.917 
                 L 251.3 327.2 L 251.747 318.625 L 251.939 312.908 L 252.61 298.617 L 253.697 275.75 
                 L 253.888 270.033 L 255.614 232.875 L 255.742 227.158 L 256.477 212.867 L 262.805 72.8083 
                 L 326.724 72.8083 L 327.076 75.6667 L 328.002 95.675 L 338.613 332.917 L 338.869 335.775 
                 L 352.324 335.775 L 402.756 335.775 L 403.427 324.342 L 403.714 315.767 L 404.066 310.05 
                 L 404.673 295.758 L 405.664 272.892 L 406.303 261.458 L 406.91 247.167 L 407.23 241.45 
                 L 407.55 232.875 L 407.965 227.158 L 408.189 218.583 L 408.508 212.867 L 408.828 204.292 
                 L 409.148 198.575 L 409.467 190 L 409.787 184.283 L 410.106 175.708 L 410.426 169.992 
                 L 410.745 161.417 L 411.065 155.7 L 411.385 147.125 L 411.704 141.408 L 412.024 132.833 
                 L 412.663 121.4 L 414.261 84.2417 L 414.9 72.8083 L 478.787 72.8083 L 479.107 75.6667 
                 L 480.098 98.5333 L 480.417 104.25 L 481.344 127.117 L 483.549 172.85 L 484.572 195.717 
                 L 490.932 335.775 L 554.851 335.775 L 613.049 72.8083 "
          stroke="rgb(255,127,0)" fill="none" stroke-width="0.5"/>
      </g>
    </g>
    <!-- Legend -->
    <g id="Legend">
      <rect x="338.5" y="26.5" width="200" height="32.4" stroke="black" fill="none" stroke-width="0.5"/>
      <defs>
        <clipPath id="clipPath4">
          <rect x="338.5" y="26.5" width="200" height="32.4"/>
        </clipPath>
      </defs>
      <g clip-path="url(#clipPath4)">
        <path d="M 343.5 35.5 L 357.5 35.5 "
          stroke="rgb(55,126,184)" fill="none" stroke-width="0.5"/>
        <g font-family="Helvetica" font-size="12" fill="black">
          <text x="362.5" y="39.8037">Measured angle vs millis</text>
        </g>
        <path d="M 343.5 49.5 L 357.5 49.5 "
          stroke="rgb(255,127,0)" fill="none" stroke-width="0.5"/>
        <g font-family="Helvetica" font-size="12" fill="black">
          <text x="362.5" y="54.2037">Reference angle vs millis</text>
        </g>
      </g>
    </g>
  </g>
  <!-- Foreground -->
  <g id="Foreground">
    <!-- Y Axis -->
    <g id="Y_Axis">
      <g transform="translate(14.0188,190) rotate(-90) translate(-14.0188,-190)" font-family="Helvetica" font-size="12" fill="black">
        <text x="-17.0008" y="190">Angle (deg)</text>
      </g>
      <!-- Y Labels -->
      <g id="Y_Labels">
        <g font-family="Helvetica" font-size="12" fill="black">
          <text x="50.7523" y="365.804">80</text>
        </g>
        <g font-family="Helvetica" font-size="12" fill="black">
          <text x="50.7523" y="337.22">90</text>
        </g>
        <g font-family="Helvetica" font-size="12" fill="black">
          <text x="44.0785" y="308.637">100</text>
        </g>
        <g font-family="Helvetica" font-size="12" fill="black">
          <text x="44.9633" y="280.054">110</text>
        </g>
        <g font-family="Helvetica" font-size="12" fill="black">
          <text x="44.0785" y="251.47">120</text>
        </g>
        <g font-family="Helvetica" font-size="12" fill="black">
          <text x="44.0785" y="222.887">130</text>
        </g>
        <g font-family="Helvetica" font-size="12" fill="black">
          <text x="44.0785" y="194.304">140</text>
        </g>
        <g font-family="Helvetica" font-size="12" fill="black">
          <text x="44.0785" y="165.72">150</text>
        </g>
        <g font-family="Helvetica" font-size="12" fill="black">
          <text x="44.0785" y="137.137">160</text>
        </g>
        <g font-family="Helvetica" font-size="12" fill="black">
          <text x="44.0785" y="108.554">170</text>
        </g>
        <g font-family="Helvetica" font-size="12" fill="black">
          <text x="44.0785" y="79.9704">180</text>
        </g>
        <g font-family="Helvetica" font-size="12" fill="black">
          <text x="44.0785" y="51.387">190</text>
        </g>
        <g font-family="Helvetica" font-size="12" fill="black">
          <text x="44.0785" y="22.8037">200</text>
        </g>
      </g>
      <path d="M 66.5 361.5 L 74.5 361.5 M 70.5 347.208 L 74.5 347.208 M 66.5 332.917 L 74.5 332.917 
               M 70.5 318.625 L 74.5 318.625 M 66.5 304.333 L 74.5 304.333 M 70.5 290.042 L 74.5 290.042 
               M 66.5 275.75 L 74.5 275.75 M 70.5 261.458 L 74.5 261.458 M 66.5 247.167 L 74.5 247.167 
               M 70.5 232.875 L 74.5 232.875 M 66.5 218.583 L 74.5 218.583 M 70.5 204.292 L 74.5 204.292 
               M 66.5 190 L 74.5 190 M 70.5 175.708 L 74.5 175.708 M 66.5 161.417 L 74.5 161.417 M 70.5 147.125 L 74.5 147.125 
               M 66.5 132.833 L 74.5 132.833 M 70.5 118.542 L 74.5 118.542 M 66.5 104.25 L 74.5 104.25 
               M 70.5 89.9583 L 74.5 89.9583 M 66.5 75.6667 L 74.5 75.6667 M 70.5 61.375 L 74.5 61.375 
               M 66.5 47.0833 L 74.5 47.0833 M 70.5 32.7917 L 74.5 32.7917 M 66.5 18.5 L 74.5 18.5 "
        stroke="black" fill="none" stroke-width="0.5"/>
    </g>
    <!-- X Axis -->
    <g id="X_Axis">
      <g font-family="Helvetica" font-size="12" fill="black">
        <text x="284.226" y="399">Time (ms)</text>
      </g>
      <g>
        <g font-family="Helvetica" font-size="12" fill="black">
          <text x="89.0667" y="380.69">10,000</text>
        </g>
        <g font-family="Helvetica" font-size="12" fill="black">
          <text x="248.864" y="380.69">15,000</text>
        </g>
        <g font-family="Helvetica" font-size="12" fill="black">
          <text x="408.661" y="380.69">20,000</text>
        </g>
      </g>
      <path d="M 107.418 369.5 L 107.418 361.5 M 267.216 369.5 L 267.216 361.5 M 427.013 369.5 L 427.013 361.5 
               M 75.4588 365.5 L 75.4588 361.5 M 139.378 365.5 L 139.378 361.5 M 171.337 365.5 L 171.337 361.5 
               M 203.297 365.5 L 203.297 361.5 M 235.256 365.5 L 235.256 361.5 M 299.175 365.5 L 299.175 361.5 
               M 331.134 365.5 L 331.134 361.5 M 363.094 365.5 L 363.094 361.5 M 395.053 365.5 L 395.053 361.5 
               M 458.972 365.5 L 458.972 361.5 M 490.932 365.5 L 490.932 361.5 M 522.891 365.5 L 522.891 361.5 "
        stroke="black" fill="none" stroke-width="0.5"/>
    </g>
    <g font-family="Helvetica" font-size="12" fill="black">
      <text x="205.273" y="14.0188">
        measurement of angles (highest speed)
      </text>
    </g>
    <path d="M 547.5 361.5 L 547.5 18.5 L 74.5 18.5 L 74.5 361.5 L 547.5 361.5 z "
      stroke="black" stroke-linecap="square" fill="none" stroke-width="0.5"/>
  </g>
</g>
</svg>
