<?xml version="1.0" encoding="utf-8" standalone="no"?>
<!-- Generator: DataGraph - https://www.visualdatatools.com/DataGraph/index.html  --><!DOCTYPE svg PUBLIC "-//W3C//DTD SVG 1.1//EN" "http://www.w3.org/Graphics/SVG/1.1/DTD/svg11.dtd">
<svg width="563" height="406" version="1.1" xmlns="http://www.w3.org/2000/svg" xmlns:xlink="http://www.w3.org/1999/xlink">
<g>
  <!-- Background -->
  <g id="Background">
    <defs>
      <clipPath id="clipPath">
        <rect x="74.5" y="18.5" width="473" height="343"/>
      </clipPath>
    </defs>
    <!-- Grid -->
    <g id="Grid" clip-path="url(#clipPath)">
      <path d="M 74.5 332.917 L 547.5 332.917 M 74.5 304.333 L 547.5 304.333 M 74.5 275.75 L 547.5 275.75 
               M 74.5 247.167 L 547.5 247.167 M 74.5 218.583 L 547.5 218.583 M 74.5 190 L 547.5 190 M 74.5 161.417 L 547.5 161.417 
               M 74.5 132.833 L 547.5 132.833 M 74.5 104.25 L 547.5 104.25 M 74.5 75.6667 L 547.5 75.6667 
               M 74.5 47.0833 L 547.5 47.0833 "
        stroke="black" stroke-dasharray="0.00997506,3.99002" stroke-linecap="round" fill="none" stroke-width="0.5"/>
    </g>
  </g>
  <!-- Commands -->
  <g id="Commands">
    <!-- Measured angle vs millis -->
    <g id="Measured_angle_vs_millis">
      <defs>
        <clipPath id="clipPath2">
          <rect x="74.5" y="18.5" width="473" height="343"/>
        </clipPath>
      </defs>
      <g clip-path="url(#clipPath2)">
        <path d="M -50.3536 243.063 L 73.8857 303.532 L 74.9607 303.446 L 75.4214 309.385 L 76.4964 309.378 
                 L 76.9571 314.806 L 78.0321 314.831 L 78.4929 317.895 L 79.4911 317.949 L 80.0286 318.609 
                 L 81.5643 318.627 L 82.6393 318.711 L 83.1 318.082 L 84.0982 318.185 L 84.7125 315.984 
                 L 85.7107 315.938 L 86.1714 312.697 L 87.1696 312.682 L 87.7071 308.373 L 88.7821 308.37 
                 L 89.3196 303.725 L 90.3179 303.749 L 90.8554 298.263 L 91.7768 298.25 L 92.3143 292.399 
                 L 93.3893 292.406 L 93.85 287.244 L 94.8482 287.244 L 95.3857 282.536 L 96.3839 282.548 
                 L 96.9214 276.721 L 97.9964 276.721 L 98.4571 271.369 L 99.4554 271.348 L 99.9929 266.058 
                 L 101.145 266.058 L 101.529 261.345 L 102.527 261.358 L 103.064 256.532 L 104.139 256.516 
                 L 104.6 251.613 L 105.598 251.613 L 106.136 246.136 L 107.211 246.136 L 107.671 240.524 
                 L 108.746 240.502 L 109.207 235.272 L 110.282 235.306 L 110.666 230.8 L 111.741 230.784 
                 L 112.279 226.031 L 113.277 226.031 L 113.737 221.116 L 114.889 221.099 L 115.35 215.229 
                 L 116.348 215.246 L 116.809 209.406 L 117.884 209.406 L 118.421 204.527 L 119.42 204.527 
                 L 119.88 200.16 L 121.032 200.16 L 121.416 195.343 L 122.568 195.32 L 122.952 190.376 
                 L 124.027 190.376 L 124.564 184.908 L 125.562 184.931 L 126.177 179.217 L 127.098 179.222 
                 L 127.636 174.01 L 128.711 173.988 L 129.171 168.636 L 130.17 168.636 L 130.63 163.572 
                 L 131.705 163.574 L 132.166 159.068 L 133.241 159.098 L 133.779 154.437 L 134.777 154.405 
                 L 135.314 149.375 L 136.389 149.375 L 136.773 143.712 L 137.848 143.717 L 138.309 138.139 
                 L 139.461 138.139 L 139.845 133.018 L 140.92 133.003 L 141.38 128.625 L 142.686 128.653 
                 L 142.993 124.175 L 143.991 124.156 L 144.529 118.822 L 145.527 118.873 L 145.987 113.766 
                 L 147.139 113.718 L 147.523 109.505 L 148.598 109.505 L 149.059 105.522 L 150.211 105.522 
                 L 150.595 100.842 L 151.67 100.842 L 152.13 95.9874 L 153.359 95.9039 L 153.666 90.8051 
                 L 154.741 90.8051 L 155.202 86.3364 L 156.277 86.4959 L 156.814 83.5598 L 157.889 83.7842 
                 L 158.35 82.6978 L 159.425 82.4398 L 159.809 82.7486 L 160.961 82.5478 L 161.345 82.9226 
                 L 162.496 83.1656 L 162.88 85.534 L 164.109 85.534 L 164.493 89.3255 L 165.568 89.3255 
                 L 165.952 93.3825 L 167.104 93.31 L 167.564 97.3333 L 168.562 97.412 L 169.023 101.342 
                 L 170.175 101.342 L 170.559 105.244 L 171.634 105.244 L 172.171 110.098 L 173.17 110.098 
                 L 173.554 114.954 L 174.705 114.954 L 175.243 120.087 L 176.241 120.094 L 176.779 124.155 
                 L 177.777 124.115 L 178.237 128.263 L 179.312 128.263 L 179.773 133.108 L 180.848 133.108 
                 L 181.309 138.021 L 182.384 138.009 L 182.921 142.092 L 183.996 142.092 L 184.38 146.248 
                 L 185.532 146.277 L 185.916 150.727 L 186.991 150.736 L 187.452 156.519 L 188.527 156.519 
                 L 188.987 162.112 L 190.062 162.106 L 190.523 167.373 L 191.598 167.377 L 191.982 172.682 
                 L 193.134 172.682 L 193.518 177.682 L 194.746 177.657 L 195.13 182.557 L 196.205 182.561 
                 L 196.666 187.658 L 197.818 187.676 L 198.279 192.105 L 199.277 192.105 L 199.737 196.76 
                 L 200.889 196.76 L 201.273 201.957 L 202.425 201.959 L 203.039 207.381 L 203.961 207.381 
                 L 204.421 213.231 L 205.496 213.231 L 205.88 218.261 L 206.955 218.244 L 207.416 223.211 
                 L 208.568 223.23 L 208.952 228.393 L 210.027 228.393 L 210.487 234.084 L 211.562 234.065 
                 L 212.023 239.369 L 213.098 239.369 L 213.559 244.169 L 214.711 244.173 L 215.095 249.02 
                 L 216.246 249.037 L 216.63 254.598 L 217.705 254.598 L 218.089 260.087 L 219.241 260.065 
                 L 219.702 265.817 L 220.854 265.839 L 221.237 270.256 L 222.312 270.256 L 222.696 274.727 
                 L 223.925 274.727 L 224.232 279.871 L 225.461 279.834 L 225.768 284.971 L 226.92 284.931 
                 L 227.304 289.976 L 228.532 289.958 L 228.916 294.775 L 229.991 294.746 L 230.375 300.237 
                 L 231.527 300.208 L 231.911 306.131 L 233.062 306.043 L 233.446 311.508 L 234.598 311.545 
                 L 234.982 315.47 L 236.057 315.471 L 236.518 317.831 L 237.67 317.892 L 237.977 318.292 
                 L 240.741 318.382 L 241.202 317.615 L 242.354 317.696 L 242.737 315.516 L 243.812 315.446 
                 L 244.196 311.509 L 245.348 311.502 L 245.732 307.325 L 246.884 307.343 L 247.268 302.321 
                 L 248.496 302.321 L 248.804 297.094 L 249.955 297.094 L 250.339 291.88 L 251.491 291.891 
                 L 251.875 287.007 L 253.027 287.015 L 253.411 281.884 L 254.486 281.884 L 254.87 276.3 
                 L 256.098 276.3 L 256.482 270.642 L 257.634 270.62 L 258.018 265.066 L 259.17 265.079 
                 L 259.707 259.955 L 260.859 259.955 L 261.166 254.738 L 262.241 254.743 L 262.625 249.483 
                 L 263.777 249.488 L 264.161 244.376 L 265.312 244.391 L 265.62 239.296 L 266.848 239.274 
                 L 267.232 234.124 L 268.384 234.139 L 268.691 229.106 L 269.996 229.112 L 270.38 224.229 
                 L 271.532 224.205 L 271.839 219.381 L 272.991 219.381 L 273.375 214.098 L 274.527 214.098 
                 L 274.911 208.929 L 276.062 208.929 L 276.446 203.704 L 277.521 203.705 L 277.905 198.714 
                 L 279.134 198.719 L 279.441 194.15 L 280.746 194.148 L 281.054 189.454 L 282.282 189.477 
                 L 282.512 183.764 L 283.741 183.764 L 284.048 178.47 L 285.277 178.47 L 285.661 173.201 
                 L 286.812 173.201 L 287.12 168.026 L 288.348 168.009 L 288.809 163.467 L 289.884 163.467 
                 L 290.268 159.411 L 291.42 159.405 L 291.804 154.332 L 292.955 154.316 L 293.339 149.094 
                 L 294.491 149.094 L 294.875 143.548 L 296.027 143.548 L 296.411 138.399 L 297.562 138.399 
                 L 297.87 133.369 L 299.098 133.369 L 299.405 128.46 L 300.711 128.46 L 300.941 123.122 
                 L 302.246 123.136 L 302.477 117.71 L 303.705 117.71 L 304.089 113.222 L 305.241 113.173 
                 L 305.548 108.891 L 306.854 108.953 L 307.084 104.253 L 308.389 104.253 L 308.62 99.1071 
                 L 309.848 99.122 L 310.155 93.8143 L 311.461 93.722 L 311.691 89.0368 L 312.92 89.1761 
                 L 313.227 85.8077 L 314.455 85.5123 L 314.762 83.3637 L 315.991 83.5885 L 316.298 83.3634 
                 L 317.527 83.3634 L 318.064 83.9873 L 319.062 84.2014 L 319.523 85.8686 L 320.598 85.8686 
                 L 320.905 88.2882 L 322.134 88.2882 L 322.441 91.9185 L 323.746 91.6985 L 323.977 95.1385 
                 L 325.205 95.1385 L 325.512 99.1818 L 326.741 99.2483 L 327.048 102.829 L 328.354 102.903 
                 L 328.584 107.075 L 329.889 107.039 L 330.12 111.536 L 331.348 111.506 L 331.655 116.817 
                 L 332.961 116.817 L 333.191 121.695 L 334.42 121.702 L 334.804 125.829 L 336.032 125.853 
                 L 336.339 130.458 L 337.721 130.494 L 337.952 135.718 L 339.027 135.704 L 339.334 140.114 
                 L 340.562 140.126 L 340.87 144.556 L 342.098 144.492 L 342.482 149.042 L 343.634 149.07 
                 L 343.941 154.193 L 345.246 154.224 L 345.554 159.904 L 347.166 159.898 L 347.243 165.87 
                 L 348.318 165.875 L 348.548 171.612 L 349.93 171.629 L 350.007 176.231 L 351.312 176.214 
                 L 351.62 180.863 L 352.848 180.863 L 353.155 185.728 L 354.384 185.728 L 354.691 190.424 
                 L 355.92 190.423 L 356.227 195.122 L 357.532 195.105 L 357.839 200.051 L 359.068 200.052 
                 L 359.375 204.876 L 360.527 204.876 L 360.757 209.936 L 362.062 209.937 L 362.293 215.251 
                 L 363.598 215.251 L 363.905 220.786 L 365.134 220.785 L 365.441 225.852 L 366.67 225.874 
                 L 366.977 231.108 L 368.205 231.108 L 368.589 236.173 L 369.741 236.158 L 369.971 241.258 
                 L 371.277 241.258 L 371.584 246.608 L 372.736 246.608 L 373.043 252.041 L 374.348 252.019 
                 L 374.655 257.656 L 375.807 257.661 L 376.191 263.316 L 377.496 263.332 L 377.727 268.269 
                 L 378.955 268.269 L 379.262 273.064 L 380.491 273.049 L 380.721 278.482 L 382.104 278.464 
                 L 382.257 283.48 L 383.562 283.455 L 383.793 288.561 L 385.021 288.532 L 385.329 293.773 
                 L 386.634 293.734 L 386.864 299.508 L 388.17 299.522 L 388.4 304.847 L 389.782 304.746 
                 L 389.936 310.305 L 391.164 310.305 L 391.471 315.489 L 392.777 315.529 L 393.007 318.651 
                 L 394.236 318.684 L 394.62 319.086 L 397.461 319.222 L 397.768 318.875 L 398.996 318.986 
                 L 399.15 317.082 L 400.455 317.015 L 400.686 313.279 L 401.991 313.275 L 402.221 308.82 
                 L 403.604 308.83 L 403.757 304.349 L 405.062 304.357 L 405.293 299.192 L 406.598 299.192 
                 L 406.905 293.557 L 408.057 293.557 L 408.364 288.437 L 409.67 288.437 L 409.9 283.128 
                 L 411.282 283.14 L 411.436 277.395 L 412.664 277.395 L 413.048 272.288 L 414.277 272.272 
                 L 414.584 267.127 L 415.736 267.126 L 416.043 261.542 L 417.348 261.521 L 417.655 255.9 
                 L 418.961 255.918 L 419.114 251.03 L 420.42 251.03 L 420.65 245.879 L 421.955 245.879 
                 L 422.262 240.511 L 423.414 240.528 L 423.721 234.94 L 425.104 234.94 L 425.257 230.392 
                 L 426.562 230.376 L 426.793 226.151 L 428.098 226.166 L 428.252 221.582 L 429.711 221.582 
                 L 429.864 215.961 L 431.17 215.945 L 431.477 210.191 L 432.705 210.191 L 432.936 205.277 
                 L 434.164 205.277 L 434.548 200.935 L 435.777 200.958 L 436.007 196.284 L 437.389 196.286 
                 L 437.543 191.4 L 438.848 191.397 L 439.155 186.002 L 440.384 185.987 L 440.614 180.454 
                 L 441.843 180.447 L 442.15 175.274 L 443.455 175.279 L 443.762 170.166 L 444.914 170.163 
                 L 445.145 165.093 L 446.527 165.101 L 446.68 160.561 L 447.986 160.552 L 448.293 155.791 
                 L 449.598 155.802 L 449.905 150.515 L 451.057 150.515 L 451.364 144.973 L 452.67 144.983 
                 L 452.9 139.368 L 454.205 139.368 L 454.359 134.025 L 455.741 134.011 L 455.895 129.466 
                 L 457.277 129.453 L 457.43 125.104 L 458.736 125.104 L 458.966 119.979 L 460.425 119.979 
                 L 460.579 114.765 L 461.807 114.765 L 462.114 110.122 L 463.496 110.099 L 463.65 105.759 
                 L 464.879 105.797 L 465.186 101.259 L 466.414 101.212 L 466.645 96.671 L 468.104 96.671 
                 L 468.257 91.9258 L 469.562 92.0427 L 469.716 87.4551 L 471.098 87.3182 L 471.252 84.0057 
                 L 472.634 83.8393 L 472.864 82.6593 L 475.705 83.1086 L 475.859 84.3443 L 477.241 84.1835 
                 L 477.395 86.6181 L 478.777 86.6181 L 478.93 90.0916 L 480.236 90.0007 L 480.543 93.4694 
                 L 481.925 93.5768 L 482.079 97.2449 L 483.307 97.1876 L 483.537 100.936 L 484.92 100.936 
                 L 485.073 104.641 L 486.379 104.641 L 486.609 109.131 L 487.914 109.164 L 488.221 114.005 
                 L 489.45 114.005 L 489.757 119.179 L 490.986 119.229 L 491.216 123.979 L 492.752 123.96 
                 L 492.829 128.335 L 494.057 128.352 L 494.364 132.865 L 495.746 132.839 L 495.9 137.582 
                 L 497.205 137.564 L 497.359 142.271 L 498.818 142.281 L 498.971 146.793 L 500.2 146.793 
                 L 500.507 150.94 L 501.736 150.895 L 501.966 156.22 L 503.348 156.242 L 503.502 161.564 
                 L 504.807 161.545 L 505.037 167.265 L 506.42 167.293 L 506.65 172.586 L 507.955 172.583 
                 L 508.109 177.456 L 509.414 177.456 L 509.645 182.143 L 510.95 182.141 L 511.257 186.985 
                 L 512.562 186.989 L 512.716 191.456 L 514.098 191.436 L 514.175 195.996 L 515.557 196.019 
                 L 515.864 201.244 L 517.17 201.245 L 517.323 206.43 L 518.705 206.43 L 518.859 212.132 
                 L 520.241 212.115 L 520.395 217.331 L 521.7 217.331 L 521.93 222.371 L 523.236 222.371 
                 L 523.466 227.635 L 524.848 227.635 L 525.002 233.217 L 526.307 233.217 L 526.614 238.518 
                 L 527.92 238.5 L 528.073 243.286 L 529.379 243.286 L 529.609 247.992 L 531.145 247.995 
                 L 531.298 253.481 L 532.45 253.481 L 532.68 258.827 L 534.062 258.827 L 534.139 264.566 
                 L 535.521 264.575 L 535.675 269.339 L 537.134 269.339 L 537.288 273.711 L 538.67 273.711 
                 L 538.746 278.921 L 540.205 278.896 L 540.359 284.173 L 541.741 284.121 L 541.895 289.312 
                 L 543.2 289.294 L 543.354 294.475 L 544.889 294.449 L 544.966 299.862 L 546.348 299.844 
                 L 546.502 305.527 L 547.807 305.42 L 547.961 310.962 L 549.343 310.969 L 613.843 133.352 "
          stroke="rgb(55,126,184)" fill="none" stroke-width="0.5"/>
      </g>
    </g>
    <!-- Reference angle vs millis -->
    <g id="Reference_angle_vs_millis">
      <defs>
        <clipPath id="clipPath3">
          <rect x="74.5" y="18.5" width="473" height="343"/>
        </clipPath>
      </defs>
      <g clip-path="url(#clipPath3)">
        <path d="M -50.3536 227.158 L 73.8857 335.775 L 74.9607 332.917 L 75.4214 332.917 L 76.4964 327.2 
                 L 76.9571 327.2 L 78.0321 324.342 L 78.4929 321.483 L 79.4911 318.625 L 80.0286 315.767 
                 L 81.0268 312.908 L 81.5643 310.05 L 82.6393 307.192 L 83.1 307.192 L 84.0982 301.475 
                 L 84.7125 301.475 L 85.7107 298.617 L 86.1714 295.758 L 87.1696 292.9 L 87.7071 290.042 
                 L 88.7821 287.183 L 89.3196 284.325 L 90.3179 281.467 L 90.8554 281.467 L 91.7768 275.75 
                 L 92.3143 275.75 L 93.3893 272.892 L 93.85 270.033 L 94.8482 267.175 L 95.3857 264.317 
                 L 96.3839 261.458 L 96.9214 258.6 L 97.9964 255.742 L 98.4571 255.742 L 99.4554 250.025 
                 L 99.9929 250.025 L 101.145 247.167 L 101.529 244.308 L 102.527 241.45 L 103.064 238.592 
                 L 104.139 235.733 L 104.6 232.875 L 105.598 230.017 L 106.136 230.017 L 107.211 224.3 
                 L 107.671 224.3 L 108.746 221.442 L 109.207 218.583 L 110.282 215.725 L 110.666 212.867 
                 L 111.741 210.008 L 112.279 207.15 L 113.277 204.292 L 113.737 204.292 L 114.889 198.575 
                 L 115.35 198.575 L 116.348 195.717 L 116.809 192.858 L 117.884 190 L 118.421 187.142 
                 L 119.42 184.283 L 119.88 181.425 L 121.032 178.567 L 121.416 178.567 L 122.568 172.85 
                 L 122.952 172.85 L 124.027 169.992 L 124.564 167.133 L 125.562 164.275 L 126.177 161.417 
                 L 127.098 158.558 L 127.636 155.7 L 128.711 152.842 L 129.171 152.842 L 130.17 147.125 
                 L 130.63 147.125 L 131.705 144.267 L 132.166 141.408 L 133.241 138.55 L 133.779 135.692 
                 L 134.777 132.833 L 135.314 129.975 L 136.389 127.117 L 136.773 127.117 L 137.848 121.4 
                 L 138.309 121.4 L 139.461 118.542 L 139.845 115.683 L 140.92 112.825 L 141.38 109.967 
                 L 142.686 107.108 L 142.993 104.25 L 143.991 101.392 L 144.529 101.392 L 145.527 95.675 
                 L 145.987 95.675 L 147.139 92.8167 L 147.523 89.9583 L 148.598 87.1 L 149.059 84.2417 
                 L 150.211 81.3833 L 150.595 81.3833 L 151.67 75.6667 L 152.13 75.6667 L 153.359 72.8083 
                 L 153.666 75.6667 L 154.741 78.525 L 155.202 81.3833 L 156.277 84.2417 L 156.814 84.2417 
                 L 157.889 89.9583 L 158.35 89.9583 L 159.425 95.675 L 159.809 95.675 L 160.961 98.5333 
                 L 161.345 101.392 L 162.496 104.25 L 162.88 107.108 L 164.109 109.967 L 164.493 109.967 
                 L 165.568 115.683 L 165.952 115.683 L 167.104 121.4 L 167.564 121.4 L 168.562 124.258 
                 L 169.023 127.117 L 170.175 129.975 L 170.559 132.833 L 171.634 135.692 L 172.171 135.692 
                 L 173.17 141.408 L 173.554 141.408 L 174.705 144.267 L 175.243 147.125 L 176.241 149.983 
                 L 176.779 152.842 L 177.777 155.7 L 178.237 155.7 L 179.312 161.417 L 179.773 161.417 
                 L 180.848 167.133 L 181.309 167.133 L 182.384 169.992 L 182.921 172.85 L 183.996 175.708 
                 L 184.38 178.567 L 185.532 181.425 L 185.916 181.425 L 186.991 187.142 L 187.452 187.142 
                 L 188.527 192.858 L 188.987 192.858 L 190.062 195.717 L 190.523 198.575 L 191.598 201.433 
                 L 191.982 204.292 L 193.134 207.15 L 193.518 207.15 L 194.746 212.867 L 195.13 212.867 
                 L 196.205 215.725 L 196.666 218.583 L 197.818 221.442 L 198.279 224.3 L 199.277 227.158 
                 L 199.737 230.017 L 200.889 232.875 L 201.273 232.875 L 202.425 238.592 L 203.039 238.592 
                 L 203.961 241.45 L 204.421 244.308 L 205.496 247.167 L 205.88 250.025 L 206.955 252.883 
                 L 207.416 255.742 L 208.568 258.6 L 208.952 258.6 L 210.027 264.317 L 210.487 264.317 
                 L 211.562 267.175 L 212.023 270.033 L 213.098 272.892 L 213.559 275.75 L 214.711 278.608 
                 L 215.095 281.467 L 216.246 284.325 L 216.63 284.325 L 217.705 290.042 L 218.089 290.042 
                 L 219.241 292.9 L 219.702 295.758 L 220.854 298.617 L 221.237 301.475 L 222.312 304.333 
                 L 222.696 307.192 L 223.925 310.05 L 224.232 310.05 L 225.461 315.767 L 225.768 315.767 
                 L 226.92 318.625 L 227.304 321.483 L 228.532 324.342 L 228.916 327.2 L 229.991 330.058 
                 L 230.375 332.917 L 231.527 335.775 L 231.911 335.775 L 233.062 330.058 L 233.446 330.058 
                 L 234.598 327.2 L 234.982 324.342 L 236.057 321.483 L 236.518 318.625 L 237.67 315.767 
                 L 237.977 315.767 L 239.205 310.05 L 239.589 310.05 L 240.741 304.333 L 241.202 304.333 
                 L 242.354 301.475 L 242.737 298.617 L 243.812 295.758 L 244.196 292.9 L 245.348 290.042 
                 L 245.732 290.042 L 246.884 284.325 L 247.268 284.325 L 248.496 278.608 L 248.804 278.608 
                 L 249.955 275.75 L 250.339 272.892 L 251.491 270.033 L 251.875 267.175 L 253.027 264.317 
                 L 253.411 264.317 L 254.486 258.6 L 254.87 258.6 L 256.098 255.742 L 256.482 252.883 
                 L 257.634 250.025 L 258.018 247.167 L 259.17 244.308 L 259.707 244.308 L 260.859 238.592 
                 L 261.166 238.592 L 262.241 232.875 L 262.625 232.875 L 263.777 230.017 L 264.161 227.158 
                 L 265.312 224.3 L 265.62 221.442 L 266.848 218.583 L 267.232 218.583 L 268.384 212.867 
                 L 268.691 212.867 L 269.996 207.15 L 270.38 207.15 L 271.532 204.292 L 271.839 201.433 
                 L 272.991 198.575 L 273.375 195.717 L 274.527 192.858 L 274.911 192.858 L 276.062 187.142 
                 L 276.446 187.142 L 277.521 181.425 L 277.905 181.425 L 279.134 178.567 L 279.441 175.708 
                 L 280.746 172.85 L 281.054 169.992 L 282.282 167.133 L 282.512 167.133 L 283.741 161.417 
                 L 284.048 161.417 L 285.277 155.7 L 285.661 155.7 L 286.812 152.842 L 287.12 149.983 
                 L 288.348 147.125 L 288.809 144.267 L 289.884 141.408 L 290.268 141.408 L 291.42 135.692 
                 L 291.804 135.692 L 292.955 129.975 L 293.339 129.975 L 294.491 127.117 L 294.875 124.258 
                 L 296.027 121.4 L 296.411 118.542 L 297.562 115.683 L 297.87 115.683 L 299.098 109.967 
                 L 299.405 109.967 L 300.711 104.25 L 300.941 104.25 L 302.246 101.392 L 302.477 98.5333 
                 L 303.705 95.675 L 304.089 92.8167 L 305.241 89.9583 L 305.548 89.9583 L 306.854 84.2417 
                 L 307.084 84.2417 L 308.389 78.525 L 308.62 78.525 L 309.848 75.6667 L 310.155 72.8083 
                 L 311.461 75.6667 L 311.691 78.525 L 312.92 81.3833 L 313.227 81.3833 L 314.455 87.1 
                 L 314.762 87.1 L 315.991 92.8167 L 316.298 92.8167 L 317.527 95.675 L 318.064 98.5333 
                 L 319.062 101.392 L 319.523 104.25 L 320.598 107.108 L 320.905 107.108 L 322.134 112.825 
                 L 322.441 112.825 L 323.746 118.542 L 323.977 118.542 L 325.205 121.4 L 325.512 124.258 
                 L 326.741 127.117 L 327.048 129.975 L 328.354 132.833 L 328.584 132.833 L 329.889 138.55 
                 L 330.12 138.55 L 331.348 144.267 L 331.655 144.267 L 332.961 147.125 L 333.191 149.983 
                 L 334.42 152.842 L 334.804 155.7 L 336.032 158.558 L 336.339 158.558 L 337.721 164.275 
                 L 337.952 164.275 L 339.027 169.992 L 339.334 169.992 L 340.562 172.85 L 340.87 175.708 
                 L 342.098 178.567 L 342.482 181.425 L 343.634 184.283 L 343.941 184.283 L 345.246 190 
                 L 345.554 190 L 347.243 195.717 L 348.318 198.575 L 348.548 201.433 L 349.93 204.292 
                 L 350.007 207.15 L 351.312 210.008 L 351.62 210.008 L 352.848 215.725 L 353.155 215.725 
                 L 354.384 221.442 L 354.691 221.442 L 355.92 224.3 L 356.227 227.158 L 357.532 230.017 
                 L 357.839 232.875 L 359.068 235.733 L 359.375 235.733 L 360.527 241.45 L 360.757 241.45 
                 L 362.062 247.167 L 362.293 247.167 L 363.598 250.025 L 363.905 252.883 L 365.134 255.742 
                 L 365.441 258.6 L 366.67 261.458 L 366.977 261.458 L 368.205 267.175 L 368.589 267.175 
                 L 369.741 272.892 L 369.971 272.892 L 371.277 275.75 L 371.584 278.608 L 372.736 281.467 
                 L 373.043 284.325 L 374.348 287.183 L 374.655 287.183 L 375.807 292.9 L 376.191 292.9 
                 L 377.496 298.617 L 377.727 298.617 L 378.955 301.475 L 379.262 304.333 L 380.491 307.192 
                 L 380.721 310.05 L 382.104 312.908 L 382.257 312.908 L 383.562 318.625 L 383.793 318.625 
                 L 385.021 324.342 L 385.329 324.342 L 386.634 327.2 L 386.864 330.058 L 388.17 332.917 
                 L 388.4 335.775 L 389.782 332.917 L 389.936 332.917 L 391.164 327.2 L 391.471 327.2 
                 L 392.777 321.483 L 393.007 321.483 L 394.236 318.625 L 394.62 315.767 L 395.925 312.908 
                 L 396.079 310.05 L 397.461 307.192 L 397.768 307.192 L 398.996 301.475 L 399.15 301.475 
                 L 400.455 295.758 L 400.686 295.758 L 401.991 292.9 L 402.221 290.042 L 403.604 287.183 
                 L 403.757 287.183 L 405.062 281.467 L 405.293 281.467 L 406.598 275.75 L 406.905 275.75 
                 L 408.057 270.033 L 408.364 270.033 L 409.67 267.175 L 409.9 264.317 L 411.282 261.458 
                 L 411.436 261.458 L 412.664 255.742 L 413.048 255.742 L 414.277 250.025 L 414.584 250.025 
                 L 415.736 244.308 L 416.043 244.308 L 417.348 241.45 L 417.655 238.592 L 418.961 235.733 
                 L 419.114 235.733 L 420.42 230.017 L 420.65 230.017 L 421.955 224.3 L 422.262 224.3 
                 L 423.414 221.442 L 423.721 218.583 L 425.104 215.725 L 425.257 215.725 L 426.562 210.008 
                 L 426.793 210.008 L 428.098 204.292 L 428.252 204.292 L 429.711 198.575 L 429.864 198.575 
                 L 431.17 195.717 L 431.477 192.858 L 432.705 190 L 432.936 190 L 434.164 184.283 L 434.548 184.283 
                 L 435.777 178.567 L 436.007 178.567 L 437.389 172.85 L 437.543 172.85 L 438.848 169.992 
                 L 439.155 167.133 L 440.384 164.275 L 440.614 164.275 L 441.843 158.558 L 442.15 158.558 
                 L 443.455 152.842 L 443.762 152.842 L 444.914 147.125 L 445.145 147.125 L 446.527 144.267 
                 L 446.68 141.408 L 447.986 138.55 L 448.293 138.55 L 449.598 132.833 L 449.905 132.833 
                 L 451.057 127.117 L 451.364 127.117 L 452.67 121.4 L 452.9 121.4 L 454.205 118.542 L 454.359 115.683 
                 L 455.741 112.825 L 455.895 112.825 L 457.277 107.108 L 457.43 107.108 L 458.736 101.392 
                 L 458.966 101.392 L 460.425 95.675 L 460.579 95.675 L 461.807 92.8167 L 462.114 89.9583 
                 L 463.496 87.1 L 463.65 87.1 L 464.879 81.3833 L 465.186 81.3833 L 466.414 75.6667 L 468.257 75.6667 
                 L 469.562 78.525 L 469.716 81.3833 L 471.098 84.2417 L 471.252 84.2417 L 472.634 89.9583 
                 L 472.864 89.9583 L 474.17 95.675 L 474.323 95.675 L 475.705 98.5333 L 475.859 101.392 
                 L 477.241 104.25 L 477.395 104.25 L 478.777 109.967 L 478.93 109.967 L 480.236 115.683 
                 L 480.543 115.683 L 481.925 121.4 L 482.079 121.4 L 483.307 124.258 L 483.537 127.117 
                 L 484.92 129.975 L 485.073 129.975 L 486.379 135.692 L 486.609 135.692 L 487.914 141.408 
                 L 488.221 141.408 L 489.45 144.267 L 489.757 147.125 L 490.986 149.983 L 491.216 149.983 
                 L 492.829 155.7 L 494.057 161.417 L 494.364 161.417 L 495.746 167.133 L 495.9 167.133 
                 L 497.205 169.992 L 497.359 172.85 L 498.818 175.708 L 498.971 175.708 L 500.2 181.425 
                 L 500.507 181.425 L 501.736 187.142 L 501.966 187.142 L 503.348 190 L 503.502 192.858 
                 L 504.807 195.717 L 505.037 195.717 L 506.42 201.433 L 506.65 201.433 L 507.955 207.15 
                 L 508.109 207.15 L 509.414 212.867 L 509.645 212.867 L 510.95 215.725 L 511.257 218.583 
                 L 512.562 221.442 L 512.716 221.442 L 515.557 232.875 L 515.864 232.875 L 517.17 238.592 
                 L 517.323 238.592 L 518.705 241.45 L 518.859 244.308 L 520.241 247.167 L 520.395 247.167 
                 L 521.7 252.883 L 521.93 252.883 L 523.236 258.6 L 523.466 258.6 L 524.848 264.317 L 525.002 264.317 
                 L 526.307 267.175 L 526.614 270.033 L 527.92 272.892 L 528.073 272.892 L 529.379 278.608 
                 L 529.609 278.608 L 531.145 284.325 L 531.298 284.325 L 532.45 290.042 L 532.68 290.042 
                 L 534.062 292.9 L 534.139 295.758 L 535.521 298.617 L 535.675 298.617 L 537.134 304.333 
                 L 537.288 304.333 L 538.746 310.05 L 540.205 315.767 L 540.359 315.767 L 541.741 318.625 
                 L 541.895 321.483 L 543.2 324.342 L 543.354 324.342 L 546.502 335.775 L 547.807 330.058 
                 L 547.961 330.058 L 549.343 327.2 L 613.843 109.967 "
          stroke="rgb(255,127,0)" fill="none" stroke-width="0.5"/>
      </g>
    </g>
    <!-- Legend -->
    <g id="Legend">
      <rect x="338.5" y="26.5" width="200" height="32.4" stroke="black" fill="none" stroke-width="0.5"/>
      <defs>
        <clipPath id="clipPath4">
          <rect x="338.5" y="26.5" width="200" height="32.4"/>
        </clipPath>
      </defs>
      <g clip-path="url(#clipPath4)">
        <path d="M 343.5 35.5 L 357.5 35.5 "
          stroke="rgb(55,126,184)" fill="none" stroke-width="0.5"/>
        <g font-family="Helvetica" font-size="12" fill="black">
          <text x="362.5" y="39.8037">Measured angle vs millis</text>
        </g>
        <path d="M 343.5 49.5 L 357.5 49.5 "
          stroke="rgb(255,127,0)" fill="none" stroke-width="0.5"/>
        <g font-family="Helvetica" font-size="12" fill="black">
          <text x="362.5" y="54.2037">Reference angle vs millis</text>
        </g>
      </g>
    </g>
  </g>
  <!-- Foreground -->
  <g id="Foreground">
    <!-- Y Axis -->
    <g id="Y_Axis">
      <g transform="translate(14.0188,190) rotate(-90) translate(-14.0188,-190)" font-family="Helvetica" font-size="12" fill="black">
        <text x="-17.0008" y="190">Angle (deg)</text>
      </g>
      <!-- Y Labels -->
      <g id="Y_Labels">
        <g font-family="Helvetica" font-size="12" fill="black">
          <text x="50.7523" y="365.804">80</text>
        </g>
        <g font-family="Helvetica" font-size="12" fill="black">
          <text x="50.7523" y="337.22">90</text>
        </g>
        <g font-family="Helvetica" font-size="12" fill="black">
          <text x="44.0785" y="308.637">100</text>
        </g>
        <g font-family="Helvetica" font-size="12" fill="black">
          <text x="44.9633" y="280.054">110</text>
        </g>
        <g font-family="Helvetica" font-size="12" fill="black">
          <text x="44.0785" y="251.47">120</text>
        </g>
        <g font-family="Helvetica" font-size="12" fill="black">
          <text x="44.0785" y="222.887">130</text>
        </g>
        <g font-family="Helvetica" font-size="12" fill="black">
          <text x="44.0785" y="194.304">140</text>
        </g>
        <g font-family="Helvetica" font-size="12" fill="black">
          <text x="44.0785" y="165.72">150</text>
        </g>
        <g font-family="Helvetica" font-size="12" fill="black">
          <text x="44.0785" y="137.137">160</text>
        </g>
        <g font-family="Helvetica" font-size="12" fill="black">
          <text x="44.0785" y="108.554">170</text>
        </g>
        <g font-family="Helvetica" font-size="12" fill="black">
          <text x="44.0785" y="79.9704">180</text>
        </g>
        <g font-family="Helvetica" font-size="12" fill="black">
          <text x="44.0785" y="51.387">190</text>
        </g>
        <g font-family="Helvetica" font-size="12" fill="black">
          <text x="44.0785" y="22.8037">200</text>
        </g>
      </g>
      <path d="M 66.5 361.5 L 74.5 361.5 M 70.5 347.208 L 74.5 347.208 M 66.5 332.917 L 74.5 332.917 
               M 70.5 318.625 L 74.5 318.625 M 66.5 304.333 L 74.5 304.333 M 70.5 290.042 L 74.5 290.042 
               M 66.5 275.75 L 74.5 275.75 M 70.5 261.458 L 74.5 261.458 M 66.5 247.167 L 74.5 247.167 
               M 70.5 232.875 L 74.5 232.875 M 66.5 218.583 L 74.5 218.583 M 70.5 204.292 L 74.5 204.292 
               M 66.5 190 L 74.5 190 M 70.5 175.708 L 74.5 175.708 M 66.5 161.417 L 74.5 161.417 M 70.5 147.125 L 74.5 147.125 
               M 66.5 132.833 L 74.5 132.833 M 70.5 118.542 L 74.5 118.542 M 66.5 104.25 L 74.5 104.25 
               M 70.5 89.9583 L 74.5 89.9583 M 66.5 75.6667 L 74.5 75.6667 M 70.5 61.375 L 74.5 61.375 
               M 66.5 47.0833 L 74.5 47.0833 M 70.5 32.7917 L 74.5 32.7917 M 66.5 18.5 L 74.5 18.5 "
        stroke="black" fill="none" stroke-width="0.5"/>
    </g>
    <!-- X Axis -->
    <g id="X_Axis">
      <g font-family="Helvetica" font-size="12" fill="black">
        <text x="284.226" y="399">Time (ms)</text>
      </g>
      <g>
        <g font-family="Helvetica" font-size="12" fill="black">
          <text x="88.073" y="380.69">11,000</text>
        </g>
        <g font-family="Helvetica" font-size="12" fill="black">
          <text x="164.416" y="380.69">12,000</text>
        </g>
        <g font-family="Helvetica" font-size="12" fill="black">
          <text x="241.202" y="380.69">13,000</text>
        </g>
        <g font-family="Helvetica" font-size="12" fill="black">
          <text x="317.988" y="380.69">14,000</text>
        </g>
        <g font-family="Helvetica" font-size="12" fill="black">
          <text x="394.773" y="380.69">15,000</text>
        </g>
        <g font-family="Helvetica" font-size="12" fill="black">
          <text x="471.559" y="380.69">16,000</text>
        </g>
      </g>
      <path d="M 105.982 369.5 L 105.982 361.5 M 182.768 369.5 L 182.768 361.5 M 259.554 369.5 L 259.554 361.5 
               M 336.339 369.5 L 336.339 361.5 M 413.125 369.5 L 413.125 361.5 M 489.911 369.5 L 489.911 361.5 
               M 75.2679 365.5 L 75.2679 361.5 M 82.9464 365.5 L 82.9464 361.5 M 90.625 365.5 L 90.625 361.5 
               M 98.3036 365.5 L 98.3036 361.5 M 113.661 365.5 L 113.661 361.5 M 121.339 365.5 L 121.339 361.5 
               M 129.018 365.5 L 129.018 361.5 M 136.696 365.5 L 136.696 361.5 M 144.375 365.5 L 144.375 361.5 
               M 152.054 365.5 L 152.054 361.5 M 159.732 365.5 L 159.732 361.5 M 167.411 365.5 L 167.411 361.5 
               M 175.089 365.5 L 175.089 361.5 M 190.446 365.5 L 190.446 361.5 M 198.125 365.5 L 198.125 361.5 
               M 205.804 365.5 L 205.804 361.5 M 213.482 365.5 L 213.482 361.5 M 221.161 365.5 L 221.161 361.5 
               M 228.839 365.5 L 228.839 361.5 M 236.518 365.5 L 236.518 361.5 M 244.196 365.5 L 244.196 361.5 
               M 251.875 365.5 L 251.875 361.5 M 267.232 365.5 L 267.232 361.5 M 274.911 365.5 L 274.911 361.5 
               M 282.589 365.5 L 282.589 361.5 M 290.268 365.5 L 290.268 361.5 M 297.946 365.5 L 297.946 361.5 
               M 305.625 365.5 L 305.625 361.5 M 313.304 365.5 L 313.304 361.5 M 320.982 365.5 L 320.982 361.5 
               M 328.661 365.5 L 328.661 361.5 M 344.018 365.5 L 344.018 361.5 M 351.696 365.5 L 351.696 361.5 
               M 359.375 365.5 L 359.375 361.5 M 367.054 365.5 L 367.054 361.5 M 374.732 365.5 L 374.732 361.5 
               M 382.411 365.5 L 382.411 361.5 M 390.089 365.5 L 390.089 361.5 M 397.768 365.5 L 397.768 361.5 
               M 405.446 365.5 L 405.446 361.5 M 420.804 365.5 L 420.804 361.5 M 428.482 365.5 L 428.482 361.5 
               M 436.161 365.5 L 436.161 361.5 M 443.839 365.5 L 443.839 361.5 M 451.518 365.5 L 451.518 361.5 
               M 459.196 365.5 L 459.196 361.5 M 466.875 365.5 L 466.875 361.5 M 474.554 365.5 L 474.554 361.5 
               M 482.232 365.5 L 482.232 361.5 M 497.589 365.5 L 497.589 361.5 M 505.268 365.5 L 505.268 361.5 
               M 512.946 365.5 L 512.946 361.5 M 520.625 365.5 L 520.625 361.5 M 528.304 365.5 L 528.304 361.5 
               M 535.982 365.5 L 535.982 361.5 M 543.661 365.5 L 543.661 361.5 "
        stroke="black" fill="none" stroke-width="0.5"/>
    </g>
    <g font-family="Helvetica" font-size="12" fill="black">
      <text x="225.559" y="14.0188">measurement of angles (100°/s)</text>
    </g>
    <path d="M 547.5 361.5 L 547.5 18.5 L 74.5 18.5 L 74.5 361.5 L 547.5 361.5 z "
      stroke="black" stroke-linecap="square" fill="none" stroke-width="0.5"/>
  </g>
</g>
</svg>
